# Wavefront OBJ file
# Creator: Ultimate Unwrap3D Pro v3.35
# Website: http://www.unwrap3d.com
# Time: Sat Jun 15 10:37:01 2013
# num_vertices: 20
# num_vertex_normals: 20
# num_uvs: 30
# num_faces: 10
# num_groups: 1

v -4.500000 6.000000 -3.000000
v -4.500000 6.000000 -3.000000
v -4.500000 6.000000 -3.000000
v -4.500000 6.000000 3.000000
v -4.500000 6.000000 3.000000
v -4.500000 6.000000 3.000000
v 4.500000 6.000000 3.000000
v 4.500000 6.000000 3.000000
v 4.500000 6.000000 3.000000
v 4.500000 6.000000 -3.000000
v 4.500000 6.000000 -3.000000
v 4.500000 6.000000 -3.000000
v 4.500000 0.000000 3.000000
v 4.500000 0.000000 3.000000
v 4.500000 0.000000 -3.000000
v 4.500000 0.000000 -3.000000
v -4.500000 0.000000 -3.000000
v -4.500000 0.000000 -3.000000
v -4.500000 0.000000 3.000000
v -4.500000 0.000000 3.000000
# num_vertices: 20

vn -1.000000 0.000000 0.000000
vn 0.000000 0.000000 -1.000000
vn 0.000000 1.000000 0.000000
vn -1.000000 0.000000 0.000000
vn 0.000000 0.000000 1.000000
vn 0.000000 1.000000 0.000000
vn 1.000000 0.000000 0.000000
vn 0.000000 1.000000 0.000000
vn 0.000000 0.000000 1.000000
vn 1.000000 0.000000 0.000000
vn 0.000000 1.000000 0.000000
vn 0.000000 0.000000 -1.000000
vn 1.000000 0.000000 0.000000
vn 0.000000 0.000000 1.000000
vn 1.000000 0.000000 0.000000
vn 0.000000 0.000000 -1.000000
vn -1.000000 0.000000 0.000000
vn 0.000000 0.000000 -1.000000
vn -1.000000 0.000000 0.000000
vn 0.000000 0.000000 1.000000
# num_vertex_normals: 20

vt 22.500000 -19.875000
vt 22.500000 -19.687500
vt 22.218750 -19.687500
vt 20.875000 19.437500
vt 20.687500 19.250000
vt 20.875000 19.250000
vt 20.875000 19.437500
vt 20.687500 19.437500
vt 20.687500 19.250000
vt -20.687500 19.437500
vt -20.875000 19.250000
vt -20.687500 19.250000
vt -20.687500 19.437500
vt -20.875000 19.437500
vt -20.875000 19.250000
vt -22.218750 19.437500
vt -22.500000 19.250000
vt -22.218750 19.250000
vt -22.218750 19.437500
vt -22.500000 19.437500
vt -22.500000 19.250000
vt 22.500000 -19.875000
vt 22.218750 -19.687500
vt 22.218750 -19.875000
vt 22.500000 19.437500
vt 22.218750 19.250000
vt 22.500000 19.250000
vt 22.500000 19.437500
vt 22.218750 19.437500
vt 22.218750 19.250000
# num_uvs: 30

g Generic

f 3/1/3 6/2/6 8/3/8 
f 10/4/10 13/5/13 15/6/15 
f 10/7/10 7/8/7 13/9/13 
f 4/10/4 17/11/17 19/12/19 
f 4/13/4 1/14/1 17/15/17 
f 9/16/9 20/17/20 14/18/14 
f 9/19/9 5/20/5 20/21/20 
f 3/22/3 8/23/8 11/24/11 
f 2/25/2 16/26/16 18/27/18 
f 2/28/2 12/29/12 16/30/16 
# num_faces: 10

