# Wavefront OBJ file
# Creator: Ultimate Unwrap3D Pro v3.35
# Website: http://www.unwrap3d.com
# Time: Sat Jun 15 10:35:24 2013
# num_vertices: 98
# num_vertex_normals: 98
# num_uvs: 288
# num_faces: 96
# num_groups: 1

v 2.000000 10.000000 -2.000000
v 2.000000 1.000000 -2.000000
v -3.000000 10.000000 3.000000
v -3.000000 10.000000 3.000000
v -3.625000 10.000000 -2.000000
v -3.625000 10.000000 -2.000000
v 3.000000 1.000000 3.000000
v 3.000000 1.000000 3.000000
v 3.875000 1.000000 1.000000
v 3.875000 1.000000 1.000000
v 3.625000 1.000000 2.000000
v 3.625000 1.000000 2.000000
v 4.000000 1.000000 0.000000
v 4.000000 1.000000 0.000000
v 3.875000 1.000000 -1.000000
v 3.875000 1.000000 -1.000000
v 3.625000 1.000000 -2.000000
v 3.625000 1.000000 -2.000000
v 2.000000 1.000000 3.625000
v 2.000000 1.000000 3.625000
v 2.000000 1.000000 -3.625000
v 2.000000 1.000000 -3.625000
v 3.000000 1.000000 -3.000000
v 3.000000 1.000000 -3.000000
v 1.000000 1.000000 -3.875000
v 1.000000 1.000000 -3.875000
v 0.000000 1.000000 -4.000000
v 0.000000 1.000000 -4.000000
v -1.000000 1.000000 -3.875000
v -1.000000 1.000000 -3.875000
v -2.000000 1.000000 -3.625000
v -2.000000 1.000000 -3.625000
v -3.000000 1.000000 -3.000000
v -3.000000 1.000000 -3.000000
v -3.625000 1.000000 -2.000000
v -3.625000 1.000000 -2.000000
v -2.000000 1.000000 3.625000
v -2.000000 1.000000 3.625000
v 0.000000 1.000000 4.000000
v 0.000000 1.000000 4.000000
v -1.000000 1.000000 3.875000
v -1.000000 1.000000 3.875000
v 1.000000 1.000000 3.875000
v 1.000000 1.000000 3.875000
v -3.875000 1.000000 -1.000000
v -3.875000 1.000000 -1.000000
v -4.000000 1.000000 0.000000
v -4.000000 1.000000 0.000000
v -3.875000 1.000000 1.000000
v -3.875000 1.000000 1.000000
v -3.625000 1.000000 2.000000
v -3.625000 1.000000 2.000000
v -3.000000 1.000000 3.000000
v -3.000000 1.000000 3.000000
v 2.000000 10.000000 3.625000
v 2.000000 10.000000 3.625000
v 3.625000 10.000000 -2.000000
v 3.625000 10.000000 -2.000000
v 3.875000 10.000000 -1.000000
v 3.875000 10.000000 -1.000000
v 4.000000 10.000000 0.000000
v 4.000000 10.000000 0.000000
v 3.875000 10.000000 1.000000
v 3.875000 10.000000 1.000000
v 3.625000 10.000000 2.000000
v 3.625000 10.000000 2.000000
v 3.000000 10.000000 3.000000
v 3.000000 10.000000 3.000000
v -2.000000 10.000000 -3.625000
v -2.000000 10.000000 -3.625000
v -3.000000 10.000000 -3.000000
v -3.000000 10.000000 -3.000000
v -1.000000 10.000000 -3.875000
v -1.000000 10.000000 -3.875000
v 0.000000 10.000000 -4.000000
v 0.000000 10.000000 -4.000000
v 1.000000 10.000000 -3.875000
v 1.000000 10.000000 -3.875000
v 2.000000 10.000000 -3.625000
v 2.000000 10.000000 -3.625000
v 3.000000 10.000000 -3.000000
v 3.000000 10.000000 -3.000000
v -3.875000 10.000000 1.000000
v -3.875000 10.000000 1.000000
v -3.625000 10.000000 2.000000
v -3.625000 10.000000 2.000000
v -4.000000 10.000000 0.000000
v -4.000000 10.000000 0.000000
v -3.875000 10.000000 -1.000000
v -3.875000 10.000000 -1.000000
v 1.000000 10.000000 3.875000
v 1.000000 10.000000 3.875000
v 0.000000 10.000000 4.000000
v 0.000000 10.000000 4.000000
v -1.000000 10.000000 3.875000
v -1.000000 10.000000 3.875000
v -2.000000 10.000000 3.625000
v -2.000000 10.000000 3.625000
# num_vertices: 98

vn 0.000000 1.000000 0.000000
vn 0.000000 -1.000000 0.000000
vn 0.000000 1.000000 0.000000
vn -0.650791 0.000000 0.759257
vn 0.000000 1.000000 0.000000
vn -0.939669 0.000000 -0.342085
vn 0.000000 -1.000000 0.000000
vn 0.650791 0.000000 0.759257
vn 0.000000 -1.000000 0.000000
vn 0.979103 0.000000 0.203364
vn 0.000000 -1.000000 0.000000
vn 0.898506 0.000000 0.438962
vn 0.000000 -1.000000 0.000000
vn 0.999133 0.000000 0.041631
vn 0.000000 -1.000000 0.000000
vn 0.986494 0.000000 -0.163800
vn 0.000000 -1.000000 0.000000
vn 0.939669 0.000000 -0.342085
vn 0.000000 -1.000000 0.000000
vn 0.342085 0.000000 0.939669
vn 0.000000 -1.000000 0.000000
vn 0.438962 0.000000 -0.898506
vn 0.000000 -1.000000 0.000000
vn 0.759257 0.000000 -0.650791
vn 0.000000 -1.000000 0.000000
vn 0.203364 0.000000 -0.979103
vn 0.000000 -1.000000 0.000000
vn 0.041631 0.000000 -0.999133
vn 0.000000 -1.000000 0.000000
vn -0.163800 0.000000 -0.986494
vn 0.000000 -1.000000 0.000000
vn -0.342085 0.000000 -0.939669
vn 0.000000 -1.000000 0.000000
vn -0.650791 0.000000 -0.759257
vn 0.000000 -1.000000 0.000000
vn -0.898506 0.000000 -0.438962
vn 0.000000 -1.000000 0.000000
vn -0.438962 0.000000 0.898506
vn 0.000000 -1.000000 0.000000
vn -0.041631 0.000000 0.999133
vn 0.000000 -1.000000 0.000000
vn -0.203364 0.000000 0.979103
vn 0.000000 -1.000000 0.000000
vn 0.163800 0.000000 0.986494
vn 0.000000 -1.000000 0.000000
vn -0.979103 0.000000 -0.203364
vn 0.000000 -1.000000 0.000000
vn -0.999133 0.000000 -0.041631
vn 0.000000 -1.000000 0.000000
vn -0.986494 0.000000 0.163800
vn 0.000000 -1.000000 0.000000
vn -0.939669 0.000000 0.342085
vn 0.000000 -1.000000 0.000000
vn -0.759257 0.000000 0.650791
vn 0.000000 1.000000 0.000000
vn 0.438962 0.000000 0.898506
vn 0.000000 1.000000 0.000000
vn 0.898506 0.000000 -0.438962
vn 0.000000 1.000000 0.000000
vn 0.979103 0.000000 -0.203364
vn 0.000000 1.000000 0.000000
vn 0.999133 0.000000 -0.041631
vn 0.000000 1.000000 0.000000
vn 0.986494 0.000000 0.163800
vn 0.000000 1.000000 0.000000
vn 0.939669 0.000000 0.342085
vn 0.000000 1.000000 0.000000
vn 0.759257 0.000000 0.650791
vn 0.000000 1.000000 0.000000
vn -0.438962 0.000000 -0.898506
vn 0.000000 1.000000 0.000000
vn -0.759257 0.000000 -0.650791
vn 0.000000 1.000000 0.000000
vn -0.203364 0.000000 -0.979103
vn 0.000000 1.000000 0.000000
vn -0.041631 0.000000 -0.999133
vn 0.000000 1.000000 0.000000
vn 0.163800 0.000000 -0.986494
vn 0.000000 1.000000 0.000000
vn 0.342085 0.000000 -0.939669
vn 0.000000 1.000000 0.000000
vn 0.650791 0.000000 -0.759257
vn 0.000000 1.000000 0.000000
vn -0.979103 0.000000 0.203364
vn 0.000000 1.000000 0.000000
vn -0.898506 0.000000 0.438962
vn 0.000000 1.000000 0.000000
vn -0.999133 0.000000 0.041631
vn 0.000000 1.000000 0.000000
vn -0.986494 0.000000 -0.163800
vn 0.000000 1.000000 0.000000
vn 0.203364 0.000000 0.979103
vn 0.000000 1.000000 0.000000
vn 0.041631 0.000000 0.999133
vn 0.000000 1.000000 0.000000
vn -0.163800 0.000000 0.986494
vn 0.000000 1.000000 0.000000
vn -0.342085 0.000000 0.939669
# num_vertex_normals: 98

vt 21.718750 -19.718750
vt 21.562500 -19.562500
vt 21.562500 -19.738281
vt 21.718750 21.531250
vt 21.656250 21.503906
vt 21.687500 21.511719
vt 21.718750 21.531250
vt 21.625000 21.500000
vt 21.656250 21.503906
vt 21.718750 21.531250
vt 21.593750 21.503906
vt 21.625000 21.500000
vt 21.718750 21.531250
vt 21.562500 21.511719
vt 21.593750 21.503906
vt 21.718750 21.531250
vt 21.562500 21.562500
vt 21.562500 21.511719
vt 21.718750 21.531250
vt 21.738281 21.562500
vt 21.562500 21.562500
vt 21.562500 21.511719
vt 21.511719 21.562500
vt 21.531250 21.531250
vt 21.562500 21.511719
vt 21.503906 21.593750
vt 21.511719 21.562500
vt 21.562500 21.511719
vt 21.500000 21.625000
vt 21.503906 21.593750
vt 21.562500 21.511719
vt 21.503906 21.656250
vt 21.500000 21.625000
vt 21.562500 21.511719
vt 21.511719 21.687500
vt 21.503906 21.656250
vt 21.562500 21.511719
vt 21.531250 21.718750
vt 21.511719 21.687500
vt 21.562500 21.562500
vt 21.562500 21.738281
vt 21.531250 21.718750
vt 21.562500 21.511719
vt 21.562500 21.562500
vt 21.531250 21.718750
vt 21.738281 21.687500
vt 21.750000 21.625000
vt 21.746094 21.656250
vt 21.738281 21.687500
vt 21.746094 21.593750
vt 21.750000 21.625000
vt 21.738281 21.687500
vt 21.738281 21.562500
vt 21.746094 21.593750
vt 21.738281 21.687500
vt 21.562500 21.562500
vt 21.738281 21.562500
vt 21.738281 21.687500
vt 21.562500 21.738281
vt 21.562500 21.562500
vt 21.738281 21.687500
vt 21.593750 21.746094
vt 21.562500 21.738281
vt 21.738281 21.687500
vt 21.625000 21.750000
vt 21.593750 21.746094
vt 21.738281 21.687500
vt 21.656250 21.746094
vt 21.625000 21.750000
vt 21.738281 21.687500
vt 21.687500 21.738281
vt 21.656250 21.746094
vt 21.738281 21.687500
vt 21.718750 21.718750
vt 21.687500 21.738281
vt 21.738281 -19.562500
vt 21.562500 -19.511719
vt 21.562500 -19.562500
vt 21.738281 -19.562500
vt 21.593750 -19.503906
vt 21.562500 -19.511719
vt 21.738281 -19.562500
vt 21.625000 -19.500000
vt 21.593750 -19.503906
vt 21.738281 -19.562500
vt 21.656250 -19.503906
vt 21.625000 -19.500000
vt 21.738281 -19.562500
vt 21.687500 -19.511719
vt 21.656250 -19.503906
vt 21.738281 -19.562500
vt 21.718750 -19.531250
vt 21.687500 -19.511719
vt 21.562500 -19.738281
vt 21.511719 -19.687500
vt 21.531250 -19.718750
vt 21.562500 -19.738281
vt 21.503906 -19.656250
vt 21.511719 -19.687500
vt 21.562500 -19.738281
vt 21.500000 -19.625000
vt 21.503906 -19.656250
vt 21.562500 -19.738281
vt 21.503906 -19.593750
vt 21.500000 -19.625000
vt 21.562500 -19.738281
vt 21.511719 -19.562500
vt 21.503906 -19.593750
vt 21.562500 -19.738281
vt 21.531250 -19.531250
vt 21.511719 -19.562500
vt 21.562500 -19.562500
vt 21.562500 -19.511719
vt 21.531250 -19.531250
vt 21.562500 -19.738281
vt 21.562500 -19.562500
vt 21.531250 -19.531250
vt 21.718750 -19.718750
vt 21.656250 -19.746094
vt 21.687500 -19.738281
vt 21.718750 -19.718750
vt 21.625000 -19.750000
vt 21.656250 -19.746094
vt 21.718750 -19.718750
vt 21.593750 -19.746094
vt 21.625000 -19.750000
vt 21.718750 -19.718750
vt 21.562500 -19.738281
vt 21.593750 -19.746094
vt 21.718750 -19.718750
vt 21.738281 -19.562500
vt 21.562500 -19.562500
vt 21.718750 -19.718750
vt 21.746094 -19.593750
vt 21.738281 -19.562500
vt 21.718750 -19.718750
vt 21.750000 -19.625000
vt 21.746094 -19.593750
vt 21.718750 -19.718750
vt 21.746094 -19.656250
vt 21.750000 -19.625000
vt 21.718750 -19.718750
vt 21.738281 -19.687500
vt 21.746094 -19.656250
vt -21.562500 19.562500
vt -21.531250 19.281250
vt -21.531250 19.562500
vt -21.562500 19.562500
vt -21.562500 19.281250
vt -21.531250 19.281250
vt -21.593750 19.562500
vt -21.562500 19.281250
vt -21.562500 19.562500
vt -21.593750 19.562500
vt -21.593750 19.281250
vt -21.562500 19.281250
vt -21.625000 19.562500
vt -21.593750 19.281250
vt -21.593750 19.562500
vt -21.625000 19.562500
vt -21.625000 19.281250
vt -21.593750 19.281250
vt -21.656250 19.562500
vt -21.625000 19.281250
vt -21.625000 19.562500
vt -21.656250 19.562500
vt -21.656250 19.281250
vt -21.625000 19.281250
vt -21.687500 19.562500
vt -21.656250 19.281250
vt -21.656250 19.562500
vt -21.687500 19.562500
vt -21.687500 19.281250
vt -21.656250 19.281250
vt -21.718750 19.562500
vt -21.687500 19.281250
vt -21.687500 19.562500
vt -21.718750 19.562500
vt -21.718750 19.281250
vt -21.687500 19.281250
vt 21.562500 19.281250
vt 21.531250 19.562500
vt 21.531250 19.281250
vt 21.562500 19.281250
vt 21.562500 19.562500
vt 21.531250 19.562500
vt 21.593750 19.281250
vt 21.562500 19.562500
vt 21.562500 19.281250
vt 21.593750 19.281250
vt 21.593750 19.562500
vt 21.562500 19.562500
vt 21.625000 19.281250
vt 21.593750 19.562500
vt 21.593750 19.281250
vt 21.625000 19.281250
vt 21.625000 19.562500
vt 21.593750 19.562500
vt 21.656250 19.281250
vt 21.625000 19.562500
vt 21.625000 19.281250
vt 21.656250 19.281250
vt 21.656250 19.562500
vt 21.625000 19.562500
vt 21.687500 19.281250
vt 21.656250 19.562500
vt 21.656250 19.281250
vt 21.687500 19.281250
vt 21.687500 19.562500
vt 21.656250 19.562500
vt 21.718750 19.281250
vt 21.687500 19.562500
vt 21.687500 19.281250
vt 21.718750 19.281250
vt 21.718750 19.562500
vt 21.687500 19.562500
vt 20.562500 19.281250
vt 20.531250 19.562500
vt 20.531250 19.281250
vt 20.562500 19.281250
vt 20.562500 19.562500
vt 20.531250 19.562500
vt 20.593750 19.281250
vt 20.562500 19.562500
vt 20.562500 19.281250
vt 20.593750 19.281250
vt 20.593750 19.562500
vt 20.562500 19.562500
vt 20.625000 19.281250
vt 20.593750 19.562500
vt 20.593750 19.281250
vt 20.625000 19.281250
vt 20.625000 19.562500
vt 20.593750 19.562500
vt -20.562500 19.562500
vt -20.531250 19.281250
vt -20.531250 19.562500
vt -20.562500 19.562500
vt -20.562500 19.281250
vt -20.531250 19.281250
vt -20.593750 19.562500
vt -20.562500 19.281250
vt -20.562500 19.562500
vt -20.593750 19.562500
vt -20.593750 19.281250
vt -20.562500 19.281250
vt -20.625000 19.562500
vt -20.593750 19.281250
vt -20.593750 19.562500
vt -20.625000 19.562500
vt -20.625000 19.281250
vt -20.593750 19.281250
vt 20.656250 19.281250
vt 20.625000 19.562500
vt 20.625000 19.281250
vt 20.656250 19.281250
vt 20.656250 19.562500
vt 20.625000 19.562500
vt 20.687500 19.281250
vt 20.656250 19.562500
vt 20.656250 19.281250
vt 20.687500 19.281250
vt 20.687500 19.562500
vt 20.656250 19.562500
vt 20.718750 19.281250
vt 20.687500 19.562500
vt 20.687500 19.281250
vt 20.718750 19.281250
vt 20.718750 19.562500
vt 20.687500 19.562500
vt -20.656250 19.562500
vt -20.625000 19.281250
vt -20.625000 19.562500
vt -20.656250 19.562500
vt -20.656250 19.281250
vt -20.625000 19.281250
vt -20.687500 19.562500
vt -20.656250 19.281250
vt -20.656250 19.562500
vt -20.687500 19.562500
vt -20.687500 19.281250
vt -20.656250 19.281250
vt -20.718750 19.562500
vt -20.687500 19.281250
vt -20.687500 19.562500
vt -20.718750 19.562500
vt -20.718750 19.281250
vt -20.687500 19.281250
# num_uvs: 288

g Generic

f 3/1/3 1/2/1 5/3/5 
f 7/4/7 9/5/9 11/6/11 
f 7/7/7 13/8/13 9/9/9 
f 7/10/7 15/11/15 13/12/13 
f 7/13/7 17/14/17 15/15/15 
f 7/16/7 2/17/2 17/18/17 
f 7/19/7 19/20/19 2/21/2 
f 17/22/17 21/23/21 23/24/23 
f 17/25/17 25/26/25 21/27/21 
f 17/28/17 27/29/27 25/30/25 
f 17/31/17 29/32/29 27/33/27 
f 17/34/17 31/35/31 29/36/29 
f 17/37/17 33/38/33 31/39/31 
f 2/40/2 35/41/35 33/42/33 
f 17/43/17 2/44/2 33/45/33 
f 37/46/37 39/47/39 41/48/41 
f 37/49/37 43/50/43 39/51/39 
f 37/52/37 19/53/19 43/54/43 
f 37/55/37 2/56/2 19/57/19 
f 37/58/37 35/59/35 2/60/2 
f 37/61/37 45/62/45 35/63/35 
f 37/64/37 47/65/47 45/66/45 
f 37/67/37 49/68/49 47/69/47 
f 37/70/37 51/71/51 49/72/49 
f 37/73/37 53/74/53 51/75/51 
f 55/76/55 57/77/57 1/78/1 
f 55/79/55 59/80/59 57/81/57 
f 55/82/55 61/83/61 59/84/59 
f 55/85/55 63/86/63 61/87/61 
f 55/88/55 65/89/65 63/90/63 
f 55/91/55 67/92/67 65/93/65 
f 5/94/5 69/95/69 71/96/71 
f 5/97/5 73/98/73 69/99/69 
f 5/100/5 75/101/75 73/102/73 
f 5/103/5 77/104/77 75/105/75 
f 5/106/5 79/107/79 77/108/77 
f 5/109/5 81/110/81 79/111/79 
f 1/112/1 57/113/57 81/114/81 
f 5/115/5 1/116/1 81/117/81 
f 3/118/3 83/119/83 85/120/85 
f 3/121/3 87/122/87 83/123/83 
f 3/124/3 89/125/89 87/126/87 
f 3/127/3 5/128/5 89/129/89 
f 3/130/3 55/131/55 1/132/1 
f 3/133/3 91/134/91 55/135/55 
f 3/136/3 93/137/93 91/138/91 
f 3/139/3 95/140/95 93/141/93 
f 3/142/3 97/143/97 95/144/95 
f 58/145/58 24/146/24 82/147/82 
f 58/148/58 18/149/18 24/150/24 
f 60/151/60 18/152/18 58/153/58 
f 60/154/60 16/155/16 18/156/18 
f 62/157/62 16/158/16 60/159/60 
f 62/160/62 14/161/14 16/162/16 
f 64/163/64 14/164/14 62/165/62 
f 64/166/64 10/167/10 14/168/14 
f 66/169/66 10/170/10 64/171/64 
f 66/172/66 12/173/12 10/174/10 
f 68/175/68 12/176/12 66/177/66 
f 68/178/68 8/179/8 12/180/12 
f 36/181/36 72/182/72 34/183/34 
f 36/184/36 6/185/6 72/186/72 
f 46/187/46 6/188/6 36/189/36 
f 46/190/46 90/191/90 6/192/6 
f 48/193/48 90/194/90 46/195/46 
f 48/196/48 88/197/88 90/198/90 
f 50/199/50 88/200/88 48/201/48 
f 50/202/50 84/203/84 88/204/88 
f 52/205/52 84/206/84 50/207/50 
f 52/208/52 86/209/86 84/210/84 
f 54/211/54 86/212/86 52/213/52 
f 54/214/54 4/215/4 86/216/86 
f 22/217/22 82/218/82 24/219/24 
f 22/220/22 80/221/80 82/222/82 
f 26/223/26 80/224/80 22/225/22 
f 26/226/26 78/227/78 80/228/80 
f 28/229/28 78/230/78 26/231/26 
f 28/232/28 76/233/76 78/234/78 
f 56/235/56 8/236/8 68/237/68 
f 56/238/56 20/239/20 8/240/8 
f 92/241/92 20/242/20 56/243/56 
f 92/244/92 44/245/44 20/246/20 
f 94/247/94 44/248/44 92/249/92 
f 94/250/94 40/251/40 44/252/44 
f 30/253/30 76/254/76 28/255/28 
f 30/256/30 74/257/74 76/258/76 
f 32/259/32 74/260/74 30/261/30 
f 32/262/32 70/263/70 74/264/74 
f 34/265/34 70/266/70 32/267/32 
f 34/268/34 72/269/72 70/270/70 
f 96/271/96 40/272/40 94/273/94 
f 96/274/96 42/275/42 40/276/40 
f 98/277/98 42/278/42 96/279/96 
f 98/280/98 38/281/38 42/282/42 
f 4/283/4 38/284/38 98/285/98 
f 4/286/4 54/287/54 38/288/38 
# num_faces: 96

