mtllib model.mtl
o model.obj
v 0.250000 0.875000 -3.000000
v 0.250000 0.875000 -3.000000
v 0.250000 0.875000 -3.000000
v 0.250000 -0.875000 3.000000
v 0.250000 -0.875000 3.000000
v 0.250000 -0.875000 3.000000
v 0.250000 -0.875000 -3.000000
v 0.250000 -0.875000 -3.000000
v 0.250000 -0.875000 -3.000000
v 0.250000 0.875000 3.000000
v 0.250000 0.875000 3.000000
v 0.250000 0.875000 3.000000
v 0.000000 0.875000 -3.000000
v 0.000000 0.875000 -3.000000
v 0.000000 -0.875000 3.000000
v 0.000000 -0.875000 3.000000
v 0.000000 -0.875000 -3.000000
v 0.000000 -0.875000 -3.000000
v 0.000000 0.875000 3.000000
v 0.000000 0.875000 3.000000
vn 0.000000 0.000000 -1.000000
vn 0.000000 1.000000 0.000000
vn 1.000000 0.000000 0.000000
vn 0.000000 -1.000000 0.000000
vn 0.000000 0.000000 1.000000
vn 1.000000 0.000000 0.000000
vn 0.000000 -1.000000 0.000000
vn 0.000000 0.000000 -1.000000
vn 1.000000 0.000000 0.000000
vn 0.000000 1.000000 0.000000
vn 0.000000 0.000000 1.000000
vn 1.000000 0.000000 0.000000
vn 0.000000 0.000000 -1.000000
vn 0.000000 1.000000 0.000000
vn 0.000000 -1.000000 0.000000
vn 0.000000 0.000000 1.000000
vn 0.000000 -1.000000 0.000000
vn 0.000000 0.000000 -1.000000
vn 0.000000 1.000000 0.000000
vn 0.000000 0.000000 1.000000
vt 0.548967 0.004950
vt 0.548967 0.995049
vt 0.260188 0.995049
vt 0.260188 0.004950
vt 0.555424 0.995049
vt 0.555424 0.004950
vt 0.596678 0.004950
vt 0.596678 0.995049
vt 0.739812 0.004950
vt 0.739812 0.293729
vt 0.698558 0.293729
vt 0.698558 0.004950
vt 0.603135 0.995049
vt 0.603135 0.004950
vt 0.644389 0.004950
vt 0.644389 0.995049
vt 0.650847 0.293729
vt 0.650847 0.004950
vt 0.692101 0.004950
vt 0.692101 0.293729
g sign_conference_room
usemtl Default
f 6/1/6 9/2/9 3/3/3 12/4/12 
f 15/5/15 17/6/17 7/7/7 4/8/4 
f 18/9/18 13/10/13 1/11/1 8/12/8 
f 14/13/14 19/14/19 10/15/10 2/16/2 
f 20/17/20 16/18/16 5/19/5 11/20/11 
