# Wavefront OBJ file
# Creator: Ultimate Unwrap3D Pro v3.35
# Website: http://www.unwrap3d.com
# Time: Sat Jun 15 10:37:11 2013
# num_vertices: 174
# num_vertex_normals: 174
# num_uvs: 384
# num_faces: 128
# num_groups: 1

v 0.000000 9.000000 0.000000
v 0.000000 8.000000 0.000000
v 0.000000 8.000000 29.000000
v 0.000000 0.000000 29.000000
v 0.000000 0.000000 28.000000
v 0.000000 8.000000 28.000000
v 1.000000 0.000000 28.000000
v 1.000000 8.000000 -28.000000
v 1.000000 0.000000 -28.000000
v 12.000000 0.000000 -0.000000
v 1.000000 8.000000 28.000000
v 12.000000 8.000000 -0.000000
v -0.000000 8.000000 -28.000000
v -0.000000 0.000000 -28.000000
v -0.000000 0.000000 -29.000000
v -0.000000 8.000000 -29.000000
v -1.000000 0.000000 -28.000000
v -12.000000 0.000000 0.000000
v -12.000000 8.000000 0.000000
v -1.000000 8.000000 28.000000
v -1.000000 0.000000 28.000000
v -1.000000 8.000000 -28.000000
v 17.500000 9.000000 -4.000000
v 17.500000 9.000000 -4.000000
v -0.000000 9.000000 -36.000000
v -0.000000 9.000000 -36.000000
v 17.500000 8.000000 -0.000000
v 17.500000 8.000000 -0.000000
v 17.500000 8.000000 -4.000000
v 17.500000 8.000000 -4.000000
v 17.500000 9.000000 -0.000000
v 17.500000 9.000000 -0.000000
v 16.000000 9.000000 -16.000000
v 16.000000 9.000000 -16.000000
v 16.000000 8.000000 -16.000000
v 16.000000 8.000000 -16.000000
v 12.000000 9.000000 -32.000000
v 12.000000 9.000000 -32.000000
v 12.000000 8.000000 -32.000000
v 12.000000 8.000000 -32.000000
v 10.500000 9.000000 -36.000000
v 10.500000 9.000000 -36.000000
v 10.500000 9.000000 -36.000000
v 10.500000 8.000000 -36.000000
v 10.500000 8.000000 -36.000000
v 10.500000 8.000000 -36.000000
v -0.000000 8.000000 -36.000000
v -0.000000 8.000000 -36.000000
v 12.000000 9.000000 32.000000
v 12.000000 9.000000 32.000000
v 10.500000 8.000000 36.000000
v 10.500000 8.000000 36.000000
v 10.500000 8.000000 36.000000
v 12.000000 8.000000 32.000000
v 12.000000 8.000000 32.000000
v 10.500000 9.000000 36.000000
v 10.500000 9.000000 36.000000
v 10.500000 9.000000 36.000000
v 0.000000 8.000000 36.000000
v 0.000000 8.000000 36.000000
v 0.000000 9.000000 36.000000
v 0.000000 9.000000 36.000000
v 16.000000 9.000000 16.000000
v 16.000000 9.000000 16.000000
v 16.000000 8.000000 16.000000
v 16.000000 8.000000 16.000000
v 17.500000 8.000000 4.000000
v 17.500000 8.000000 4.000000
v 17.500000 9.000000 4.000000
v 17.500000 9.000000 4.000000
v -12.000000 9.000000 32.000000
v -12.000000 9.000000 32.000000
v -10.500000 8.000000 36.000000
v -10.500000 8.000000 36.000000
v -10.500000 8.000000 36.000000
v -10.500000 9.000000 36.000000
v -10.500000 9.000000 36.000000
v -10.500000 9.000000 36.000000
v -12.000000 8.000000 32.000000
v -12.000000 8.000000 32.000000
v -16.000000 8.000000 16.000000
v -16.000000 8.000000 16.000000
v -16.000000 9.000000 16.000000
v -16.000000 9.000000 16.000000
v -17.500000 9.000000 0.000000
v -17.500000 9.000000 0.000000
v -17.500000 8.000000 4.000000
v -17.500000 8.000000 4.000000
v -17.500000 9.000000 4.000000
v -17.500000 9.000000 4.000000
v -17.500000 8.000000 0.000000
v -17.500000 8.000000 0.000000
v -17.500000 9.000000 -4.000000
v -17.500000 9.000000 -4.000000
v -17.500000 8.000000 -4.000000
v -17.500000 8.000000 -4.000000
v -16.000000 8.000000 -16.000000
v -16.000000 8.000000 -16.000000
v -16.000000 9.000000 -16.000000
v -16.000000 9.000000 -16.000000
v -12.000000 8.000000 -32.000000
v -12.000000 8.000000 -32.000000
v -12.000000 9.000000 -32.000000
v -12.000000 9.000000 -32.000000
v -10.500000 9.000000 -36.000000
v -10.500000 9.000000 -36.000000
v -10.500000 9.000000 -36.000000
v -10.500000 8.000000 -36.000000
v -10.500000 8.000000 -36.000000
v -10.500000 8.000000 -36.000000
v 8.000000 0.000000 29.000000
v 8.000000 0.000000 29.000000
v 8.000000 8.000000 29.000000
v 8.000000 8.000000 29.000000
v 8.000000 0.000000 28.000000
v 8.000000 0.000000 28.000000
v 8.000000 8.000000 28.000000
v 8.000000 8.000000 28.000000
v -8.000000 8.000000 29.000000
v -8.000000 8.000000 29.000000
v -8.000000 0.000000 29.000000
v -8.000000 0.000000 29.000000
v -8.000000 8.000000 28.000000
v -8.000000 8.000000 28.000000
v -8.000000 0.000000 28.000000
v -8.000000 0.000000 28.000000
v 1.000000 8.000000 1.000000
v 1.000000 8.000000 1.000000
v 1.000000 0.000000 1.000000
v 1.000000 0.000000 1.000000
v 1.000000 8.000000 -1.000000
v 1.000000 8.000000 -1.000000
v 12.000000 8.000000 -1.000000
v 12.000000 8.000000 -1.000000
v 12.000000 0.000000 -1.000000
v 12.000000 0.000000 -1.000000
v 1.000000 0.000000 -1.000000
v 1.000000 0.000000 -1.000000
v 12.000000 8.000000 1.000000
v 12.000000 8.000000 1.000000
v 12.000000 0.000000 1.000000
v 12.000000 0.000000 1.000000
v 8.000000 0.000000 -28.000000
v 8.000000 0.000000 -28.000000
v 8.000000 8.000000 -28.000000
v 8.000000 8.000000 -28.000000
v -8.000000 8.000000 -28.000000
v -8.000000 8.000000 -28.000000
v 8.000000 0.000000 -29.000000
v 8.000000 0.000000 -29.000000
v -8.000000 0.000000 -28.000000
v -8.000000 0.000000 -28.000000
v 8.000000 8.000000 -29.000000
v 8.000000 8.000000 -29.000000
v -8.000000 8.000000 -29.000000
v -8.000000 8.000000 -29.000000
v -8.000000 0.000000 -29.000000
v -8.000000 0.000000 -29.000000
v -1.000000 8.000000 -1.000000
v -1.000000 8.000000 -1.000000
v -1.000000 0.000000 -1.000000
v -1.000000 0.000000 -1.000000
v -12.000000 8.000000 -1.000000
v -12.000000 8.000000 -1.000000
v -12.000000 0.000000 -1.000000
v -12.000000 0.000000 -1.000000
v -12.000000 0.000000 1.000000
v -12.000000 0.000000 1.000000
v -12.000000 8.000000 1.000000
v -12.000000 8.000000 1.000000
v -1.000000 8.000000 1.000000
v -1.000000 8.000000 1.000000
v -1.000000 0.000000 1.000000
v -1.000000 0.000000 1.000000
# num_vertices: 174

vn 0.000000 1.000000 0.000000
vn 0.000000 -1.000000 0.000000
vn 0.000000 0.000000 1.000000
vn 0.000000 0.000000 1.000000
vn 0.000000 0.000000 -1.000000
vn 0.000000 0.000000 -1.000000
vn 1.000000 0.000000 0.000000
vn 1.000000 0.000000 0.000000
vn 1.000000 0.000000 0.000000
vn 1.000000 0.000000 0.000000
vn 1.000000 0.000000 0.000000
vn 1.000000 0.000000 0.000000
vn 0.000000 0.000000 1.000000
vn 0.000000 0.000000 1.000000
vn 0.000000 0.000000 -1.000000
vn 0.000000 0.000000 -1.000000
vn -1.000000 0.000000 0.000000
vn -1.000000 0.000000 0.000000
vn -1.000000 0.000000 0.000000
vn -1.000000 0.000000 0.000000
vn -1.000000 0.000000 0.000000
vn -1.000000 0.000000 0.000000
vn 0.999142 0.000000 -0.041416
vn 0.000000 1.000000 0.000000
vn 0.000000 0.000000 -1.000000
vn 0.000000 1.000000 0.000000
vn 1.000000 0.000000 0.000000
vn 0.000000 -1.000000 0.000000
vn 0.996563 0.000000 -0.082832
vn 0.000000 -1.000000 0.000000
vn 1.000000 0.000000 0.000000
vn 0.000000 1.000000 0.000000
vn 0.986494 0.000000 -0.163800
vn 0.000000 1.000000 0.000000
vn 0.979103 0.000000 -0.203364
vn 0.000000 -1.000000 0.000000
vn 0.960252 0.000000 -0.279133
vn 0.000000 1.000000 0.000000
vn 0.948965 0.000000 -0.315381
vn 0.000000 -1.000000 0.000000
vn 0.936329 0.000000 -0.351123
vn 0.000000 0.000000 -1.000000
vn 0.000000 1.000000 0.000000
vn 0.936329 0.000000 -0.351123
vn 0.000000 0.000000 -1.000000
vn 0.000000 -1.000000 0.000000
vn 0.000000 0.000000 -1.000000
vn 0.000000 -1.000000 0.000000
vn 0.948965 0.000000 0.315381
vn 0.000000 1.000000 0.000000
vn 0.936329 0.000000 0.351123
vn 0.000000 0.000000 1.000000
vn 0.000000 -1.000000 0.000000
vn 0.960252 0.000000 0.279133
vn 0.000000 -1.000000 0.000000
vn 0.936329 0.000000 0.351123
vn 0.000000 0.000000 1.000000
vn 0.000000 1.000000 0.000000
vn 0.000000 0.000000 1.000000
vn 0.000000 -1.000000 0.000000
vn 0.000000 0.000000 1.000000
vn 0.000000 1.000000 0.000000
vn 0.979103 0.000000 0.203364
vn 0.000000 1.000000 0.000000
vn 0.986494 0.000000 0.163800
vn 0.000000 -1.000000 0.000000
vn 0.999142 0.000000 0.041416
vn 0.000000 -1.000000 0.000000
vn 0.996563 0.000000 0.082832
vn 0.000000 1.000000 0.000000
vn -0.954781 0.000000 0.297311
vn 0.000000 1.000000 0.000000
vn -0.936329 0.000000 0.351123
vn 0.000000 0.000000 1.000000
vn 0.000000 -1.000000 0.000000
vn -0.936329 0.000000 0.351123
vn 0.000000 0.000000 1.000000
vn 0.000000 1.000000 0.000000
vn -0.954781 0.000000 0.297311
vn 0.000000 -1.000000 0.000000
vn -0.979103 0.000000 0.203364
vn 0.000000 -1.000000 0.000000
vn -0.986494 0.000000 0.163800
vn 0.000000 1.000000 0.000000
vn -1.000000 0.000000 0.000000
vn 0.000000 1.000000 0.000000
vn -0.998068 0.000000 0.062137
vn 0.000000 -1.000000 0.000000
vn -0.998068 0.000000 0.062137
vn 0.000000 1.000000 0.000000
vn -1.000000 0.000000 0.000000
vn 0.000000 -1.000000 0.000000
vn -0.998068 0.000000 -0.062137
vn 0.000000 1.000000 0.000000
vn -0.998068 0.000000 -0.062137
vn 0.000000 -1.000000 0.000000
vn -0.986494 0.000000 -0.163800
vn 0.000000 -1.000000 0.000000
vn -0.979103 0.000000 -0.203364
vn 0.000000 1.000000 0.000000
vn -0.954781 0.000000 -0.297311
vn 0.000000 -1.000000 0.000000
vn -0.954781 0.000000 -0.297311
vn 0.000000 1.000000 0.000000
vn -0.936329 0.000000 -0.351123
vn 0.000000 0.000000 -1.000000
vn 0.000000 1.000000 0.000000
vn -0.936329 0.000000 -0.351123
vn 0.000000 0.000000 -1.000000
vn 0.000000 -1.000000 0.000000
vn 1.000000 0.000000 0.000000
vn 0.000000 0.000000 1.000000
vn 1.000000 0.000000 0.000000
vn 0.000000 0.000000 1.000000
vn 1.000000 0.000000 0.000000
vn 0.000000 0.000000 -1.000000
vn 1.000000 0.000000 0.000000
vn 0.000000 0.000000 -1.000000
vn -1.000000 0.000000 0.000000
vn 0.000000 0.000000 1.000000
vn -1.000000 0.000000 0.000000
vn 0.000000 0.000000 1.000000
vn -1.000000 0.000000 0.000000
vn 0.000000 0.000000 -1.000000
vn -1.000000 0.000000 0.000000
vn 0.000000 0.000000 -1.000000
vn 1.000000 0.000000 0.000000
vn 0.000000 0.000000 1.000000
vn 1.000000 0.000000 0.000000
vn 0.000000 0.000000 1.000000
vn 0.000000 0.000000 -1.000000
vn 1.000000 0.000000 0.000000
vn 1.000000 0.000000 0.000000
vn 0.000000 0.000000 -1.000000
vn 1.000000 0.000000 0.000000
vn 0.000000 0.000000 -1.000000
vn 0.000000 0.000000 -1.000000
vn 1.000000 0.000000 0.000000
vn 1.000000 0.000000 0.000000
vn 0.000000 0.000000 1.000000
vn 1.000000 0.000000 0.000000
vn 0.000000 0.000000 1.000000
vn 1.000000 0.000000 0.000000
vn 0.000000 0.000000 1.000000
vn 1.000000 0.000000 0.000000
vn 0.000000 0.000000 1.000000
vn -1.000000 0.000000 0.000000
vn 0.000000 0.000000 1.000000
vn 1.000000 0.000000 0.000000
vn 0.000000 0.000000 -1.000000
vn -1.000000 0.000000 0.000000
vn 0.000000 0.000000 1.000000
vn 1.000000 0.000000 0.000000
vn 0.000000 0.000000 -1.000000
vn -1.000000 0.000000 0.000000
vn 0.000000 0.000000 -1.000000
vn -1.000000 0.000000 0.000000
vn 0.000000 0.000000 -1.000000
vn -1.000000 0.000000 0.000000
vn 0.000000 0.000000 -1.000000
vn -1.000000 0.000000 0.000000
vn 0.000000 0.000000 -1.000000
vn -1.000000 0.000000 0.000000
vn 0.000000 0.000000 -1.000000
vn -1.000000 0.000000 0.000000
vn 0.000000 0.000000 -1.000000
vn -1.000000 0.000000 0.000000
vn 0.000000 0.000000 1.000000
vn -1.000000 0.000000 0.000000
vn 0.000000 0.000000 1.000000
vn 0.000000 0.000000 1.000000
vn -1.000000 0.000000 0.000000
vn 0.000000 0.000000 1.000000
vn -1.000000 0.000000 0.000000
# num_vertex_normals: 174

vt 15.453125 -11.125000
vt 16.000000 -12.125000
vt 16.000000 -11.000000
vt 12.125000 19.531250
vt 12.000000 19.500000
vt 12.125000 19.500000
vt 12.125000 19.531250
vt 12.000000 19.531250
vt 12.000000 19.500000
vt 12.500000 19.531250
vt 12.125000 19.500000
vt 12.500000 19.500000
vt 12.500000 19.531250
vt 12.125000 19.531250
vt 12.125000 19.500000
vt 13.000000 19.531250
vt 12.500000 19.500000
vt 13.000000 19.500000
vt 13.000000 19.531250
vt 12.500000 19.531250
vt 12.500000 19.500000
vt 13.125000 19.531250
vt 13.000000 19.500000
vt 13.125000 19.500000
vt 13.125000 19.531250
vt 13.000000 19.531250
vt 13.000000 19.500000
vt 16.000000 19.531250
vt 15.671875 19.500000
vt 16.000000 19.500000
vt 16.000000 19.531250
vt 15.671875 19.531250
vt 15.671875 19.500000
vt 15.500000 13.500000
vt 15.671875 14.125000
vt 15.625000 14.000000
vt 15.500000 13.500000
vt 16.000000 14.125000
vt 15.671875 14.125000
vt 15.500000 13.500000
vt 16.000000 13.000000
vt 16.000000 14.125000
vt 15.500000 13.500000
vt 15.453125 13.000000
vt 16.000000 13.000000
vt 15.500000 13.500000
vt 15.453125 13.125000
vt 15.453125 13.000000
vt 15.453125 -11.125000
vt 16.000000 -11.000000
vt 15.453125 -11.000000
vt 15.453125 -11.125000
vt 15.671875 -12.125000
vt 16.000000 -12.125000
vt 15.453125 -11.125000
vt 15.625000 -12.000000
vt 15.671875 -12.125000
vt 15.453125 -11.125000
vt 15.500000 -11.500000
vt 15.625000 -12.000000
vt 11.000000 19.531250
vt 10.875000 19.500000
vt 11.000000 19.500000
vt 11.000000 19.531250
vt 10.875000 19.531250
vt 10.875000 19.500000
vt -15.671875 19.531250
vt -16.000000 19.500000
vt -15.671875 19.500000
vt -15.671875 19.531250
vt -16.000000 19.531250
vt -16.000000 19.500000
vt 11.500000 19.531250
vt 11.000000 19.500000
vt 11.500000 19.500000
vt 11.500000 19.531250
vt 11.000000 19.531250
vt 11.000000 19.500000
vt 12.000000 19.531250
vt 11.875000 19.500000
vt 12.000000 19.500000
vt 12.000000 19.531250
vt 11.875000 19.531250
vt 11.875000 19.500000
vt 11.875000 19.531250
vt 11.500000 19.500000
vt 11.875000 19.500000
vt 11.875000 19.531250
vt 11.500000 19.531250
vt 11.500000 19.500000
vt 16.000000 13.000000
vt 15.671875 11.875000
vt 16.000000 11.875000
vt 16.000000 13.000000
vt 15.625000 12.000000
vt 15.671875 11.875000
vt 16.000000 13.000000
vt 15.500000 12.500000
vt 15.625000 12.000000
vt 16.000000 13.000000
vt 15.453125 12.875000
vt 15.500000 12.500000
vt 16.000000 13.000000
vt 15.453125 13.000000
vt 15.453125 12.875000
vt 15.453125 -11.000000
vt 15.500000 -10.500000
vt 15.453125 -10.875000
vt 15.453125 -11.000000
vt 15.625000 -10.000000
vt 15.500000 -10.500000
vt 15.453125 -11.000000
vt 15.671875 -9.875000
vt 15.625000 -10.000000
vt 15.453125 -11.000000
vt 16.000000 -9.875000
vt 15.671875 -9.875000
vt 15.453125 -11.000000
vt 16.000000 -11.000000
vt 16.000000 -9.875000
vt -11.000000 19.531250
vt -10.875000 19.500000
vt -10.875000 19.531250
vt -11.000000 19.531250
vt -11.000000 19.500000
vt -10.875000 19.500000
vt -16.000000 19.531250
vt -16.328125 19.500000
vt -16.000000 19.500000
vt -16.000000 19.531250
vt -16.328125 19.531250
vt -16.328125 19.500000
vt -11.000000 19.531250
vt -11.500000 19.500000
vt -11.000000 19.500000
vt -11.000000 19.531250
vt -11.500000 19.531250
vt -11.500000 19.500000
vt -12.000000 19.531250
vt -11.875000 19.500000
vt -11.875000 19.531250
vt -12.000000 19.531250
vt -12.000000 19.500000
vt -11.875000 19.500000
vt -11.500000 19.531250
vt -11.875000 19.500000
vt -11.500000 19.500000
vt -11.500000 19.531250
vt -11.875000 19.531250
vt -11.875000 19.500000
vt 16.500000 12.500000
vt 16.328125 11.875000
vt 16.375000 12.000000
vt 16.500000 12.500000
vt 16.000000 11.875000
vt 16.328125 11.875000
vt 16.500000 12.500000
vt 16.000000 13.000000
vt 16.000000 11.875000
vt 16.500000 12.500000
vt 16.546875 13.000000
vt 16.000000 13.000000
vt 16.500000 12.500000
vt 16.546875 12.875000
vt 16.546875 13.000000
vt 16.546875 -10.875000
vt 16.000000 -11.000000
vt 16.546875 -11.000000
vt 16.546875 -10.875000
vt 16.000000 -9.875000
vt 16.000000 -11.000000
vt 16.546875 -10.875000
vt 16.328125 -9.875000
vt 16.000000 -9.875000
vt 16.546875 -10.875000
vt 16.375000 -10.000000
vt 16.328125 -9.875000
vt 16.546875 -10.875000
vt 16.500000 -10.500000
vt 16.375000 -10.000000
vt -12.125000 19.531250
vt -12.000000 19.500000
vt -12.000000 19.531250
vt -12.125000 19.531250
vt -12.125000 19.500000
vt -12.000000 19.500000
vt -12.125000 19.531250
vt -12.500000 19.500000
vt -12.125000 19.500000
vt -12.125000 19.531250
vt -12.500000 19.531250
vt -12.500000 19.500000
vt -12.500000 19.531250
vt -13.000000 19.500000
vt -12.500000 19.500000
vt -12.500000 19.531250
vt -13.000000 19.531250
vt -13.000000 19.500000
vt -13.125000 19.531250
vt -13.000000 19.500000
vt -13.000000 19.531250
vt -13.125000 19.531250
vt -13.125000 19.500000
vt -13.000000 19.500000
vt 16.328125 19.531250
vt 16.000000 19.500000
vt 16.328125 19.500000
vt 16.328125 19.531250
vt 16.000000 19.531250
vt 16.000000 19.500000
vt 16.500000 13.500000
vt 16.546875 13.000000
vt 16.546875 13.125000
vt 16.500000 13.500000
vt 16.000000 13.000000
vt 16.546875 13.000000
vt 16.500000 13.500000
vt 16.000000 14.125000
vt 16.000000 13.000000
vt 16.500000 13.500000
vt 16.328125 14.125000
vt 16.000000 14.125000
vt 16.500000 13.500000
vt 16.375000 14.000000
vt 16.328125 14.125000
vt 16.500000 -11.500000
vt 16.328125 -12.125000
vt 16.375000 -12.000000
vt 16.500000 -11.500000
vt 16.000000 -12.125000
vt 16.328125 -12.125000
vt 16.500000 -11.500000
vt 16.000000 -11.000000
vt 16.000000 -12.125000
vt 16.500000 -11.500000
vt 16.546875 -11.000000
vt 16.000000 -11.000000
vt 16.500000 -11.500000
vt 16.546875 -11.125000
vt 16.546875 -11.000000
vt -16.000000 19.500000
vt -15.750000 19.250000
vt -15.750000 19.500000
vt -16.000000 19.500000
vt -16.000000 19.250000
vt -15.750000 19.250000
vt 11.125000 19.250000
vt 11.093750 19.500000
vt 11.093750 19.250000
vt 11.125000 19.250000
vt 11.125000 19.500000
vt 11.093750 19.500000
vt -16.250000 19.500000
vt -16.000000 19.250000
vt -16.000000 19.500000
vt 16.000000 19.250000
vt 15.750000 19.500000
vt 15.750000 19.250000
vt -16.250000 19.500000
vt -16.250000 19.250000
vt -16.000000 19.250000
vt 16.000000 19.250000
vt 16.000000 19.500000
vt 15.750000 19.500000
vt -11.125000 19.500000
vt -11.093750 19.250000
vt -11.093750 19.500000
vt 16.250000 19.250000
vt 16.000000 19.500000
vt 16.000000 19.250000
vt -11.125000 19.500000
vt -11.125000 19.250000
vt -11.093750 19.250000
vt 16.250000 19.250000
vt 16.250000 19.500000
vt 16.000000 19.500000
vt 11.968750 19.500000
vt 11.125000 19.250000
vt 11.968750 19.250000
vt 15.968750 19.500000
vt 15.625000 19.500000
vt 15.625000 19.250000
vt 15.968750 19.500000
vt 15.625000 19.250000
vt 15.968750 19.250000
vt 12.875000 19.500000
vt 12.031250 19.500000
vt 12.031250 19.250000
vt 12.875000 19.500000
vt 12.031250 19.250000
vt 12.875000 19.250000
vt 12.031250 19.500000
vt 12.000000 19.250000
vt 12.031250 19.250000
vt -15.625000 19.500000
vt -15.968750 19.500000
vt -15.968750 19.250000
vt 11.968750 19.500000
vt 11.125000 19.500000
vt 11.125000 19.250000
vt 12.031250 19.500000
vt 12.000000 19.500000
vt 12.000000 19.250000
vt -15.625000 19.500000
vt -15.968750 19.250000
vt -15.625000 19.250000
vt 12.000000 19.500000
vt 11.968750 19.250000
vt 12.000000 19.250000
vt 12.000000 19.500000
vt 11.968750 19.500000
vt 11.968750 19.250000
vt -16.000000 19.500000
vt -16.000000 19.250000
vt -15.750000 19.250000
vt -16.000000 19.500000
vt -15.750000 19.250000
vt -15.750000 19.500000
vt -16.250000 19.500000
vt -16.000000 19.250000
vt -16.000000 19.500000
vt 12.906250 19.250000
vt 12.875000 19.500000
vt 12.875000 19.250000
vt -16.250000 19.500000
vt -16.250000 19.250000
vt -16.000000 19.250000
vt 12.906250 19.250000
vt 12.906250 19.500000
vt 12.875000 19.500000
vt -12.906250 19.500000
vt -12.875000 19.250000
vt -12.875000 19.500000
vt 16.000000 19.250000
vt 15.750000 19.500000
vt 15.750000 19.250000
vt -12.906250 19.500000
vt -12.906250 19.250000
vt -12.875000 19.250000
vt 16.000000 19.250000
vt 16.000000 19.500000
vt 15.750000 19.500000
vt 16.250000 19.250000
vt 16.250000 19.500000
vt 16.000000 19.500000
vt 16.250000 19.250000
vt 16.000000 19.500000
vt 16.000000 19.250000
vt -12.031250 19.500000
vt -12.875000 19.250000
vt -12.031250 19.250000
vt -12.031250 19.500000
vt -12.031250 19.250000
vt -12.000000 19.250000
vt -12.000000 19.500000
vt -12.000000 19.250000
vt -11.968750 19.250000
vt -12.031250 19.500000
vt -12.000000 19.250000
vt -12.000000 19.500000
vt -12.000000 19.500000
vt -11.968750 19.250000
vt -11.968750 19.500000
vt -16.031250 19.500000
vt -16.375000 19.500000
vt -16.375000 19.250000
vt -16.031250 19.500000
vt -16.375000 19.250000
vt -16.031250 19.250000
vt -11.125000 19.500000
vt -11.968750 19.500000
vt -11.968750 19.250000
vt -11.125000 19.500000
vt -11.968750 19.250000
vt -11.125000 19.250000
vt 16.375000 19.500000
vt 16.031250 19.250000
vt 16.375000 19.250000
vt 16.375000 19.500000
vt 16.031250 19.500000
vt 16.031250 19.250000
vt -12.031250 19.500000
vt -12.875000 19.500000
vt -12.875000 19.250000
# num_uvs: 384

g Generic

f 24/1/24 26/2/26 1/3/1 
f 23/4/23 27/5/27 29/6/29 
f 23/7/23 31/8/31 27/9/27 
f 33/10/33 29/11/29 35/12/35 
f 33/13/33 23/14/23 29/15/29 
f 37/16/37 35/17/35 39/18/39 
f 37/19/37 33/20/33 35/21/35 
f 41/22/41 39/23/39 44/24/44 
f 41/25/41 37/26/37 39/27/39 
f 25/28/25 45/29/45 47/30/47 
f 25/31/25 42/32/42 45/33/45 
f 36/34/36 46/35/46 40/36/40 
f 36/37/36 48/38/48 46/39/46 
f 36/40/36 2/41/2 48/42/48 
f 36/43/36 28/44/28 2/45/2 
f 36/46/36 30/47/30 28/48/28 
f 24/49/24 1/50/1 32/51/32 
f 24/52/24 43/53/43 26/54/26 
f 24/55/24 38/56/38 43/57/43 
f 24/58/24 34/59/34 38/60/38 
f 49/61/49 51/62/51 54/63/54 
f 49/64/49 56/65/56 51/66/51 
f 57/67/57 59/68/59 52/69/52 
f 57/70/57 61/71/61 59/72/59 
f 63/73/63 54/74/54 65/75/65 
f 63/76/63 49/77/49 54/78/54 
f 31/79/31 67/80/67 27/81/27 
f 31/82/31 69/83/69 67/84/67 
f 69/85/69 65/86/65 67/87/67 
f 69/88/69 63/89/63 65/90/65 
f 2/91/2 53/92/53 60/93/60 
f 2/94/2 55/95/55 53/96/53 
f 2/97/2 66/98/66 55/99/55 
f 2/100/2 68/101/68 66/102/66 
f 2/103/2 28/104/28 68/105/68 
f 32/106/32 64/107/64 70/108/70 
f 32/109/32 50/110/50 64/111/64 
f 32/112/32 58/113/58 50/114/50 
f 32/115/32 62/116/62 58/117/58 
f 32/118/32 1/119/1 62/120/62 
f 71/121/71 73/122/73 76/123/76 
f 71/124/71 79/125/79 73/126/73 
f 61/127/61 74/128/74 59/129/59 
f 61/130/61 77/131/77 74/132/74 
f 71/133/71 81/134/81 79/135/79 
f 71/136/71 83/137/83 81/138/81 
f 85/139/85 87/140/87 89/141/89 
f 85/142/85 91/143/91 87/144/87 
f 83/145/83 87/146/87 81/147/81 
f 83/148/83 89/149/89 87/150/87 
f 82/151/82 75/152/75 80/153/80 
f 82/154/82 60/155/60 75/156/75 
f 82/157/82 2/158/2 60/159/60 
f 82/160/82 92/161/92 2/162/2 
f 82/163/82 88/164/88 92/165/92 
f 90/166/90 1/167/1 86/168/86 
f 90/169/90 62/170/62 1/171/1 
f 90/172/90 78/173/78 62/174/62 
f 90/175/90 72/176/72 78/177/78 
f 90/178/90 84/179/84 72/180/72 
f 93/181/93 91/182/91 85/183/85 
f 93/184/93 95/185/95 91/186/91 
f 93/187/93 97/188/97 95/189/95 
f 93/190/93 99/191/99 97/192/97 
f 99/193/99 101/194/101 97/195/97 
f 99/196/99 103/197/103 101/198/101 
f 105/199/105 101/200/101 103/201/103 
f 105/202/105 108/203/108 101/204/101 
f 106/205/106 47/206/47 109/207/109 
f 106/208/106 25/209/25 47/210/47 
f 98/211/98 92/212/92 96/213/96 
f 98/214/98 2/215/2 92/216/92 
f 98/217/98 48/218/48 2/219/2 
f 98/220/98 110/221/110 48/222/48 
f 98/223/98 102/224/102 110/225/110 
f 100/226/100 107/227/107 104/228/104 
f 100/229/100 26/230/26 107/231/107 
f 100/232/100 1/233/1 26/234/26 
f 100/235/100 86/236/86 1/237/1 
f 100/238/100 94/239/94 86/240/86 
f 3/241/3 112/242/112 114/243/114 
f 3/244/3 4/245/4 112/246/112 
f 115/247/115 113/248/113 111/249/111 
f 115/250/115 117/251/117 113/252/113 
f 120/253/120 4/254/4 3/255/3 
f 5/256/5 118/257/118 116/258/116 
f 120/259/120 122/260/122 4/261/4 
f 5/262/5 6/263/6 118/264/118 
f 123/265/123 121/266/121 119/267/119 
f 126/268/126 6/269/6 5/270/5 
f 123/271/123 125/272/125 121/273/121 
f 126/274/126 124/275/124 6/276/6 
f 127/277/127 7/278/7 129/279/129 
f 131/280/131 134/281/134 136/282/136 
f 131/283/131 136/284/136 137/285/137 
f 8/286/8 132/287/132 138/288/138 
f 8/289/8 138/290/138 9/291/9 
f 133/292/133 10/293/10 135/294/135 
f 140/295/140 128/296/128 130/297/130 
f 127/298/127 11/299/11 7/300/7 
f 133/301/133 12/302/12 10/303/10 
f 140/304/140 130/305/130 142/306/142 
f 12/307/12 141/308/141 10/309/10 
f 12/310/12 139/311/139 141/312/141 
f 13/313/13 14/314/14 144/315/144 
f 13/316/13 144/317/144 146/318/146 
f 148/319/148 14/320/14 13/321/13 
f 149/322/149 145/323/145 143/324/143 
f 148/325/148 152/326/152 14/327/14 
f 149/328/149 153/329/153 145/330/145 
f 155/331/155 151/332/151 147/333/147 
f 15/334/15 154/335/154 150/336/150 
f 155/337/155 157/338/157 151/339/151 
f 15/340/15 16/341/16 154/342/154 
f 158/343/158 156/344/156 16/345/16 
f 158/346/158 16/347/16 15/348/15 
f 159/349/159 17/350/17 161/351/161 
f 163/352/163 165/353/165 18/354/18 
f 19/355/19 18/356/18 167/357/167 
f 163/358/163 18/359/18 19/360/19 
f 19/361/19 167/362/167 169/363/169 
f 171/364/171 170/365/170 168/366/168 
f 171/367/171 168/368/168 173/369/173 
f 20/370/20 172/371/172 174/372/174 
f 20/373/20 174/374/174 21/375/21 
f 164/376/164 162/377/162 166/378/166 
f 164/379/164 160/380/160 162/381/162 
f 159/382/159 22/383/22 17/384/17 
# num_faces: 128

