mtllib model.mtl
o model.obj
v 13.000000 9.000000 -15.000000
v -3.000000 9.000000 -15.000000
v 13.000000 9.000000 -5.000000
v -3.000000 9.000000 -5.000000
v 13.000000 0.000000 -15.000000
v -3.000000 0.000000 -15.000000
v 13.000000 0.000000 -5.000000
v -3.000000 0.000000 -5.000000
vn 0.577350 0.577350 -0.577350
vn -0.577350 0.577350 -0.577350
vn 0.577350 0.577350 0.577350
vn -0.577350 0.577350 0.577350
vn 0.577350 -0.577350 -0.577350
vn -0.577350 -0.577350 -0.577350
vn 0.577350 -0.577350 0.577350
vn -0.577350 -0.577350 0.577350
vt 24.937500 -20.500000
vt 24.625000 -20.500000
vt 24.750000 -20.000000
vt 24.937500 -20.000000
vt 0.000000 0.000000
vt 0.000000 0.000000
vt 0.000000 0.000000
vt 0.000000 0.000000
vt 0.000000 0.000000
vt 0.000000 0.000000
vt 0.000000 0.000000
vt 0.000000 0.000000
g collide
usemtl Default
f 3/1/3 1/2/1 2/3/2 4/4/4 
f 5/5/5 6/6/6 2/7/2 1/8/1 
f 7/9/7 5/5/5 1/8/1 3/10/3 
f 6/6/6 8/11/8 4/12/4 2/7/2 
f 8/11/8 7/9/7 3/10/3 4/12/4 
f 7/9/7 8/11/8 6/6/6 5/5/5 
v -3.000000 9.000000 -15.000000
v -13.000000 9.000000 -15.000000
v -3.000000 9.000000 15.000000
v -13.000000 9.000000 15.000000
v -3.000000 0.000000 -15.000000
v -13.000000 0.000000 -15.000000
v -3.000000 0.000000 15.000000
v -13.000000 0.000000 15.000000
vn 0.577350 0.577350 -0.577350
vn -0.577350 0.577350 -0.577350
vn 0.577350 0.577350 0.577350
vn -0.577350 0.577350 0.577350
vn 0.577350 -0.577350 -0.577350
vn -0.577350 -0.577350 -0.577350
vn 0.577350 -0.577350 0.577350
vn -0.577350 -0.577350 0.577350
vt 24.625000 -20.000000
vt 24.000000 -20.000000
vt 24.000000 -19.687500
vt 24.937500 -19.687500
vt 0.000000 0.000000
vt 0.000000 0.000000
vt 0.000000 0.000000
vt 0.000000 0.000000
vt 0.000000 0.000000
vt 0.000000 0.000000
vt 0.000000 0.000000
vt 0.000000 0.000000
g collide
usemtl Default
f 11/13/11 9/14/9 10/15/10 12/16/12 
f 15/17/15 13/18/13 9/19/9 11/20/11 
f 13/18/13 14/21/14 10/22/10 9/19/9 
f 14/21/14 16/23/16 12/24/12 10/22/10 
f 16/23/16 15/17/15 11/20/11 12/24/12 
f 16/23/16 14/21/14 13/18/13 15/17/15 
v -12.250000 9.000000 15.000000
v -12.250000 8.250000 15.000000
v 13.000000 9.000000 -14.250000
v 13.000000 9.000000 -5.750000
v 13.000000 8.250000 -5.750000
v 13.000000 8.250000 -14.250000
v -3.750000 9.000000 15.000000
v -3.750000 8.250000 15.000000
v -13.000000 9.000000 14.250000
v -13.000000 8.250000 14.250000
v -3.000000 9.000000 14.250000
v -3.000000 8.250000 14.250000
v 12.250000 9.000000 -15.000000
v 12.250000 9.000000 -5.000000
v 12.250000 8.250000 -5.000000
v 12.250000 8.250000 -15.000000
v 12.780300 9.000000 -14.780300
v 12.780300 9.000000 -5.219670
v 12.780300 8.250000 -5.219670
v 12.780300 8.250000 -14.780300
v -12.780900 9.000000 14.780300
v -12.780900 8.250000 14.780300
v -3.219670 9.000000 14.780300
v -3.219670 8.250000 14.780300
v 11.500000 8.250000 -12.000000
v -10.000000 8.250000 -12.000000
v -10.000000 5.000000 -12.000000
v 11.500000 5.000000 -12.000000
v -10.000000 5.000000 -12.750000
v 11.500000 5.000000 -12.750000
v -10.000000 8.250000 -12.750000
v 11.500000 8.250000 -12.750000
v -13.000000 9.000000 -14.250000
v -12.780300 9.000000 -14.780300
v -12.780300 8.250000 -14.780300
v -13.000000 8.250000 -14.250000
v -12.250000 9.000000 -15.000000
v -12.250000 8.250000 -15.000000
v -2.780300 9.000000 -4.780300
v -2.250000 9.000000 -5.000000
v -2.250000 8.250000 -5.000000
v -2.780300 8.250000 -4.780300
v -3.000000 9.000000 -4.250000
v -3.000000 8.250000 -4.250000
v -3.833310 0.500000 14.235200
v -3.833310 8.250000 14.235200
v -12.166717 8.250000 14.235200
v -12.166717 0.500000 14.235200
v -12.496379 8.250000 14.047733
v -12.496379 8.250000 13.672667
v -12.166717 0.500000 13.485200
v -12.166717 8.250000 13.485200
v -3.833310 8.250000 13.485200
v -3.833310 0.500000 13.485200
v -3.503648 8.250000 13.672667
v -3.503648 8.250000 14.047733
v -11.837060 0.000000 14.047733
v -11.837060 0.000000 13.672667
v -11.837060 0.500000 13.672667
v -11.837060 0.500000 14.047733
v -12.166720 0.000000 13.485200
v -12.166720 0.000000 14.235200
v -12.496379 0.000000 13.672667
v -12.496379 0.000000 14.047733
v -3.503620 0.000000 14.047733
v -3.503620 0.000000 13.672667
v -3.833282 0.000000 14.235200
v -3.833282 0.000000 13.485200
v -4.162939 0.000000 13.672667
v -4.162939 0.500000 13.672667
v -4.162939 0.000000 14.047733
v -4.162939 0.500000 14.047733
v -10.000000 0.500000 -14.163070
v -10.000000 8.250000 -14.163070
v -10.000000 8.250000 -5.829662
v -10.000000 0.500000 -5.829662
v -10.187467 8.250000 -5.500000
v -10.562533 8.250000 -5.500000
v -10.750000 0.500000 -5.829662
v -10.750000 8.250000 -5.829662
v -10.750000 8.250000 -14.163070
v -10.750000 0.500000 -14.163070
v -10.562533 8.250000 -14.492732
v -10.187467 8.250000 -14.492732
v -10.187467 0.000000 -6.159320
v -10.562533 0.000000 -6.159320
v -10.562533 0.500000 -6.159320
v -10.187467 0.500000 -6.159320
v -10.750000 0.000000 -5.829658
v -10.000000 0.000000 -5.829658
v -10.562533 0.000000 -5.500000
v -10.187467 0.000000 -5.500000
v -10.187467 0.000000 -14.492760
v -10.562533 0.000000 -14.492760
v -10.000000 0.000000 -14.163098
v -10.750000 0.000000 -14.163098
v -10.562533 0.000000 -13.833441
v -10.562533 0.500000 -13.833441
v -10.187467 0.000000 -13.833441
v -10.187467 0.500000 -13.833441
v 11.500000 0.500000 -5.829662
v 11.500000 8.250000 -5.829662
v 11.500000 8.250000 -14.163070
v 11.500000 0.500000 -14.163070
v 12.062533 8.250000 -5.500000
v 11.687467 8.250000 -5.500000
v 12.250000 0.500000 -5.829662
v 12.250000 8.250000 -5.829662
v 12.250000 0.500000 -14.163070
v 12.250000 8.250000 -14.163070
v 11.687467 8.250000 -14.492732
v 12.062533 8.250000 -14.492732
v 12.062533 0.000000 -6.159320
v 11.687467 0.000000 -6.159320
v 11.687467 0.500000 -6.159320
v 12.062533 0.500000 -6.159320
v 11.500000 0.000000 -5.829658
v 12.250000 0.000000 -5.829658
v 11.687467 0.000000 -5.500000
v 12.062533 0.000000 -5.500000
v 12.062533 0.000000 -14.492760
v 11.687467 0.000000 -14.492760
v 12.250000 0.000000 -14.163098
v 11.500000 0.000000 -14.163098
v 11.687467 0.000000 -13.833441
v 11.687467 0.500000 -13.833441
v 12.062533 0.000000 -13.833441
v 12.062533 0.500000 -13.833441
v -10.000000 5.000000 -5.829660
v -10.000000 8.250000 -5.829660
v -10.000000 8.250000 13.500000
v -10.000000 5.000000 13.500000
v -10.750000 8.250000 -5.829660
v -10.750000 5.000000 -5.829660
v -10.750000 5.000000 13.500000
v -10.750000 8.250000 13.500000
vn -0.173664 0.454170 0.873825
vn -0.173664 -0.454170 0.873825
vn 0.873783 0.454184 -0.173837
vn 0.873786 0.454183 0.173829
vn 0.873786 -0.454183 0.173829
vn 0.873783 -0.454184 -0.173837
vn 0.173829 0.454183 0.873785
vn 0.173829 -0.454183 0.873785
vn -0.686853 0.713901 0.136303
vn -0.686853 -0.713901 0.136303
vn 0.686758 0.713933 0.136612
vn 0.686758 -0.713933 0.136612
vn 0.136628 0.713935 -0.686753
vn 0.136612 0.713933 0.686758
vn 0.136612 -0.713933 0.686758
vn 0.136628 -0.713935 -0.686753
vn 0.479849 0.734500 -0.479849
vn 0.479838 0.734505 0.479852
vn 0.479838 -0.734505 0.479852
vn 0.479849 -0.734500 -0.479849
vn -0.479911 0.734596 0.479640
vn -0.479911 -0.734596 0.479640
vn 0.479852 0.734505 0.479838
vn 0.479852 -0.734505 0.479838
vn 0.000000 0.000000 1.000000
vn 0.000000 0.000000 1.000000
vn 0.000000 -0.707107 0.707107
vn 0.000000 -0.707107 0.707107
vn 0.000000 -0.707107 -0.707107
vn 0.000000 -0.707107 -0.707107
vn 0.000000 0.000000 -1.000000
vn 0.000000 0.000000 -1.000000
vn -0.686753 0.713935 -0.136628
vn -0.479849 0.734500 -0.479849
vn -0.479849 -0.734500 -0.479849
vn -0.686753 -0.713935 -0.136628
vn -0.136628 0.713935 -0.686753
vn -0.136628 -0.713935 -0.686753
vn 0.479849 0.734500 0.479849
vn 0.136628 0.713935 0.686753
vn 0.136628 -0.713935 0.686753
vn 0.479849 -0.734500 0.479849
vn 0.686753 0.713935 0.136628
vn 0.686753 -0.713935 0.136628
vn 0.135745 0.000000 0.990744
vn 0.255659 0.000000 0.966767
vn -0.255659 0.000000 0.966767
vn -0.135747 0.000001 0.990744
vn -0.864386 0.000000 0.502829
vn -0.864386 0.000000 -0.502829
vn -0.135747 0.000000 -0.990744
vn -0.255659 0.000000 -0.966767
vn 0.255659 0.000001 -0.966767
vn 0.135745 0.000008 -0.990744
vn 0.864386 0.000003 -0.502829
vn 0.864386 0.000002 0.502829
vn 0.864386 0.000000 0.502828
vn 0.864386 -0.000002 -0.502828
vn 0.864386 -0.000002 -0.502828
vn 0.864386 0.000000 0.502828
vn -0.000001 0.000000 -1.000000
vn -0.000001 0.000002 1.000000
vn -0.752862 0.000001 -0.658178
vn -0.752862 0.000001 0.658178
vn 0.752861 0.000012 0.658179
vn 0.752861 0.000013 -0.658179
vn -0.000002 0.000000 1.000000
vn -0.000002 0.000016 -1.000000
vn -0.864387 0.000000 -0.502827
vn -0.864387 0.000000 -0.502827
vn -0.864387 -0.000016 0.502827
vn -0.864387 -0.000016 0.502827
vn 0.990744 0.000000 -0.135745
vn 0.966767 0.000000 -0.255659
vn 0.966767 0.000000 0.255659
vn 0.990743 0.000001 0.135748
vn 0.502829 0.000000 0.864386
vn -0.502829 0.000000 0.864386
vn -0.990743 0.000000 0.135748
vn -0.966767 0.000000 0.255659
vn -0.966767 0.000001 -0.255659
vn -0.990744 0.000008 -0.135745
vn -0.502829 0.000003 -0.864386
vn 0.502829 0.000002 -0.864386
vn 0.502829 0.000000 -0.864386
vn -0.502829 -0.000002 -0.864386
vn -0.502829 -0.000002 -0.864386
vn 0.502829 0.000000 -0.864386
vn -1.000000 0.000000 0.000002
vn 1.000000 0.000002 0.000002
vn -0.658178 0.000001 0.752862
vn 0.658178 0.000001 0.752862
vn 0.658179 0.000012 -0.752861
vn -0.658179 0.000013 -0.752861
vn 1.000000 0.000000 0.000002
vn -1.000000 0.000016 0.000002
vn -0.502827 0.000000 0.864387
vn -0.502827 0.000000 0.864387
vn 0.502827 -0.000016 0.864387
vn 0.502827 -0.000016 0.864387
vn -0.990743 0.000000 0.135748
vn -0.966767 0.000000 0.255659
vn -0.966767 0.000001 -0.255659
vn -0.990744 0.000008 -0.135745
vn 0.502829 0.000000 0.864386
vn -0.502829 0.000000 0.864386
vn 0.990743 0.000001 0.135748
vn 0.966767 0.000000 0.255659
vn 0.990744 0.000000 -0.135745
vn 0.966767 0.000000 -0.255659
vn -0.502829 0.000003 -0.864386
vn 0.502829 0.000002 -0.864386
vn 0.502829 0.000000 -0.864386
vn -0.502829 -0.000002 -0.864386
vn -0.502829 -0.000002 -0.864386
vn 0.502829 0.000000 -0.864386
vn -1.000000 0.000000 0.000002
vn 1.000000 0.000002 0.000002
vn -0.658178 0.000001 0.752862
vn 0.658178 0.000001 0.752862
vn 0.658179 0.000012 -0.752861
vn -0.658179 0.000013 -0.752861
vn 1.000000 0.000000 0.000002
vn -1.000000 0.000016 0.000002
vn -0.502827 0.000000 0.864387
vn -0.502827 0.000000 0.864387
vn 0.502827 -0.000016 0.864387
vn 0.502827 -0.000016 0.864387
vn 0.707107 -0.707107 0.000000
vn 1.000000 0.000000 0.000000
vn 1.000000 0.000000 0.000000
vn 0.707107 -0.707107 0.000000
vn -1.000000 0.000000 0.000000
vn -0.707107 -0.707107 0.000000
vn -0.707107 -0.707107 0.000000
vn -1.000000 0.000000 0.000000
vt 0.541520 0.310682
vt 0.680586 0.310682
vt 0.680586 0.322952
vt 0.541520 0.322952
vt 0.541520 0.297261
vt 0.680586 0.297261
vt 0.680586 0.309531
vt 0.541520 0.309531
vt 0.800789 0.672088
vt 0.800783 0.684358
vt 0.791382 0.684354
vt 0.791388 0.672083
vt 0.983640 0.994849
vt 0.844574 0.994849
vt 0.835897 0.991254
vt 0.992326 0.991254
vt 0.488541 0.715803
vt 0.488544 0.703532
vt 0.497936 0.703534
vt 0.497933 0.715805
vt 0.315712 0.684124
vt 0.315718 0.671853
vt 0.782001 0.672079
vt 0.781995 0.684349
vt 0.570531 0.655363
vt 0.570531 0.516297
vt 0.574126 0.507621
vt 0.574126 0.664040
vt 0.167955 0.983173
vt 0.164361 0.991849
vt 0.007932 0.991849
vt 0.004347 0.983173
vt 0.417457 0.504621
vt 0.426133 0.508215
vt 0.426133 0.664634
vt 0.417457 0.668228
vt 0.427098 0.700634
vt 0.417707 0.700639
vt 0.417701 0.688368
vt 0.427092 0.688363
vt 0.809296 0.720498
vt 0.818687 0.720501
vt 0.818683 0.732771
vt 0.809292 0.732769
vt 0.582802 0.504026
vt 0.582802 0.667634
vt 0.429727 0.516891
vt 0.429727 0.655957
vt 0.408316 0.700643
vt 0.408310 0.688372
vt 0.828078 0.720503
vt 0.828075 0.732774
vt 0.832303 0.982578
vt 0.995911 0.982578
vt 0.507327 0.703537
vt 0.507324 0.715807
vt 0.155685 0.995443
vt 0.016618 0.995443
vt 0.828094 0.855290
vt 0.476337 0.855290
vt 0.476337 0.802118
vt 0.828094 0.802118
vt 0.476337 0.789847
vt 0.828094 0.789847
vt 0.476337 0.736675
vt 0.828094 0.736675
vt 0.306320 0.684119
vt 0.306326 0.671848
vt 0.296929 0.684114
vt 0.296935 0.671844
vt 0.983640 0.504026
vt 0.992317 0.507621
vt 0.828709 0.671228
vt 0.820033 0.667634
vt 0.995911 0.516297
vt 0.832303 0.679904
vt 0.004347 0.516891
vt 0.007942 0.508215
vt 0.171549 0.671823
vt 0.167955 0.680499
vt 0.016618 0.504621
vt 0.180226 0.668228
vt 0.827930 0.688171
vt 0.827935 0.700442
vt 0.819392 0.703604
vt 0.828783 0.703606
vt 0.828780 0.715877
vt 0.819389 0.715875
vt 0.810001 0.703602
vt 0.809998 0.715873
vt 0.572062 0.732706
vt 0.572065 0.720435
vt 0.433695 0.737223
vt 0.433695 0.864019
vt 0.297354 0.864019
vt 0.297354 0.737223
vt 0.459117 0.720680
vt 0.465254 0.720680
vt 0.465254 0.855656
vt 0.459117 0.855656
vt 0.471458 0.855656
vt 0.827873 0.995949
vt 0.701077 0.995949
vt 0.701077 0.859608
vt 0.827873 0.859608
vt 0.452913 0.855656
vt 0.803734 0.331097
vt 0.803734 0.324892
vt 0.938710 0.324892
vt 0.930529 0.331097
vt 0.803734 0.318756
vt 0.938710 0.318756
vt 0.803734 0.312551
vt 0.930529 0.312551
vt 0.477663 0.720680
vt 0.483799 0.720680
vt 0.483799 0.728860
vt 0.477663 0.728860
vt 0.446708 0.720680
vt 0.452913 0.720680
vt 0.452913 0.728860
vt 0.446708 0.728860
vt 0.471458 0.720680
vt 0.471458 0.728860
vt 0.938710 0.312551
vt 0.938710 0.331097
vt 0.938710 0.337301
vt 0.930529 0.337301
vt 0.938710 0.300210
vt 0.938710 0.306347
vt 0.930529 0.306347
vt 0.930529 0.300210
vt 0.564583 0.640434
vt 0.437787 0.640434
vt 0.437787 0.504093
vt 0.564583 0.504093
vt 0.677539 0.484364
vt 0.671403 0.484364
vt 0.671403 0.349388
vt 0.677539 0.349388
vt 0.665198 0.349388
vt 0.565637 0.995949
vt 0.438841 0.995949
vt 0.438841 0.859608
vt 0.565637 0.859608
vt 0.683744 0.349388
vt 0.635014 0.485264
vt 0.628810 0.485264
vt 0.628810 0.350288
vt 0.635014 0.358468
vt 0.622673 0.485264
vt 0.622673 0.350288
vt 0.616468 0.485264
vt 0.616468 0.358468
vt 0.696085 0.484364
vt 0.689949 0.484364
vt 0.689949 0.476183
vt 0.696085 0.476183
vt 0.683744 0.484364
vt 0.683744 0.476183
vt 0.665198 0.484364
vt 0.658994 0.484364
vt 0.658994 0.476183
vt 0.665198 0.476183
vt 0.616468 0.350288
vt 0.635014 0.350288
vt 0.641219 0.350288
vt 0.641219 0.358468
vt 0.647355 0.350288
vt 0.647355 0.358468
vt 0.610264 0.350288
vt 0.610264 0.358468
vt 0.433560 0.868820
vt 0.433560 0.995616
vt 0.297219 0.995616
vt 0.297219 0.868820
vt 0.763469 0.480359
vt 0.757332 0.480359
vt 0.757332 0.345383
vt 0.763469 0.345383
vt 0.751128 0.345383
vt 0.696578 0.995949
vt 0.569783 0.995949
vt 0.569783 0.859608
vt 0.696578 0.859608
vt 0.769673 0.345383
vt 0.728953 0.481259
vt 0.722749 0.481259
vt 0.722749 0.346283
vt 0.728954 0.354463
vt 0.716612 0.481259
vt 0.716612 0.346283
vt 0.710408 0.481259
vt 0.710407 0.354463
vt 0.744923 0.480359
vt 0.738787 0.480359
vt 0.738787 0.472178
vt 0.744923 0.472178
vt 0.775878 0.480359
vt 0.769673 0.480359
vt 0.769673 0.472178
vt 0.775878 0.472178
vt 0.751128 0.480359
vt 0.751128 0.472178
vt 0.710408 0.346283
vt 0.728953 0.346283
vt 0.735158 0.346283
vt 0.735158 0.354463
vt 0.698067 0.346283
vt 0.704203 0.346283
vt 0.704203 0.354463
vt 0.698067 0.354463
vt 0.226144 0.995791
vt 0.172971 0.995790
vt 0.172980 0.679542
vt 0.226152 0.679544
vt 0.291587 0.995793
vt 0.238414 0.995792
vt 0.238423 0.679544
vt 0.291595 0.679545
g base
usemtl Material1
f 21/25/21 22/26/22 19/27/19 20/28/20 
f 18/29/18 24/30/24 23/31/23 17/32/17 
f 18/33/18 17/34/17 37/35/37 38/36/38 
f 17/37/17 23/38/23 39/39/39 37/40/37 
f 23/41/23 24/42/24 40/43/40 39/44/39 
f 49/45/49 52/46/52 26/47/26 25/48/25 
f 20/49/20 19/50/19 33/51/33 34/52/34 
f 28/53/28 40/54/40 38/55/38 26/56/26 
f 32/57/32 36/58/36 35/59/35 31/60/31 
f 29/61/29 33/62/33 36/63/36 32/64/32 
f 31/65/31 35/66/35 34/67/34 30/68/30 
f 33/51/33 29/69/29 30/70/30 34/52/34 
f 36/58/36 22/71/22 21/72/21 35/59/35 
f 33/62/33 19/73/19 22/74/22 36/63/36 
f 35/66/35 21/75/21 20/76/20 34/67/34 
f 37/35/37 25/48/25 26/47/26 38/36/38 
f 39/39/39 27/77/27 25/78/25 37/40/37 
f 40/43/40 28/79/28 27/80/27 39/44/39 
f 40/54/40 24/81/24 18/82/18 38/55/38 
f 41/83/41 42/84/42 43/85/43 44/86/44 
f 44/86/44 43/85/43 45/87/45 46/88/46 
f 46/88/46 45/87/45 47/89/47 48/90/48 
f 49/45/49 50/91/50 51/92/51 52/46/52 
f 50/91/50 53/93/53 54/94/54 51/92/51 
f 53/95/53 50/96/50 55/97/55 56/98/56 
f 55/97/55 50/96/50 49/99/49 59/100/59 
f 52/101/52 51/102/51 58/103/58 60/104/60 
f 58/103/58 51/102/51 54/105/54 57/106/57 
f 29/61/29 32/64/32 54/107/54 53/108/53 
f 58/109/58 57/110/57 56/111/56 55/112/55 
f 60/113/60 58/109/58 55/112/55 59/114/59 
f 32/57/32 31/60/31 57/106/57 54/105/54 
f 56/115/56 57/116/57 31/65/31 30/68/30 
f 60/113/60 59/114/59 27/80/27 28/79/28 
f 25/78/25 27/77/27 59/100/59 49/99/49 
f 53/95/53 56/98/56 30/70/30 29/69/29 
f 52/101/52 60/104/60 28/53/28 26/56/26 
f 61/117/61 62/118/62 63/119/63 64/120/64 
f 79/121/79 80/122/80 65/123/65 66/124/66 
f 80/122/80 64/148/64 63/125/63 65/123/65 
f 67/126/67 68/127/68 69/128/69 70/129/70 
f 67/145/67 79/121/79 66/124/66 68/130/68 
f 69/131/69 71/132/71 82/133/82 70/134/70 
f 71/132/71 72/135/72 81/136/81 82/133/82 
f 72/135/72 62/137/62 61/138/61 81/136/81 
f 73/139/73 74/140/74 75/141/75 76/142/76 
f 74/143/74 77/144/77 67/145/67 75/146/75 
f 78/147/78 73/139/73 76/142/76 64/148/64 
f 80/122/80 78/147/78 64/148/64 
f 77/144/77 79/121/79 67/145/67 
f 83/149/83 81/136/81 61/138/61 
f 82/133/82 84/150/84 70/134/70 
f 84/150/84 85/151/85 86/152/86 70/134/70 
f 85/153/85 87/154/87 88/155/88 86/156/86 
f 87/154/87 83/149/83 61/138/61 88/155/88 
f 89/157/89 90/158/90 91/159/91 92/160/92 
f 107/161/107 108/162/108 93/163/93 94/164/94 
f 108/162/108 92/188/92 91/165/91 93/163/93 
f 95/166/95 96/167/96 97/168/97 98/169/98 
f 95/184/95 107/161/107 94/164/94 96/170/96 
f 97/171/97 99/172/99 110/173/110 98/174/98 
f 99/172/99 100/175/100 109/176/109 110/173/110 
f 100/175/100 90/177/90 89/178/89 109/176/109 
f 101/179/101 102/180/102 103/181/103 104/182/104 
f 102/180/102 105/183/105 95/184/95 103/181/103 
f 106/185/106 101/186/101 104/187/104 92/188/92 
f 108/162/108 106/185/106 92/188/92 
f 105/183/105 107/161/107 95/184/95 
f 111/189/111 109/176/109 89/178/89 
f 110/173/110 112/190/112 98/174/98 
f 112/190/112 113/191/113 114/192/114 98/174/98 
f 113/191/113 115/193/115 116/194/116 114/192/114 
f 115/195/115 111/189/111 89/178/89 116/196/116 
f 117/197/117 118/198/118 119/199/119 120/200/120 
f 135/201/135 136/202/136 121/203/121 122/204/122 
f 136/202/136 123/228/123 124/205/124 121/203/121 
f 125/206/125 126/207/126 124/208/124 123/209/123 
f 117/225/117 135/201/135 122/204/122 118/210/118 
f 119/211/119 127/212/127 138/213/138 120/214/120 
f 127/212/127 128/215/128 137/216/137 138/213/138 
f 128/215/128 126/217/126 125/218/125 137/216/137 
f 129/219/129 130/220/130 131/221/131 132/222/132 
f 130/223/130 133/224/133 117/225/117 131/226/131 
f 134/227/134 129/219/129 132/222/132 123/228/123 
f 136/202/136 134/227/134 123/228/123 
f 133/224/133 135/201/135 117/225/117 
f 139/229/139 137/216/137 125/218/125 
f 138/213/138 140/230/140 120/214/120 
f 140/230/140 141/231/141 142/232/142 120/214/120 
f 141/233/141 143/234/143 144/235/144 142/236/142 
f 143/234/143 139/229/139 125/218/125 144/235/144 
f 145/237/145 146/238/146 147/239/147 148/240/148 
f 149/241/149 150/242/150 151/243/151 152/244/152 
f 145/237/145 148/240/148 151/243/151 150/242/150 
