# Wavefront OBJ file
# Creator: Ultimate Unwrap3D Pro v3.35
# Website: http://www.unwrap3d.com
# Time: Sat Jun 15 10:33:36 2013
# num_vertices: 24
# num_vertex_normals: 24
# num_uvs: 36
# num_faces: 12
# num_groups: 1

v 1.000000 2.000000 1.000000
v 1.000000 2.000000 1.000000
v 1.000000 2.000000 1.000000
v 1.000000 0.000000 1.000000
v 1.000000 0.000000 1.000000
v 1.000000 0.000000 1.000000
v 1.000000 0.000000 -1.000000
v 1.000000 0.000000 -1.000000
v 1.000000 0.000000 -1.000000
v -1.000000 2.000000 -1.000000
v -1.000000 2.000000 -1.000000
v -1.000000 2.000000 -1.000000
v -1.000000 0.000000 -1.000000
v -1.000000 0.000000 -1.000000
v -1.000000 0.000000 -1.000000
v 1.000000 2.000000 -1.000000
v 1.000000 2.000000 -1.000000
v 1.000000 2.000000 -1.000000
v -1.000000 2.000000 1.000000
v -1.000000 2.000000 1.000000
v -1.000000 2.000000 1.000000
v -1.000000 0.000000 1.000000
v -1.000000 0.000000 1.000000
v -1.000000 0.000000 1.000000
# num_vertices: 24

vn 0.000000 0.000000 1.000000
vn 0.000000 1.000000 0.000000
vn 1.000000 0.000000 0.000000
vn 1.000000 0.000000 0.000000
vn 0.000000 0.000000 1.000000
vn 0.000000 -1.000000 0.000000
vn 1.000000 0.000000 0.000000
vn 0.000000 -1.000000 0.000000
vn 0.000000 0.000000 -1.000000
vn -1.000000 0.000000 0.000000
vn 0.000000 1.000000 0.000000
vn 0.000000 0.000000 -1.000000
vn 0.000000 0.000000 -1.000000
vn 0.000000 -1.000000 0.000000
vn -1.000000 0.000000 0.000000
vn 0.000000 0.000000 -1.000000
vn 0.000000 1.000000 0.000000
vn 1.000000 0.000000 0.000000
vn 0.000000 0.000000 1.000000
vn 0.000000 1.000000 0.000000
vn -1.000000 0.000000 0.000000
vn 0.000000 0.000000 1.000000
vn -1.000000 0.000000 0.000000
vn 0.000000 -1.000000 0.000000
# num_vertex_normals: 24

vt -23.187500 19.625000
vt -23.187500 19.562500
vt -23.125000 19.562500
vt 19.375000 19.625000
vt 19.312500 19.562500
vt 19.375000 19.562500
vt 19.375000 19.625000
vt 19.312500 19.625000
vt 19.312500 19.562500
vt -19.375000 19.625000
vt -19.312500 19.562500
vt -19.312500 19.625000
vt -19.375000 19.625000
vt -19.375000 19.562500
vt -19.312500 19.562500
vt -23.187500 19.625000
vt -23.125000 19.562500
vt -23.125000 19.625000
vt 23.125000 19.562500
vt 23.187500 19.625000
vt 23.125000 19.625000
vt 23.125000 19.562500
vt 23.187500 19.562500
vt 23.187500 19.625000
vt 23.125000 20.312500
vt 23.187500 20.375000
vt 23.125000 20.375000
vt 23.125000 20.312500
vt 23.187500 20.312500
vt 23.187500 20.375000
vt 23.125000 -18.312500
vt 23.187500 -18.375000
vt 23.187500 -18.312500
vt 23.125000 -18.312500
vt 23.125000 -18.375000
vt 23.187500 -18.375000
# num_uvs: 36

g Generic

f 3/1/3 4/2/4 7/3/7 
f 12/4/12 9/5/9 13/6/13 
f 12/7/12 16/8/16 9/9/9 
f 19/10/19 5/11/5 1/12/1 
f 19/13/19 22/14/22 5/15/5 
f 3/16/3 7/17/7 18/18/18 
f 15/19/15 21/20/21 10/21/10 
f 15/22/15 23/23/23 21/24/21 
f 8/25/8 24/26/24 14/27/14 
f 8/28/8 6/29/6 24/30/24 
f 17/31/17 20/32/20 2/33/2 
f 17/34/17 11/35/11 20/36/20 
# num_faces: 12

