# Wavefront OBJ file
# Creator: Ultimate Unwrap3D Pro v3.35
# Website: http://www.unwrap3d.com
# Time: Sat Jun 15 10:31:37 2013
# num_vertices: 20
# num_vertex_normals: 20
# num_uvs: 30
# num_faces: 10
# num_groups: 1

v -4.000000 0.000000 4.000000
v -4.000000 0.000000 4.000000
v -4.000000 12.000000 4.000000
v -4.000000 12.000000 4.000000
v -4.000000 12.000000 4.000000
v -4.000000 12.000000 -4.000000
v -4.000000 12.000000 -4.000000
v -4.000000 12.000000 -4.000000
v 4.000000 12.000000 -4.000000
v 4.000000 12.000000 -4.000000
v 4.000000 12.000000 -4.000000
v 4.000000 12.000000 4.000000
v 4.000000 12.000000 4.000000
v 4.000000 12.000000 4.000000
v 4.000000 0.000000 -4.000000
v 4.000000 0.000000 -4.000000
v 4.000000 0.000000 4.000000
v 4.000000 0.000000 4.000000
v -4.000000 0.000000 -4.000000
v -4.000000 0.000000 -4.000000
# num_vertices: 20

vn 0.000000 0.000000 1.000000
vn -1.000000 0.000000 0.000000
vn 0.000000 1.000000 0.000000
vn 0.000000 0.000000 1.000000
vn -1.000000 0.000000 0.000000
vn -1.000000 0.000000 0.000000
vn 0.000000 1.000000 0.000000
vn 0.000000 0.000000 -1.000000
vn 0.000000 1.000000 0.000000
vn 1.000000 0.000000 0.000000
vn 0.000000 0.000000 -1.000000
vn 0.000000 1.000000 0.000000
vn 0.000000 0.000000 1.000000
vn 1.000000 0.000000 0.000000
vn 1.000000 0.000000 0.000000
vn 0.000000 0.000000 -1.000000
vn 0.000000 0.000000 1.000000
vn 1.000000 0.000000 0.000000
vn 0.000000 0.000000 -1.000000
vn -1.000000 0.000000 0.000000
# num_vertex_normals: 20

vt 22.500000 19.250000
vt 22.500000 19.625000
vt 22.250000 19.625000
vt 22.250000 -19.250000
vt 22.500000 -19.500000
vt 22.500000 -19.250000
vt 22.250000 -19.250000
vt 22.250000 -19.500000
vt 22.500000 -19.500000
vt -22.500000 19.625000
vt -22.250000 19.250000
vt -22.250000 19.625000
vt -22.500000 19.625000
vt -22.500000 19.250000
vt -22.250000 19.250000
vt 22.500000 19.250000
vt 22.250000 19.625000
vt 22.250000 19.250000
vt 20.500000 19.250000
vt 20.250000 19.625000
vt 20.250000 19.250000
vt 20.500000 19.250000
vt 20.500000 19.625000
vt 20.250000 19.625000
vt -20.500000 19.625000
vt -20.250000 19.250000
vt -20.250000 19.625000
vt -20.500000 19.625000
vt -20.500000 19.250000
vt -20.250000 19.250000
# num_uvs: 30

g Generic

f 2/1/2 5/2/5 6/3/6 
f 9/4/9 3/5/3 12/6/12 
f 9/7/9 7/8/7 3/9/3 
f 14/10/14 15/11/15 10/12/10 
f 14/13/14 18/14/18 15/15/15 
f 2/16/2 6/17/6 20/18/20 
f 19/19/19 11/20/11 16/21/16 
f 19/22/19 8/23/8 11/24/11 
f 4/25/4 17/26/17 13/27/13 
f 4/28/4 1/29/1 17/30/17 
# num_faces: 10

