mtllib model.mtl
o model.obj
v 13.000000 9.000000 15.000000
v -3.000000 9.000000 15.000000
v 13.000000 9.000000 5.000000
v -3.000000 9.000000 5.000000
v 13.000000 0.000000 15.000000
v -3.000000 0.000000 15.000000
v 13.000000 0.000000 5.000000
v -3.000000 0.000000 5.000000
vn 0.577350 0.577350 0.577350
vn -0.577350 0.577350 0.577350
vn 0.577350 0.577350 -0.577350
vn -0.577350 0.577350 -0.577350
vn 0.577350 -0.577350 0.577350
vn -0.577350 -0.577350 0.577350
vn 0.577350 -0.577350 -0.577350
vn -0.577350 -0.577350 -0.577350
vt 24.937500 -20.000000
vt 24.750000 -20.000000
vt 24.625000 -20.500000
vt 24.937500 -20.500000
vt 0.000000 0.000000
vt 0.000000 0.000000
vt 0.000000 0.000000
vt 0.000000 0.000000
vt 0.000000 0.000000
vt 0.000000 0.000000
vt 0.000000 0.000000
vt 0.000000 0.000000
g collide
usemtl Default
f 4/1/4 2/2/2 1/3/1 3/4/3 
f 1/5/1 2/6/2 6/7/6 5/8/5 
f 3/9/3 1/5/1 5/8/5 7/10/7 
f 2/6/2 4/11/4 8/12/8 6/7/6 
f 4/11/4 3/9/3 7/10/7 8/12/8 
f 5/8/5 6/7/6 8/12/8 7/10/7 
v -3.000000 9.000000 15.000000
v -13.000000 9.000000 15.000000
v -3.000000 9.000000 -15.000000
v -13.000000 9.000000 -15.000000
v -3.000000 0.000000 15.000000
v -13.000000 0.000000 15.000000
v -3.000000 -0.000000 -15.000000
v -13.000000 -0.000000 -15.000000
vn 0.577350 0.577350 0.577350
vn -0.577350 0.577350 0.577350
vn 0.577350 0.577350 -0.577350
vn -0.577350 0.577350 -0.577350
vn 0.577350 -0.577350 0.577350
vn -0.577350 -0.577350 0.577350
vn 0.577350 -0.577350 -0.577350
vn -0.577350 -0.577350 -0.577350
vt 24.937500 -19.687500
vt 24.000000 -19.687500
vt 24.000000 -20.000000
vt 24.625000 -20.000000
vt 0.000000 0.000000
vt 0.000000 0.000000
vt 0.000000 0.000000
vt 0.000000 0.000000
vt 0.000000 0.000000
vt 0.000000 0.000000
vt 0.000000 0.000000
vt 0.000000 0.000000
g collide
usemtl Default
f 12/13/12 10/14/10 9/15/9 11/16/11 
f 11/17/11 9/18/9 13/19/13 15/20/15 
f 9/18/9 10/21/10 14/22/14 13/19/13 
f 10/21/10 12/23/12 16/24/16 14/22/14 
f 12/23/12 11/17/11 15/20/15 16/24/16 
f 15/20/15 13/19/13 14/22/14 16/24/16 
v -12.250000 9.000000 -15.000000
v -12.250000 8.250000 -15.000000
v 13.000000 9.000000 14.250000
v 13.000000 9.000000 5.750000
v 13.000000 8.250000 5.750000
v 13.000000 8.250000 14.250000
v -3.750000 9.000000 -15.000000
v -3.750000 8.250000 -15.000000
v -13.000000 9.000000 -14.250000
v -13.000000 8.250000 -14.250000
v -3.000000 9.000000 -14.250000
v -3.000000 8.250000 -14.250000
v 12.250000 9.000000 15.000000
v 12.250000 9.000000 5.000000
v 12.250000 8.250000 5.000000
v 12.250000 8.250000 15.000000
v 12.780300 9.000000 14.780300
v 12.780300 9.000000 5.219670
v 12.780300 8.250000 5.219670
v 12.780300 8.250000 14.780300
v -12.780900 9.000000 -14.780300
v -12.780900 8.250000 -14.780300
v -3.219670 9.000000 -14.780300
v -3.219670 8.250000 -14.780300
v 11.500000 8.250000 12.000000
v -10.000000 8.250000 12.000000
v -10.000000 5.000000 12.000000
v 11.500000 5.000000 12.000000
v -10.000000 5.000000 12.750000
v 11.500000 5.000000 12.750000
v -10.000000 8.250000 12.750000
v 11.500000 8.250000 12.750000
v -13.000000 9.000000 14.250000
v -12.780300 9.000000 14.780300
v -12.780300 8.250000 14.780300
v -13.000000 8.250000 14.250000
v -12.250000 9.000000 15.000000
v -12.250000 8.250000 15.000000
v -2.780300 9.000000 4.780300
v -2.250000 9.000000 5.000000
v -2.250000 8.250000 5.000000
v -2.780300 8.250000 4.780300
v -3.000000 9.000000 4.250000
v -3.000000 8.250000 4.250000
v -3.833310 0.500000 -14.235199
v -3.833310 8.250000 -14.235199
v -12.166717 8.250000 -14.235199
v -12.166717 0.500000 -14.235199
v -12.496379 8.250000 -14.047733
v -12.496379 8.250000 -13.672667
v -12.166717 0.500000 -13.485199
v -12.166717 8.250000 -13.485199
v -3.833310 8.250000 -13.485199
v -3.833310 0.500000 -13.485199
v -3.503648 8.250000 -13.672667
v -3.503648 8.250000 -14.047733
v -11.837060 -0.000000 -14.047733
v -11.837060 -0.000000 -13.672667
v -11.837060 0.500000 -13.672667
v -11.837060 0.500000 -14.047733
v -12.166720 -0.000000 -13.485199
v -12.166720 -0.000000 -14.235199
v -12.496379 -0.000000 -13.672667
v -12.496379 -0.000000 -14.047733
v -3.503620 -0.000000 -14.047733
v -3.503620 -0.000000 -13.672667
v -3.833282 -0.000000 -14.235199
v -3.833282 -0.000000 -13.485199
v -4.162939 -0.000000 -13.672667
v -4.162939 0.500000 -13.672667
v -4.162939 -0.000000 -14.047733
v -4.162939 0.500000 -14.047733
v -10.000000 0.500000 14.163071
v -10.000000 8.250000 14.163071
v -10.000000 8.250000 5.829662
v -10.000000 0.500000 5.829662
v -10.187467 8.250000 5.500000
v -10.562533 8.250000 5.500000
v -10.750000 0.500000 5.829662
v -10.750000 8.250000 5.829662
v -10.750000 8.250000 14.163071
v -10.750000 0.500000 14.163071
v -10.562533 8.250000 14.492733
v -10.187467 8.250000 14.492733
v -10.187467 0.000000 6.159320
v -10.562533 0.000000 6.159320
v -10.562533 0.500000 6.159320
v -10.187467 0.500000 6.159320
v -10.750000 0.000000 5.829658
v -10.000000 0.000000 5.829658
v -10.562533 0.000000 5.500000
v -10.187467 0.000000 5.500000
v -10.187467 0.000000 14.492760
v -10.562533 0.000000 14.492760
v -10.000000 0.000000 14.163099
v -10.750000 0.000000 14.163099
v -10.562533 0.000000 13.833441
v -10.562533 0.500000 13.833441
v -10.187467 0.000000 13.833441
v -10.187467 0.500000 13.833441
v 11.500000 0.500000 5.829662
v 11.500000 8.250000 5.829662
v 11.500000 8.250000 14.163071
v 11.500000 0.500000 14.163071
v 12.062533 8.250000 5.500000
v 11.687467 8.250000 5.500000
v 12.250000 0.500000 5.829662
v 12.250000 8.250000 5.829662
v 12.250000 0.500000 14.163071
v 12.250000 8.250000 14.163071
v 11.687467 8.250000 14.492733
v 12.062533 8.250000 14.492733
v 12.062533 0.000000 6.159320
v 11.687467 0.000000 6.159320
v 11.687467 0.500000 6.159320
v 12.062533 0.500000 6.159320
v 11.500000 0.000000 5.829658
v 12.250000 0.000000 5.829658
v 11.687467 0.000000 5.500000
v 12.062533 0.000000 5.500000
v 12.062533 0.000000 14.492760
v 11.687467 0.000000 14.492760
v 12.250000 0.000000 14.163099
v 11.500000 0.000000 14.163099
v 11.687467 0.000000 13.833441
v 11.687467 0.500000 13.833441
v 12.062533 0.000000 13.833441
v 12.062533 0.500000 13.833441
v -10.000000 5.000000 5.829660
v -10.000000 8.250000 5.829660
v -10.000000 8.250000 -13.500000
v -10.000000 5.000000 -13.500000
v -10.750000 8.250000 5.829660
v -10.750000 5.000000 5.829660
v -10.750000 5.000000 -13.500000
v -10.750000 8.250000 -13.500000
vn -0.173664 0.454170 -0.873825
vn -0.173664 -0.454170 -0.873825
vn 0.873783 0.454184 0.173837
vn 0.873786 0.454183 -0.173829
vn 0.873786 -0.454183 -0.173829
vn 0.873783 -0.454184 0.173837
vn 0.173829 0.454183 -0.873785
vn 0.173829 -0.454183 -0.873785
vn -0.686853 0.713901 -0.136303
vn -0.686853 -0.713901 -0.136303
vn 0.686758 0.713933 -0.136612
vn 0.686758 -0.713933 -0.136612
vn 0.136628 0.713935 0.686753
vn 0.136612 0.713933 -0.686758
vn 0.136612 -0.713933 -0.686758
vn 0.136628 -0.713935 0.686753
vn 0.479849 0.734500 0.479849
vn 0.479838 0.734505 -0.479852
vn 0.479838 -0.734505 -0.479852
vn 0.479849 -0.734500 0.479849
vn -0.479911 0.734596 -0.479640
vn -0.479911 -0.734596 -0.479640
vn 0.479852 0.734505 -0.479838
vn 0.479852 -0.734505 -0.479838
vn 0.000000 0.000000 -1.000000
vn 0.000000 0.000000 -1.000000
vn 0.000000 -0.707107 -0.707107
vn 0.000000 -0.707107 -0.707107
vn 0.000000 -0.707107 0.707107
vn 0.000000 -0.707107 0.707107
vn 0.000000 0.000000 1.000000
vn 0.000000 0.000000 1.000000
vn -0.686753 0.713935 0.136628
vn -0.479849 0.734500 0.479849
vn -0.479849 -0.734500 0.479849
vn -0.686753 -0.713935 0.136628
vn -0.136628 0.713935 0.686753
vn -0.136628 -0.713935 0.686753
vn 0.479849 0.734500 -0.479849
vn 0.136628 0.713935 -0.686753
vn 0.136628 -0.713935 -0.686753
vn 0.479849 -0.734500 -0.479849
vn 0.686753 0.713935 -0.136628
vn 0.686753 -0.713935 -0.136628
vn 0.135727 0.000000 -0.990746
vn 0.255640 0.000000 -0.966772
vn -0.255658 0.000000 -0.966767
vn -0.135745 0.000001 -0.990744
vn -0.864385 0.000000 -0.502830
vn -0.864386 0.000000 0.502828
vn -0.135747 0.000000 0.990744
vn -0.255660 0.000000 0.966767
vn 0.255644 0.000001 0.966771
vn 0.135729 0.000008 0.990746
vn 0.864378 0.000003 0.502843
vn 0.864376 0.000002 -0.502846
vn 0.864387 0.000000 -0.502827
vn 0.864388 -0.000002 0.502825
vn 0.864388 -0.000002 0.502825
vn 0.864387 0.000000 -0.502827
vn 0.000001 0.000000 1.000000
vn 0.000001 0.000002 -1.000000
vn -0.752863 0.000001 0.658177
vn -0.752861 0.000001 -0.658180
vn 0.752852 0.000012 -0.658190
vn 0.752854 0.000012 0.658187
vn -0.000021 0.000000 -1.000000
vn -0.000021 0.000016 1.000000
vn -0.864397 0.000000 0.502810
vn -0.864397 0.000000 0.502810
vn -0.864396 -0.000016 -0.502811
vn -0.864396 -0.000016 -0.502811
vn 0.990746 0.000000 0.135729
vn 0.966771 0.000000 0.255642
vn 0.966767 0.000000 -0.255659
vn 0.990744 0.000001 -0.135747
vn 0.502829 0.000000 -0.864386
vn -0.502829 0.000000 -0.864386
vn -0.990744 0.000000 -0.135747
vn -0.966767 0.000000 -0.255659
vn -0.966771 0.000001 0.255643
vn -0.990746 0.000008 0.135730
vn -0.502843 0.000003 0.864377
vn 0.502844 0.000002 0.864377
vn 0.502827 0.000000 0.864387
vn -0.502827 -0.000002 0.864387
vn -0.502827 -0.000002 0.864387
vn 0.502827 0.000000 0.864387
vn -1.000000 0.000000 0.000000
vn 1.000000 0.000002 0.000000
vn -0.658178 0.000001 -0.752862
vn 0.658178 0.000001 -0.752862
vn 0.658188 0.000012 0.752853
vn -0.658188 0.000013 0.752854
vn 1.000000 0.000000 -0.000020
vn -1.000000 0.000016 -0.000020
vn -0.502811 0.000000 -0.864396
vn -0.502811 0.000000 -0.864396
vn 0.502811 -0.000016 -0.864396
vn 0.502811 -0.000016 -0.864396
vn -0.990744 0.000000 -0.135747
vn -0.966767 0.000000 -0.255659
vn -0.966771 0.000001 0.255643
vn -0.990746 0.000008 0.135730
vn 0.502829 0.000000 -0.864386
vn -0.502829 0.000000 -0.864386
vn 0.990744 0.000001 -0.135747
vn 0.966767 0.000000 -0.255659
vn 0.990746 0.000000 0.135729
vn 0.966771 0.000000 0.255642
vn -0.502843 0.000003 0.864377
vn 0.502844 0.000002 0.864377
vn 0.502827 0.000000 0.864387
vn -0.502827 -0.000002 0.864387
vn -0.502827 -0.000002 0.864387
vn 0.502827 0.000000 0.864387
vn -1.000000 0.000000 0.000000
vn 1.000000 0.000002 0.000000
vn -0.658178 0.000001 -0.752862
vn 0.658178 0.000001 -0.752862
vn 0.658188 0.000012 0.752853
vn -0.658188 0.000013 0.752854
vn 1.000000 0.000000 -0.000020
vn -1.000000 0.000016 -0.000020
vn -0.502811 0.000000 -0.864396
vn -0.502811 0.000000 -0.864396
vn 0.502811 -0.000016 -0.864396
vn 0.502811 -0.000016 -0.864396
vn 0.707107 -0.707107 0.000000
vn 1.000000 0.000000 0.000000
vn 1.000000 0.000000 0.000000
vn 0.707107 -0.707107 0.000000
vn -1.000000 0.000000 0.000000
vn -0.707107 -0.707107 0.000000
vn -0.707107 -0.707107 0.000000
vn -1.000000 0.000000 0.000000
vt 0.541520 0.322952
vt 0.680586 0.322952
vt 0.680586 0.310682
vt 0.541520 0.310682
vt 0.541520 0.309531
vt 0.680586 0.309531
vt 0.680586 0.297261
vt 0.541520 0.297261
vt 0.791388 0.672083
vt 0.791382 0.684354
vt 0.800783 0.684358
vt 0.800789 0.672088
vt 0.992326 0.991254
vt 0.835897 0.991254
vt 0.844574 0.994849
vt 0.983640 0.994849
vt 0.497933 0.715805
vt 0.497936 0.703534
vt 0.488544 0.703532
vt 0.488541 0.715803
vt 0.781995 0.684349
vt 0.782001 0.672079
vt 0.315718 0.671853
vt 0.315712 0.684124
vt 0.574126 0.664040
vt 0.574126 0.507621
vt 0.570531 0.516297
vt 0.570531 0.655363
vt 0.004347 0.983173
vt 0.007932 0.991849
vt 0.164361 0.991849
vt 0.167955 0.983173
vt 0.417457 0.668228
vt 0.426133 0.664634
vt 0.426133 0.508215
vt 0.417457 0.504621
vt 0.427092 0.688363
vt 0.417701 0.688368
vt 0.417707 0.700639
vt 0.427098 0.700634
vt 0.809292 0.732769
vt 0.818683 0.732771
vt 0.818687 0.720501
vt 0.809296 0.720498
vt 0.582802 0.667634
vt 0.582802 0.504026
vt 0.429727 0.655957
vt 0.429727 0.516891
vt 0.408310 0.688372
vt 0.408316 0.700643
vt 0.828075 0.732774
vt 0.828078 0.720503
vt 0.995911 0.982578
vt 0.832303 0.982578
vt 0.507324 0.715807
vt 0.507327 0.703537
vt 0.016618 0.995443
vt 0.155685 0.995443
vt 0.828094 0.802118
vt 0.476337 0.802118
vt 0.476337 0.855290
vt 0.828094 0.855290
vt 0.828094 0.789847
vt 0.476337 0.789847
vt 0.828094 0.736675
vt 0.476337 0.736675
vt 0.306326 0.671848
vt 0.306320 0.684119
vt 0.296935 0.671844
vt 0.296929 0.684114
vt 0.820033 0.667634
vt 0.828709 0.671228
vt 0.992317 0.507621
vt 0.983640 0.504026
vt 0.832303 0.679904
vt 0.995911 0.516297
vt 0.167955 0.680499
vt 0.171549 0.671823
vt 0.007942 0.508215
vt 0.004347 0.516891
vt 0.180226 0.668228
vt 0.016618 0.504621
vt 0.827935 0.700442
vt 0.827930 0.688171
vt 0.819389 0.715875
vt 0.828780 0.715877
vt 0.828783 0.703606
vt 0.819392 0.703604
vt 0.809998 0.715873
vt 0.810001 0.703602
vt 0.572065 0.720435
vt 0.572062 0.732706
vt 0.297354 0.737223
vt 0.297354 0.864019
vt 0.433695 0.864019
vt 0.433695 0.737223
vt 0.459117 0.855656
vt 0.465254 0.855656
vt 0.465254 0.720680
vt 0.459117 0.720680
vt 0.471458 0.855656
vt 0.471458 0.728860
vt 0.827873 0.859608
vt 0.701077 0.859608
vt 0.701077 0.995949
vt 0.827873 0.995949
vt 0.452913 0.855656
vt 0.452913 0.728860
vt 0.930529 0.331097
vt 0.938710 0.324892
vt 0.803734 0.324892
vt 0.803734 0.331097
vt 0.938710 0.318756
vt 0.803734 0.318756
vt 0.930529 0.312551
vt 0.803734 0.312551
vt 0.477663 0.728860
vt 0.483799 0.728860
vt 0.483799 0.720680
vt 0.477663 0.720680
vt 0.446708 0.728860
vt 0.452913 0.720680
vt 0.446708 0.720680
vt 0.471458 0.720680
vt 0.938710 0.312551
vt 0.938710 0.331097
vt 0.930529 0.337301
vt 0.938710 0.337301
vt 0.930529 0.300210
vt 0.930529 0.306347
vt 0.938710 0.306347
vt 0.938710 0.300210
vt 0.564583 0.504093
vt 0.437787 0.504093
vt 0.437787 0.640434
vt 0.564583 0.640434
vt 0.677539 0.349388
vt 0.671403 0.349388
vt 0.671403 0.484364
vt 0.677539 0.484364
vt 0.665198 0.349388
vt 0.665198 0.476183
vt 0.565637 0.859608
vt 0.438841 0.859608
vt 0.438841 0.995949
vt 0.565637 0.995949
vt 0.683744 0.349388
vt 0.683744 0.476183
vt 0.635014 0.358468
vt 0.628810 0.350288
vt 0.628810 0.485264
vt 0.635014 0.485264
vt 0.622673 0.350288
vt 0.622673 0.485264
vt 0.616468 0.358468
vt 0.616468 0.485264
vt 0.696085 0.476183
vt 0.689949 0.476183
vt 0.689949 0.484364
vt 0.696085 0.484364
vt 0.683744 0.484364
vt 0.658994 0.476183
vt 0.658994 0.484364
vt 0.665198 0.484364
vt 0.616468 0.350288
vt 0.635014 0.350288
vt 0.641219 0.358468
vt 0.641219 0.350288
vt 0.647355 0.358468
vt 0.647355 0.350288
vt 0.610264 0.358468
vt 0.610264 0.350288
vt 0.297219 0.868820
vt 0.297219 0.995616
vt 0.433560 0.995616
vt 0.433560 0.868820
vt 0.763469 0.345383
vt 0.757332 0.345383
vt 0.757332 0.480359
vt 0.763469 0.480359
vt 0.751128 0.345383
vt 0.751128 0.472178
vt 0.696578 0.859608
vt 0.569783 0.859608
vt 0.569783 0.995949
vt 0.696578 0.995949
vt 0.769673 0.345383
vt 0.769673 0.472178
vt 0.728954 0.354463
vt 0.722749 0.346283
vt 0.722749 0.481259
vt 0.728953 0.481259
vt 0.716612 0.346283
vt 0.716612 0.481259
vt 0.710407 0.354463
vt 0.710408 0.481259
vt 0.744923 0.472178
vt 0.738787 0.472178
vt 0.738787 0.480359
vt 0.744923 0.480359
vt 0.775878 0.472178
vt 0.769673 0.480359
vt 0.775878 0.480359
vt 0.751128 0.480359
vt 0.710408 0.346283
vt 0.728953 0.346283
vt 0.735158 0.354463
vt 0.735158 0.346283
vt 0.698067 0.354463
vt 0.704203 0.354463
vt 0.704203 0.346283
vt 0.698067 0.346283
vt 0.226152 0.679544
vt 0.172980 0.679542
vt 0.172971 0.995790
vt 0.226144 0.995791
vt 0.291595 0.679545
vt 0.238423 0.679544
vt 0.238414 0.995792
vt 0.291587 0.995793
g base
usemtl Default
f 20/25/20 19/26/19 22/27/22 21/28/21 
f 17/29/17 23/30/23 24/31/24 18/32/18 
f 38/33/38 37/34/37 17/35/17 18/36/18 
f 37/37/37 39/38/39 23/39/23 17/40/17 
f 39/41/39 40/42/40 24/43/24 23/44/23 
f 25/45/25 26/46/26 52/47/52 49/48/49 
f 34/49/34 33/50/33 19/51/19 20/52/20 
f 26/53/26 38/54/38 40/55/40 28/56/28 
f 31/57/31 35/58/35 36/59/36 32/60/32 
f 32/61/32 36/62/36 33/63/33 29/64/29 
f 30/65/30 34/66/34 35/67/35 31/68/31 
f 34/49/34 30/69/30 29/70/29 33/50/33 
f 35/58/35 21/71/21 22/72/22 36/59/36 
f 36/62/36 22/73/22 19/74/19 33/63/33 
f 34/66/34 20/75/20 21/76/21 35/67/35 
f 38/33/38 26/46/26 25/45/25 37/34/37 
f 37/37/37 25/77/25 27/78/27 39/38/39 
f 39/41/39 27/79/27 28/80/28 40/42/40 
f 38/54/38 18/81/18 24/82/24 40/55/40 
f 44/83/44 43/84/43 42/85/42 41/86/41 
f 46/87/46 45/88/45 43/84/43 44/83/44 
f 48/89/48 47/90/47 45/88/45 46/87/46 
f 52/47/52 51/91/51 50/92/50 49/48/49 
f 51/91/51 54/93/54 53/94/53 50/92/50 
f 56/95/56 55/96/55 50/97/50 53/98/53 
f 59/99/59 49/100/49 50/97/50 55/96/55 
f 60/101/60 58/102/58 51/103/51 52/104/52 
f 57/105/57 54/106/54 51/103/51 58/102/58 
f 53/107/53 54/108/54 32/61/32 29/64/29 
f 55/109/55 56/110/56 57/111/57 58/112/58 
f 59/113/59 55/109/55 58/112/58 60/114/60 
f 54/106/54 57/105/57 31/57/31 32/60/32 
f 30/65/30 31/68/31 57/115/57 56/116/56 
f 28/80/28 27/79/27 59/113/59 60/114/60 
f 49/100/49 59/99/59 27/78/27 25/77/25 
f 29/70/29 30/69/30 56/95/56 53/98/53 
f 26/53/26 28/56/28 60/101/60 52/104/52 
f 64/117/64 63/118/63 62/119/62 61/120/61 
f 66/121/66 65/122/65 80/123/80 79/124/79 
f 65/122/65 63/125/63 64/126/64 80/123/80 
f 70/127/70 69/128/69 68/129/68 67/130/67 
f 68/131/68 66/121/66 79/124/79 67/132/67 
f 70/133/70 82/134/82 71/135/71 69/136/69 
f 82/134/82 81/137/81 72/138/72 71/135/71 
f 81/137/81 61/139/61 62/140/62 72/138/72 
f 76/141/76 75/142/75 74/143/74 73/144/73 
f 75/145/75 67/132/67 77/146/77 74/147/74 
f 64/126/64 76/141/76 73/144/73 78/148/78 
f 64/126/64 78/148/78 80/123/80 
f 67/132/67 79/124/79 77/146/77 
f 61/139/61 81/137/81 83/149/83 
f 70/133/70 84/150/84 82/134/82 
f 70/133/70 86/151/86 85/152/85 84/150/84 
f 86/153/86 88/154/88 87/155/87 85/156/85 
f 88/154/88 61/139/61 83/149/83 87/155/87 
f 92/157/92 91/158/91 90/159/90 89/160/89 
f 94/161/94 93/162/93 108/163/108 107/164/107 
f 93/162/93 91/165/91 92/166/92 108/163/108 
f 98/167/98 97/168/97 96/169/96 95/170/95 
f 96/171/96 94/161/94 107/164/107 95/172/95 
f 98/173/98 110/174/110 99/175/99 97/176/97 
f 110/174/110 109/177/109 100/178/100 99/175/99 
f 109/177/109 89/179/89 90/180/90 100/178/100 
f 104/181/104 103/182/103 102/183/102 101/184/101 
f 103/182/103 95/172/95 105/185/105 102/183/102 
f 92/166/92 104/186/104 101/187/101 106/188/106 
f 92/166/92 106/188/106 108/163/108 
f 95/172/95 107/164/107 105/185/105 
f 89/179/89 109/177/109 111/189/111 
f 98/173/98 112/190/112 110/174/110 
f 98/173/98 114/191/114 113/192/113 112/190/112 
f 114/191/114 116/193/116 115/194/115 113/192/113 
f 116/195/116 89/179/89 111/189/111 115/196/115 
f 120/197/120 119/198/119 118/199/118 117/200/117 
f 122/201/122 121/202/121 136/203/136 135/204/135 
f 121/202/121 124/205/124 123/206/123 136/203/136 
f 123/207/123 124/208/124 126/209/126 125/210/125 
f 118/211/118 122/201/122 135/204/135 117/212/117 
f 120/213/120 138/214/138 127/215/127 119/216/119 
f 138/214/138 137/217/137 128/218/128 127/215/127 
f 137/217/137 125/219/125 126/220/126 128/218/128 
f 132/221/132 131/222/131 130/223/130 129/224/129 
f 131/225/131 117/212/117 133/226/133 130/227/130 
f 123/206/123 132/221/132 129/224/129 134/228/134 
f 123/206/123 134/228/134 136/203/136 
f 117/212/117 135/204/135 133/226/133 
f 125/219/125 137/217/137 139/229/139 
f 120/213/120 140/230/140 138/214/138 
f 120/213/120 142/231/142 141/232/141 140/230/140 
f 142/233/142 144/234/144 143/235/143 141/236/141 
f 144/234/144 125/219/125 139/229/139 143/235/143 
f 148/237/148 147/238/147 146/239/146 145/240/145 
f 152/241/152 151/242/151 150/243/150 149/244/149 
f 150/243/150 151/242/151 148/237/148 145/240/145 
