# Wavefront OBJ file
# Creator: Ultimate Unwrap3D Pro v3.35
# Website: http://www.unwrap3d.com
# Time: Sat Jun 15 10:32:04 2013
# num_vertices: 193
# num_vertex_normals: 193
# num_uvs: 366
# num_faces: 122
# num_groups: 1

v 0.500000 5.000000 -1.500000
v 0.500000 5.000000 0.500000
v -1.500000 5.000000 -1.500000
v -1.500000 5.000000 0.500000
v -1.500000 6.000000 0.500000
v -1.500000 6.000000 0.500000
v -1.500000 2.000000 0.500000
v -1.500000 2.000000 0.500000
v -1.500000 2.000000 0.500000
v 0.500000 2.000000 0.500000
v 0.500000 2.000000 0.500000
v 0.500000 2.000000 0.500000
v 0.500000 2.000000 -3.500000
v 0.500000 2.000000 -3.500000
v 0.500000 2.000000 -3.500000
v 2.500000 0.500000 -1.500000
v 2.500000 0.500000 -1.500000
v 2.500000 0.500000 -1.500000
v 0.500000 0.500000 -3.500000
v 0.500000 0.500000 -3.500000
v 0.500000 0.500000 -3.500000
v 2.500000 2.000000 -1.500000
v 2.500000 2.000000 -1.500000
v 2.500000 2.000000 -1.500000
v 2.500000 2.000000 0.500000
v 2.500000 2.000000 0.500000
v 2.500000 2.000000 0.500000
v 2.500000 0.500000 0.500000
v 2.500000 0.500000 0.500000
v 2.500000 0.500000 0.500000
v -1.500000 2.000000 -3.500000
v -1.500000 2.000000 -3.500000
v -1.500000 2.000000 -3.500000
v -1.500000 0.500000 -3.500000
v -1.500000 0.500000 -3.500000
v -1.500000 0.500000 -3.500000
v -1.500000 2.000000 -1.500000
v -1.500000 2.000000 -1.500000
v -1.500000 2.000000 -1.500000
v 0.500000 2.000000 -1.500000
v 0.500000 2.000000 -1.500000
v 0.500000 2.000000 -1.500000
v 0.500000 6.000000 0.500000
v 0.500000 6.000000 0.500000
v 0.500000 6.000000 -1.500000
v 0.500000 6.000000 -1.500000
v -1.500000 6.000000 -1.500000
v -1.500000 6.000000 -1.500000
v 0.500000 2.000000 2.500000
v 0.500000 2.000000 2.500000
v 0.500000 2.000000 2.500000
v 0.500000 0.500000 2.500000
v 0.500000 0.500000 2.500000
v 0.500000 0.500000 2.500000
v -1.500000 2.000000 2.500000
v -1.500000 2.000000 2.500000
v -1.500000 2.000000 2.500000
v -1.500000 0.500000 2.500000
v -1.500000 0.500000 2.500000
v -1.500000 0.500000 2.500000
v -3.500000 2.000000 -1.500000
v -3.500000 2.000000 -1.500000
v -3.500000 2.000000 -1.500000
v -3.500000 0.500000 -1.500000
v -3.500000 0.500000 -1.500000
v -3.500000 0.500000 -1.500000
v -3.500000 2.000000 0.500000
v -3.500000 2.000000 0.500000
v -3.500000 2.000000 0.500000
v -3.500000 0.500000 0.500000
v -3.500000 0.500000 0.500000
v -3.500000 0.500000 0.500000
v -3.500000 6.000000 2.500000
v -3.500000 6.000000 2.500000
v -3.500000 6.000000 2.500000
v 2.500000 6.000000 2.500000
v 2.500000 6.000000 2.500000
v 2.500000 6.000000 2.500000
v 2.500000 6.000000 2.500000
v 2.500000 6.000000 2.500000
v 2.500000 6.000000 -3.500000
v 2.500000 6.000000 -3.500000
v 2.500000 6.000000 -3.500000
v 2.500000 6.000000 -3.500000
v 2.500000 6.000000 -3.500000
v 1.500000 12.000000 2.500000
v 1.500000 12.000000 2.500000
v 1.500000 12.000000 2.500000
v 1.500000 6.000000 2.500000
v 1.500000 6.000000 2.500000
v 2.500000 9.000000 3.500000
v 2.500000 9.000000 3.500000
v 2.500000 9.000000 3.500000
v -2.500000 9.000000 3.500000
v -2.500000 9.000000 3.500000
v -2.500000 9.000000 3.500000
v -2.500000 8.000000 3.500000
v -2.500000 8.000000 3.500000
v 3.500000 6.000000 2.500000
v 3.500000 6.000000 2.500000
v 3.500000 6.000000 2.500000
v -2.500000 9.000000 2.500000
v -2.500000 9.000000 2.500000
v -2.500000 9.000000 2.500000
v 3.500000 6.000000 -3.500000
v 3.500000 6.000000 -3.500000
v 3.500000 6.000000 -3.500000
v -3.500000 5.000000 2.500000
v -3.500000 5.000000 2.500000
v -3.500000 5.000000 2.500000
v 2.500000 5.000000 2.500000
v 2.500000 5.000000 2.500000
v 2.500000 5.000000 2.500000
v 1.500000 12.000000 -3.500000
v 1.500000 12.000000 -3.500000
v 1.500000 12.000000 -3.500000
v -1.500000 8.000000 3.500000
v -1.500000 8.000000 3.500000
v -1.500000 8.000000 3.500000
v -3.500000 6.000000 -3.500000
v -3.500000 6.000000 -3.500000
v -3.500000 6.000000 -3.500000
v 2.500000 9.000000 2.500000
v 2.500000 9.000000 2.500000
v 2.500000 9.000000 2.500000
v 3.500000 12.000000 -3.500000
v 3.500000 12.000000 -3.500000
v 3.500000 12.000000 -3.500000
v 2.500000 8.000000 2.500000
v 2.500000 8.000000 2.500000
v 2.500000 8.000000 2.500000
v 3.500000 12.000000 2.500000
v 3.500000 12.000000 2.500000
v 3.500000 12.000000 2.500000
v -1.500000 5.000000 3.500000
v -1.500000 5.000000 3.500000
v -1.500000 5.000000 3.500000
v -2.500000 5.000000 3.500000
v -2.500000 5.000000 3.500000
v -2.500000 5.000000 3.500000
v 2.500000 5.000000 -3.500000
v 2.500000 5.000000 -3.500000
v 2.500000 5.000000 -3.500000
v 0.500000 5.000000 2.500000
v 0.500000 5.000000 2.500000
v -2.500000 5.000000 2.500000
v -2.500000 5.000000 2.500000
v 1.500000 6.000000 -3.500000
v 1.500000 6.000000 -3.500000
v 2.500000 8.000000 3.500000
v 2.500000 8.000000 3.500000
v 2.500000 8.000000 3.500000
v -3.500000 5.000000 0.500000
v -3.500000 5.000000 0.500000
v -3.500000 5.000000 -3.500000
v -3.500000 5.000000 -3.500000
v -3.500000 5.000000 -3.500000
v -1.500000 8.000000 2.500000
v -1.500000 8.000000 2.500000
v -1.500000 8.000000 2.500000
v -1.500000 5.000000 2.500000
v -1.500000 5.000000 2.500000
v -1.500000 5.000000 2.500000
v -2.500000 8.000000 2.500000
v -2.500000 8.000000 2.500000
v -1.500000 5.000000 -3.500000
v -1.500000 5.000000 -3.500000
v 0.500000 5.000000 -3.500000
v 0.500000 5.000000 -3.500000
v -1.500000 6.000000 2.500000
v -1.500000 6.000000 2.500000
v -2.500000 6.000000 2.500000
v -2.500000 6.000000 2.500000
v 3.500000 13.000000 1.500000
v 3.500000 13.000000 1.500000
v 3.500000 13.000000 1.500000
v 1.500000 13.000000 1.500000
v 1.500000 13.000000 1.500000
v 1.500000 13.000000 1.500000
v 1.500000 12.000000 1.500000
v 1.500000 12.000000 1.500000
v 3.500000 12.000000 1.500000
v 3.500000 12.000000 1.500000
v 1.500000 13.000000 -2.500000
v 1.500000 13.000000 -2.500000
v 1.500000 13.000000 -2.500000
v 1.500000 12.000000 -2.500000
v 1.500000 12.000000 -2.500000
v 3.500000 13.000000 -2.500000
v 3.500000 13.000000 -2.500000
v 3.500000 13.000000 -2.500000
v 3.500000 12.000000 -2.500000
v 3.500000 12.000000 -2.500000
# num_vertices: 193

vn 0.000000 -1.000000 0.000000
vn 0.000000 -1.000000 0.000000
vn 0.000000 -1.000000 0.000000
vn 0.000000 -1.000000 0.000000
vn 0.000000 0.000000 1.000000
vn -1.000000 0.000000 0.000000
vn -1.000000 0.000000 0.000000
vn 0.000000 1.000000 0.000000
vn 0.000000 0.000000 1.000000
vn 0.000000 1.000000 0.000000
vn 1.000000 0.000000 0.000000
vn 0.000000 0.000000 1.000000
vn 0.707107 0.000000 -0.707107
vn 0.000000 0.000000 -1.000000
vn 0.000000 1.000000 0.000000
vn 0.707107 0.000000 -0.707107
vn 1.000000 0.000000 0.000000
vn 0.000000 -1.000000 0.000000
vn 0.707107 0.000000 -0.707107
vn 0.000000 0.000000 -1.000000
vn 0.000000 -1.000000 0.000000
vn 0.707107 0.000000 -0.707107
vn 1.000000 0.000000 0.000000
vn 0.000000 1.000000 0.000000
vn 1.000000 0.000000 0.000000
vn 0.707107 0.000000 0.707107
vn 0.000000 1.000000 0.000000
vn 1.000000 0.000000 0.000000
vn 0.707107 0.000000 0.707107
vn 0.000000 -1.000000 0.000000
vn 0.000000 0.000000 -1.000000
vn -0.707107 0.000000 -0.707107
vn 0.000000 1.000000 0.000000
vn 0.000000 0.000000 -1.000000
vn -0.707107 0.000000 -0.707107
vn 0.000000 -1.000000 0.000000
vn -1.000000 0.000000 0.000000
vn 0.000000 1.000000 0.000000
vn 0.000000 0.000000 -1.000000
vn 0.000000 1.000000 0.000000
vn 1.000000 0.000000 0.000000
vn 0.000000 0.000000 -1.000000
vn 0.000000 0.000000 1.000000
vn 1.000000 0.000000 0.000000
vn 0.000000 0.000000 -1.000000
vn 1.000000 0.000000 0.000000
vn 0.000000 0.000000 -1.000000
vn -1.000000 0.000000 0.000000
vn 0.707107 0.000000 0.707107
vn 0.000000 0.000000 1.000000
vn 0.000000 1.000000 0.000000
vn 0.707107 0.000000 0.707107
vn 0.000000 0.000000 1.000000
vn 0.000000 -1.000000 0.000000
vn 0.000000 0.000000 1.000000
vn -0.707107 0.000000 0.707107
vn 0.000000 1.000000 0.000000
vn 0.000000 0.000000 1.000000
vn -0.707107 0.000000 0.707107
vn 0.000000 -1.000000 0.000000
vn -0.707107 0.000000 -0.707107
vn -1.000000 0.000000 0.000000
vn 0.000000 1.000000 0.000000
vn -0.707107 0.000000 -0.707107
vn -1.000000 0.000000 0.000000
vn 0.000000 -1.000000 0.000000
vn -1.000000 0.000000 0.000000
vn -0.707107 0.000000 0.707107
vn 0.000000 1.000000 0.000000
vn -1.000000 0.000000 0.000000
vn -0.707107 0.000000 0.707107
vn 0.000000 -1.000000 0.000000
vn 0.000000 0.000000 1.000000
vn -1.000000 0.000000 0.000000
vn 0.000000 1.000000 0.000000
vn 0.000000 0.000000 1.000000
vn 0.000000 -1.000000 0.000000
vn 1.000000 0.000000 0.000000
vn 0.000000 0.000000 1.000000
vn 0.000000 1.000000 0.000000
vn 0.000000 -1.000000 0.000000
vn 0.000000 0.000000 -1.000000
vn 0.000000 0.000000 -1.000000
vn 1.000000 0.000000 0.000000
vn 0.000000 1.000000 0.000000
vn 0.000000 0.000000 1.000000
vn 0.000000 1.000000 0.000000
vn -1.000000 0.000000 0.000000
vn 0.000000 0.000000 1.000000
vn -1.000000 0.000000 0.000000
vn 0.000000 1.000000 0.000000
vn 1.000000 0.000000 0.000000
vn 0.000000 0.000000 1.000000
vn -1.000000 0.000000 0.000000
vn 0.000000 1.000000 0.000000
vn 0.000000 0.000000 1.000000
vn 0.000000 0.000000 1.000000
vn -1.000000 0.000000 0.000000
vn 0.000000 0.000000 1.000000
vn 0.000000 -1.000000 0.000000
vn 1.000000 0.000000 0.000000
vn -1.000000 0.000000 0.000000
vn 0.000000 1.000000 0.000000
vn 0.000000 0.000000 -1.000000
vn 0.000000 -1.000000 0.000000
vn 0.000000 0.000000 -1.000000
vn 1.000000 0.000000 0.000000
vn 0.000000 0.000000 1.000000
vn 0.000000 -1.000000 0.000000
vn -1.000000 0.000000 0.000000
vn 1.000000 0.000000 0.000000
vn 0.000000 0.000000 1.000000
vn 0.000000 -1.000000 0.000000
vn 0.000000 0.000000 -1.000000
vn 0.000000 1.000000 0.000000
vn -1.000000 0.000000 0.000000
vn 0.000000 0.000000 1.000000
vn 0.000000 -1.000000 0.000000
vn 1.000000 0.000000 0.000000
vn -1.000000 0.000000 0.000000
vn 0.000000 0.000000 -1.000000
vn 0.000000 1.000000 0.000000
vn 0.000000 1.000000 0.000000
vn 1.000000 0.000000 0.000000
vn 0.000000 0.000000 -1.000000
vn 0.000000 0.000000 -1.000000
vn 0.000000 1.000000 0.000000
vn 1.000000 0.000000 0.000000
vn 1.000000 0.000000 0.000000
vn 0.000000 0.000000 -1.000000
vn 0.000000 -1.000000 0.000000
vn 0.000000 0.000000 1.000000
vn 0.000000 1.000000 0.000000
vn 1.000000 0.000000 0.000000
vn 1.000000 0.000000 0.000000
vn 0.000000 -1.000000 0.000000
vn 0.000000 0.000000 1.000000
vn 0.000000 -1.000000 0.000000
vn -1.000000 0.000000 0.000000
vn 0.000000 0.000000 1.000000
vn 0.000000 0.000000 -1.000000
vn 1.000000 0.000000 0.000000
vn 0.000000 -1.000000 0.000000
vn 0.000000 0.000000 1.000000
vn 0.000000 -1.000000 0.000000
vn 0.000000 -0.832050 0.554700
vn -1.000000 0.000000 0.000000
vn 0.000000 0.000000 -1.000000
vn -1.000000 0.000000 0.000000
vn 1.000000 0.000000 0.000000
vn 0.000000 -1.000000 0.000000
vn 0.000000 0.000000 1.000000
vn -1.000000 0.000000 0.000000
vn 0.000000 -1.000000 0.000000
vn -1.000000 0.000000 0.000000
vn 0.000000 0.000000 -1.000000
vn 0.000000 -1.000000 0.000000
vn 0.000000 -1.000000 0.000000
vn 1.000000 0.000000 0.000000
vn 0.000000 0.000000 -1.000000
vn 1.000000 0.000000 0.000000
vn 0.000000 -1.000000 0.000000
vn 0.000000 0.000000 1.000000
vn -1.000000 0.000000 0.000000
vn 0.000000 0.000000 -1.000000
vn 0.000000 0.000000 -1.000000
vn 0.000000 -1.000000 0.000000
vn 0.000000 0.000000 -1.000000
vn 0.000000 -1.000000 0.000000
vn 1.000000 0.000000 0.000000
vn 0.000000 0.000000 -1.000000
vn -1.000000 0.000000 0.000000
vn 0.000000 0.000000 -1.000000
vn 0.000000 0.000000 1.000000
vn 1.000000 0.000000 0.000000
vn 0.000000 1.000000 0.000000
vn 0.000000 0.000000 1.000000
vn -1.000000 0.000000 0.000000
vn 0.000000 1.000000 0.000000
vn 0.000000 0.000000 1.000000
vn -1.000000 0.000000 0.000000
vn 0.000000 0.000000 1.000000
vn 1.000000 0.000000 0.000000
vn -1.000000 0.000000 0.000000
vn 0.000000 0.000000 -1.000000
vn 0.000000 1.000000 0.000000
vn -1.000000 0.000000 0.000000
vn 0.000000 0.000000 -1.000000
vn 0.000000 0.000000 -1.000000
vn 1.000000 0.000000 0.000000
vn 0.000000 1.000000 0.000000
vn 0.000000 0.000000 -1.000000
vn 1.000000 0.000000 0.000000
# num_vertex_normals: 193

vt -19.000000 19.437500
vt -19.000000 19.312500
vt -18.937500 19.312500
vt 18.937500 19.312500
vt 18.875000 19.265625
vt 18.937500 19.265625
vt 18.937500 19.312500
vt 18.875000 19.312500
vt 18.875000 19.265625
vt -23.000000 19.312500
vt -22.937500 19.265625
vt -22.937500 19.312500
vt -23.000000 19.312500
vt -23.000000 19.265625
vt -22.937500 19.265625
vt 19.000000 19.312500
vt 18.937500 19.265625
vt 19.000000 19.265625
vt 19.000000 19.312500
vt 18.937500 19.312500
vt 18.937500 19.265625
vt 22.875000 -17.937500
vt 22.937500 -18.000000
vt 22.937500 -17.937500
vt 22.875000 -17.937500
vt 22.875000 -18.000000
vt 22.937500 -18.000000
vt -23.000000 19.437500
vt -22.937500 19.312500
vt -22.937500 19.437500
vt -23.000000 19.437500
vt -23.000000 19.312500
vt -22.937500 19.312500
vt 23.000000 19.312500
vt 22.937500 19.437500
vt 22.937500 19.312500
vt 23.000000 19.312500
vt 23.000000 19.437500
vt 22.937500 19.437500
vt 19.000000 19.312500
vt 18.937500 19.437500
vt 18.937500 19.312500
vt 19.000000 19.312500
vt 19.000000 19.437500
vt 18.937500 19.437500
vt -19.000000 19.437500
vt -18.937500 19.312500
vt -18.937500 19.437500
vt -18.937500 19.312500
vt -18.875000 19.265625
vt -18.875000 19.312500
vt -18.937500 19.312500
vt -18.937500 19.265625
vt -18.875000 19.265625
vt -19.000000 19.312500
vt -18.937500 19.265625
vt -18.937500 19.312500
vt -19.000000 19.312500
vt -19.000000 19.265625
vt -18.937500 19.265625
vt 23.000000 -17.937500
vt 23.062500 -18.000000
vt 23.062500 -17.937500
vt 23.000000 -17.937500
vt 23.000000 -18.000000
vt 23.062500 -18.000000
vt 19.062500 19.312500
vt 19.000000 19.265625
vt 19.062500 19.265625
vt 19.062500 19.312500
vt 19.000000 19.312500
vt 19.000000 19.265625
vt 22.937500 19.265625
vt 23.000000 19.312500
vt 22.937500 19.312500
vt 22.937500 19.265625
vt 23.000000 19.265625
vt 23.000000 19.312500
vt -19.062500 19.312500
vt -19.000000 19.265625
vt -19.000000 19.312500
vt -19.062500 19.312500
vt -19.062500 19.265625
vt -19.000000 19.265625
vt 22.875000 -17.937500
vt 23.000000 -17.875000
vt 22.937500 -17.875000
vt 23.000000 -17.937500
vt 23.062500 -17.937500
vt 23.000000 -17.875000
vt 22.937500 -17.937500
vt 23.000000 -17.937500
vt 23.000000 -17.875000
vt 22.875000 -17.937500
vt 22.937500 -17.937500
vt 23.000000 -17.875000
vt 23.062500 20.000000
vt 23.000000 19.875000
vt 23.062500 19.937500
vt 23.062500 20.000000
vt 22.937500 19.875000
vt 23.000000 19.875000
vt 23.062500 20.000000
vt 22.875000 19.937500
vt 22.937500 19.875000
vt 23.062500 20.000000
vt 22.875000 20.000000
vt 22.875000 19.937500
vt 23.062500 20.000000
vt 22.937500 20.062500
vt 22.875000 20.000000
vt 23.062500 20.000000
vt 23.000000 20.062500
vt 22.937500 20.062500
vt 22.937500 -18.000000
vt 22.875000 -18.000000
vt 22.937500 -18.062500
vt 23.000000 -18.000000
vt 22.937500 -18.000000
vt 22.937500 -18.062500
vt 22.937500 -18.062500
vt 23.062500 -18.000000
vt 23.000000 -18.000000
vt 22.937500 -18.062500
vt 23.000000 -18.062500
vt 23.062500 -18.000000
vt 23.062500 -18.062500
vt 23.062500 -17.875000
vt 22.875000 -17.875000
vt -18.906250 19.625000
vt -18.906250 19.437500
vt -18.875000 19.437500
vt -18.875000 19.531250
vt -19.031250 19.531250
vt -19.031250 19.500000
vt -18.875000 19.437500
vt -18.843750 19.437500
vt -18.906250 19.625000
vt 23.093750 19.500000
vt 23.093750 19.531250
vt 23.062500 19.531250
vt 23.062500 19.875000
vt 22.875000 19.875000
vt 22.875000 19.843750
vt -18.875000 19.437500
vt -19.062500 19.437500
vt -19.062500 19.406250
vt -22.875000 19.437500
vt -23.062500 19.437500
vt -23.062500 19.406250
vt 23.062500 19.437500
vt 23.062500 19.625000
vt 22.875000 19.625000
vt -18.875000 19.531250
vt -19.031250 19.500000
vt -19.000000 19.500000
vt 23.062500 -18.062500
vt 22.875000 -17.875000
vt 22.875000 -18.062500
vt 23.093750 -18.031250
vt 23.093750 -17.875000
vt 23.062500 -17.875000
vt 18.843750 19.625000
vt 18.843750 19.437500
vt 18.875000 19.437500
vt -23.093750 19.531250
vt -23.062500 19.500000
vt -23.062500 19.531250
vt -18.906250 19.625000
vt -18.843750 19.437500
vt -18.843750 19.625000
vt -19.031250 19.500000
vt -19.000000 19.406250
vt -19.000000 19.500000
vt 23.093750 19.406250
vt 23.093750 19.500000
vt 23.062500 19.531250
vt 23.062500 19.875000
vt 22.875000 19.843750
vt 23.062500 19.843750
vt 19.062500 19.437500
vt 18.875000 19.437500
vt 18.875000 19.406250
vt 22.875000 -17.906250
vt 23.062500 -17.906250
vt 23.062500 -17.843750
vt -18.937500 19.406250
vt -18.875000 19.406250
vt -18.875000 19.437500
vt -18.875000 19.437500
vt -19.062500 19.406250
vt -19.031250 19.406250
vt -22.875000 19.437500
vt -23.062500 19.406250
vt -22.875000 19.406250
vt 23.062500 19.437500
vt 22.875000 19.625000
vt 22.875000 19.437500
vt -19.000000 19.500000
vt -18.875000 19.500000
vt -18.875000 19.531250
vt 23.000000 19.406250
vt 23.062500 19.406250
vt 23.062500 19.437500
vt 23.062500 19.437500
vt 22.875000 19.437500
vt 22.875000 19.406250
vt 23.093750 -18.031250
vt 23.062500 -17.875000
vt 23.062500 -18.031250
vt 18.875000 19.437500
vt 18.906250 19.437500
vt 18.843750 19.625000
vt 18.906250 19.437500
vt 18.906250 19.625000
vt 18.843750 19.625000
vt -23.093750 19.531250
vt -23.093750 19.500000
vt -23.062500 19.500000
vt 23.093750 19.875000
vt 23.093750 20.000000
vt 23.062500 20.000000
vt -23.093750 19.500000
vt -23.093750 19.406250
vt -23.062500 19.406250
vt -19.031250 19.500000
vt -19.031250 19.406250
vt -19.000000 19.406250
vt 23.093750 19.406250
vt 23.062500 19.531250
vt 23.062500 19.500000
vt 19.000000 19.406250
vt 19.062500 19.406250
vt 19.062500 19.437500
vt 19.062500 19.437500
vt 18.875000 19.406250
vt 18.937500 19.406250
vt 23.062500 19.937500
vt 22.875000 19.875000
vt 23.062500 19.875000
vt 22.875000 -17.906250
vt 23.062500 -17.843750
vt 22.875000 -17.843750
vt -22.875000 19.625000
vt -23.062500 19.437500
vt -22.875000 19.437500
vt -22.875000 19.625000
vt -23.062500 19.625000
vt -23.062500 19.437500
vt -19.000000 19.406250
vt -18.937500 19.406250
vt -18.875000 19.437500
vt -19.031250 19.406250
vt -19.000000 19.406250
vt -18.875000 19.437500
vt 19.031250 19.531250
vt 18.875000 19.531250
vt 18.875000 19.500000
vt 23.062500 19.437500
vt 22.875000 19.406250
vt 23.000000 19.406250
vt 23.062500 20.031250
vt 23.062500 20.062500
vt 23.000000 20.062500
vt 23.093750 19.875000
vt 23.062500 20.000000
vt 23.062500 19.875000
vt 22.875000 20.000000
vt 23.000000 20.062500
vt 22.875000 20.062500
vt 23.062500 20.000000
vt 23.093750 20.031250
vt 23.062500 20.031250
vt 23.062500 20.000000
vt 23.093750 20.000000
vt 23.093750 20.031250
vt -23.062500 19.437500
vt -23.062500 19.500000
vt -23.093750 19.500000
vt -23.093750 19.500000
vt -23.062500 19.406250
vt -23.062500 19.437500
vt 23.062500 19.500000
vt 23.062500 19.437500
vt 23.093750 19.406250
vt 18.937500 19.406250
vt 19.000000 19.406250
vt 19.062500 19.437500
vt 22.937500 19.937500
vt 22.875000 19.937500
vt 22.875000 19.875000
vt 23.062500 19.937500
vt 23.000000 19.937500
vt 22.875000 19.875000
vt 19.000000 19.500000
vt 19.031250 19.500000
vt 19.031250 19.531250
vt 19.031250 19.531250
vt 18.875000 19.500000
vt 19.000000 19.500000
vt 23.062500 20.000000
vt 23.062500 20.031250
vt 23.000000 20.062500
vt 23.062500 19.937500
vt 23.062500 20.000000
vt 23.000000 20.062500
vt 22.875000 19.937500
vt 22.937500 20.000000
vt 22.875000 20.000000
vt 22.875000 19.937500
vt 22.937500 19.937500
vt 22.937500 20.000000
vt 22.875000 20.000000
vt 22.937500 20.000000
vt 23.000000 20.062500
vt 19.031250 19.500000
vt 19.000000 19.437500
vt 19.031250 19.437500
vt 19.031250 19.500000
vt 19.000000 19.500000
vt 19.000000 19.437500
vt 23.062500 19.437500
vt 23.062500 19.406250
vt 23.093750 19.406250
vt 23.000000 19.937500
vt 22.937500 19.937500
vt 22.875000 19.875000
vt 23.000000 20.000000
vt 23.000000 19.937500
vt 23.062500 19.937500
vt 23.062500 19.937500
vt 23.000000 20.062500
vt 23.000000 20.000000
vt 22.937500 20.000000
vt 23.000000 20.000000
vt 23.000000 20.062500
vt -18.843750 19.656250
vt -18.906250 19.656250
vt -18.906250 19.625000
vt -18.843750 19.656250
vt -18.906250 19.625000
vt -18.843750 19.625000
vt 22.906250 -17.906250
vt 23.031250 -17.906250
vt 23.031250 -17.843750
vt 23.031250 19.656250
vt 22.906250 19.625000
vt 23.031250 19.625000
vt 22.906250 -17.906250
vt 23.031250 -17.843750
vt 22.906250 -17.843750
vt -22.906250 19.656250
vt -23.031250 19.656250
vt -23.031250 19.625000
vt 23.031250 19.656250
vt 22.906250 19.656250
vt 22.906250 19.625000
vt 18.906250 19.656250
vt 18.843750 19.625000
vt 18.906250 19.625000
vt 18.906250 19.656250
vt 18.843750 19.656250
vt 18.843750 19.625000
vt -22.906250 19.656250
vt -23.031250 19.625000
vt -22.906250 19.625000
# num_uvs: 366

g Generic

f 5/1/5 9/2/9 12/3/12 
f 13/4/13 16/5/16 19/6/19 
f 13/7/13 22/8/22 16/9/16 
f 25/10/25 17/11/17 23/12/23 
f 25/13/25 28/14/28 17/15/17 
f 31/16/31 20/17/20 34/18/34 
f 31/19/31 14/20/14 20/21/20 
f 15/22/15 38/23/38 40/24/40 
f 15/25/15 33/26/33 38/27/38 
f 44/28/44 41/29/41 46/30/46 
f 44/31/44 11/32/11 41/33/41 
f 7/34/7 48/35/48 37/36/37 
f 7/37/7 6/38/6 48/39/48 
f 39/40/39 45/41/45 42/42/42 
f 39/43/39 47/44/47 45/45/45 
f 5/46/5 12/47/12 43/48/43 
f 49/49/49 29/50/29 26/51/26 
f 49/52/49 52/53/52 29/54/29 
f 55/55/55 53/56/53 50/57/50 
f 55/58/55 58/59/58 53/60/53 
f 10/61/10 57/62/57 51/63/51 
f 10/64/10 8/65/8 57/66/57 
f 61/67/61 35/68/35 64/69/64 
f 61/70/61 32/71/32 35/72/35 
f 65/73/65 67/74/67 62/75/62 
f 65/76/65 70/77/70 67/78/67 
f 68/79/68 59/80/59 56/81/56 
f 68/82/68 71/83/71 59/84/59 
f 15/85/15 27/86/27 24/87/24 
f 10/88/10 51/89/51 27/90/27 
f 40/91/40 10/92/10 27/93/27 
f 15/94/15 40/95/40 27/96/27 
f 60/97/60 30/98/30 54/99/54 
f 60/100/60 18/101/18 30/102/30 
f 60/103/60 21/104/21 18/105/18 
f 60/106/60 36/107/36 21/108/21 
f 60/109/60 66/110/66 36/111/36 
f 60/112/60 72/113/72 66/114/66 
f 38/115/38 33/116/33 63/117/63 
f 8/118/8 38/119/38 63/120/63 
f 63/121/63 57/122/57 8/123/8 
f 63/124/63 69/125/69 57/126/57 
f 75/127/75 80/128/80 85/129/85 
f 86/130/86 89/131/89 76/132/76 
f 93/133/93 96/134/96 97/135/97 
f 76/136/76 99/137/99 86/138/86 
f 98/139/98 94/140/94 102/141/102 
f 77/142/77 81/143/81 105/144/105 
f 79/145/79 73/146/73 108/147/108 
f 84/148/84 78/149/78 111/150/111 
f 90/151/90 88/152/88 116/153/116 
f 93/154/93 97/155/97 117/156/117 
f 75/157/75 85/158/85 122/159/122 
f 95/160/95 91/161/91 123/162/123 
f 126/163/126 106/164/106 82/165/82 
f 92/166/92 129/167/129 124/168/124 
f 86/169/86 99/170/99 132/171/132 
f 97/172/97 137/173/137 117/174/117 
f 139/175/139 98/176/98 102/177/102 
f 77/178/77 105/179/105 100/180/100 
f 121/181/121 83/182/83 141/183/141 
f 115/184/115 87/185/87 133/186/133 
f 144/187/144 112/188/112 79/189/79 
f 79/190/79 108/191/108 146/192/146 
f 84/193/84 111/194/111 142/195/142 
f 90/196/90 116/197/116 149/198/149 
f 117/199/117 152/200/152 93/201/93 
f 153/202/153 110/203/110 74/204/74 
f 74/205/74 120/206/120 155/207/155 
f 95/208/95 123/209/123 103/210/103 
f 82/211/82 148/212/148 126/213/126 
f 148/214/148 114/215/114 126/216/126 
f 92/217/92 150/218/150 129/219/129 
f 151/220/151 118/221/118 158/222/158 
f 119/223/119 135/224/135 161/225/161 
f 97/226/97 140/227/140 137/228/137 
f 139/229/139 102/230/102 164/231/164 
f 166/232/166 156/233/156 121/234/121 
f 121/235/121 141/236/141 168/237/168 
f 145/238/145 143/239/143 113/240/113 
f 115/241/115 133/242/133 127/243/127 
f 128/244/128 101/245/101 107/246/107 
f 128/247/128 134/248/134 101/249/101 
f 163/250/163 144/251/144 79/252/79 
f 146/253/146 163/254/163 79/255/79 
f 104/256/104 125/257/125 130/258/130 
f 74/259/74 155/260/155 153/261/153 
f 146/262/146 109/263/109 154/264/154 
f 151/265/151 158/266/158 131/267/131 
f 167/268/167 154/269/154 157/270/157 
f 162/271/162 138/272/138 146/273/146 
f 162/274/162 136/275/136 138/276/138 
f 170/277/170 159/278/159 119/279/119 
f 119/280/119 161/281/161 170/282/170 
f 164/283/164 172/284/172 139/285/139 
f 168/286/168 166/287/166 121/288/121 
f 1/289/1 169/290/169 143/291/143 
f 145/292/145 2/293/2 143/294/143 
f 160/295/160 165/296/165 104/297/104 
f 104/298/104 130/299/130 160/300/160 
f 162/301/162 146/302/146 154/303/154 
f 145/304/145 162/305/162 154/306/154 
f 169/307/169 3/308/3 167/309/167 
f 169/310/169 1/311/1 3/312/3 
f 167/313/167 3/314/3 154/315/154 
f 165/316/165 171/317/171 173/318/173 
f 165/319/165 160/320/160 171/321/171 
f 172/322/172 147/323/147 139/324/139 
f 2/325/2 1/326/1 143/327/143 
f 4/328/4 2/329/2 145/330/145 
f 145/331/145 154/332/154 4/333/4 
f 3/334/3 4/335/4 154/336/154 
f 174/337/174 177/338/177 180/339/180 
f 174/340/174 180/341/180 182/342/182 
f 186/343/186 179/344/179 176/345/176 
f 178/346/178 187/347/187 181/348/181 
f 186/349/186 176/350/176 191/351/191 
f 190/352/190 175/353/175 183/354/183 
f 178/355/178 184/356/184 187/357/187 
f 185/358/185 192/359/192 188/360/188 
f 185/361/185 189/362/189 192/363/192 
f 190/364/190 183/365/183 193/366/193 
# num_faces: 122

