# Wavefront OBJ file
# Creator: Ultimate Unwrap3D Pro v3.35
# Website: http://www.unwrap3d.com
# Time: Wed Jul 03 04:20:47 2013
# num_vertices: 210
# num_vertex_normals: 210
# num_uvs: 242
# num_faces: 63
# num_groups: 2

v 0.020057 1.060000 -0.000000
v 0.020057 0.000000 -0.000000
v -1.323479 4.042494 -1.479049
v -1.323479 4.042494 -1.479049
v -1.323479 4.042494 -1.479049
v 1.972795 4.971408 -1.479049
v 1.972795 4.971408 -1.479049
v 1.972795 4.971408 -1.479049
v -2.097573 5.532547 -1.479049
v -2.097573 5.532547 -1.479049
v -2.097573 5.532547 -1.479049
v 1.972795 5.532547 -1.479049
v 1.972795 5.532547 -1.479049
v 1.972795 5.532547 -1.479049
v -1.323479 4.042494 1.479049
v -1.323479 4.042494 1.479049
v -1.323479 4.042494 1.479049
v 1.972795 4.971408 1.479049
v 1.972795 4.971408 1.479049
v 1.972795 4.971408 1.479049
v -2.097573 5.532547 1.479049
v -2.097573 5.532547 1.479049
v -2.097573 5.532547 1.479049
v 1.972795 5.532547 1.479049
v 1.972795 5.532547 1.479049
v 1.972795 5.532547 1.479049
v 1.999466 5.824177 -2.696007
v 1.999466 5.824177 -2.696007
v 1.999466 5.824177 -2.696007
v 2.808076 6.110125 -2.696007
v 2.808076 6.110125 -2.696007
v 2.808076 6.110125 -2.696007
v 0.956775 8.458704 -2.696007
v 1.866307 8.458704 -2.696007
v 1.999466 5.824177 2.696007
v 1.999466 5.824177 2.696007
v 1.999466 5.824177 2.696007
v 2.808076 6.110125 2.696007
v 2.808076 6.110125 2.696007
v 2.808076 6.110125 2.696007
v 0.956775 8.458704 2.696007
v 1.866307 8.458704 2.696007
v 2.374037 12.685137 2.696007
v 1.777924 12.819468 2.696007
v 2.374037 12.685137 -2.696007
v 1.777924 12.819468 -2.696007
v 2.867786 13.138170 2.696007
v 2.867786 13.138170 2.696007
v 2.867786 13.138170 2.696007
v 2.469392 13.407988 2.696007
v 2.469392 13.407988 2.696007
v 2.469392 13.407988 2.696007
v 2.867786 13.138170 -2.696007
v 2.867786 13.138170 -2.696007
v 2.867786 13.138170 -2.696007
v 2.469392 13.407988 -2.696007
v 2.469392 13.407988 -2.696007
v 2.469392 13.407988 -2.696007
v -3.158124 5.637875 -2.836543
v -3.158124 5.637875 -2.836543
v -3.158124 5.637875 -2.836543
v 1.756855 5.637875 -2.836543
v 1.756855 5.637875 -2.836543
v 1.756855 5.637875 -2.836543
v -3.158124 6.697875 -2.836543
v -3.158124 6.697875 -2.836543
v -3.158124 6.697875 -2.836543
v 1.756855 6.697875 -2.836543
v 1.756855 6.697875 -2.836543
v 1.756855 6.697875 -2.836543
v -3.158124 5.637875 2.836543
v -3.158124 5.637875 2.836543
v -3.158124 5.637875 2.836543
v 1.756855 5.637875 2.836543
v 1.756855 5.637875 2.836543
v 1.756855 5.637875 2.836543
v -3.158124 6.697875 2.836543
v -3.158124 6.697875 2.836543
v -3.158124 6.697875 2.836543
v 1.756855 6.697875 2.836543
v 1.756855 6.697875 2.836543
v 1.756855 6.697875 2.836543
v -3.158124 5.637875 0.000000
v -3.158124 5.637875 0.000000
v 1.756855 5.637875 0.000000
v 1.756855 5.637875 0.000000
v 1.756855 6.579394 0.000000
v -3.158124 6.579394 0.000000
v -1.961673 8.365066 2.891243
v -1.961673 8.365066 2.891243
v -1.961673 8.365066 2.891243
v 0.680283 8.365066 2.891243
v 0.680283 8.365066 2.891243
v 0.680283 8.365066 2.891243
v -1.961673 8.908734 2.891243
v -1.961673 8.908734 2.891243
v -1.961673 8.908734 2.891243
v 0.680283 8.908734 2.891243
v 0.680283 8.908734 2.891243
v 0.680283 8.908734 2.891243
v -1.961673 8.365066 3.700454
v -1.961673 8.365066 3.700454
v -1.961673 8.365066 3.700454
v 0.680283 8.365066 3.700454
v 0.680283 8.365066 3.700454
v 0.680283 8.365066 3.700454
v -1.961673 8.908734 3.700454
v -1.961673 8.908734 3.700454
v -1.961673 8.908734 3.700454
v 0.680283 8.908734 3.700454
v 0.680283 8.908734 3.700454
v 0.680283 8.908734 3.700454
v -0.530000 1.060000 -0.530000
v -0.530000 1.060000 -0.530000
v -0.530000 1.060000 -0.530000
v 0.530000 1.060000 -0.530000
v 0.530000 1.060000 -0.530000
v 0.530000 1.060000 -0.530000
v -0.530000 5.138917 -0.530000
v -0.530000 5.138917 -0.530000
v -0.530000 5.138917 -0.530000
v 0.530000 5.138917 -0.530000
v 0.530000 5.138917 -0.530000
v 0.530000 5.138917 -0.530000
v -0.530000 1.060000 0.530000
v -0.530000 1.060000 0.530000
v -0.530000 1.060000 0.530000
v 0.530000 1.060000 0.530000
v 0.530000 1.060000 0.530000
v 0.530000 1.060000 0.530000
v -0.530000 5.138917 0.530000
v -0.530000 5.138917 0.530000
v -0.530000 5.138917 0.530000
v 0.530000 5.138917 0.530000
v 0.530000 5.138917 0.530000
v 0.530000 5.138917 0.530000
v -4.308451 0.000000 -0.000000
v -4.308451 0.000000 -0.000000
v -4.308451 0.000000 -0.000000
v -4.308451 1.060000 -0.000000
v -4.308451 1.060000 -0.000000
v -4.308451 1.060000 -0.000000
v -1.317526 0.000000 -4.116656
v -1.317526 0.000000 -4.116656
v -1.317526 0.000000 -4.116656
v -1.317526 1.060000 -4.116656
v -1.317526 1.060000 -4.116656
v -1.317526 1.060000 -4.116656
v 3.521894 0.000000 -2.544234
v 3.521894 0.000000 -2.544234
v 3.521894 0.000000 -2.544234
v 3.521894 1.060000 -2.544234
v 3.521894 1.060000 -2.544234
v 3.521894 1.060000 -2.544234
v 3.521894 0.000000 2.544233
v 3.521894 0.000000 2.544233
v 3.521894 0.000000 2.544233
v 3.521894 1.060000 2.544233
v 3.521894 1.060000 2.544233
v 3.521894 1.060000 2.544233
v -1.317526 0.000000 4.116656
v -1.317526 0.000000 4.116656
v -1.317526 0.000000 4.116656
v -1.317526 1.060000 4.116656
v -1.317526 1.060000 4.116656
v -1.317526 1.060000 4.116656
v -1.961673 8.365066 -3.700452
v -1.961673 8.365066 -3.700452
v -1.961673 8.365066 -3.700452
v 0.680283 8.365066 -3.700452
v 0.680283 8.365066 -3.700452
v 0.680283 8.365066 -3.700452
v -1.961673 8.908734 -3.700452
v -1.961673 8.908734 -3.700452
v -1.961673 8.908734 -3.700452
v 0.680283 8.908734 -3.700452
v 0.680283 8.908734 -3.700452
v 0.680283 8.908734 -3.700452
v -1.961673 8.365066 -2.891242
v -1.961673 8.365066 -2.891242
v -1.961673 8.365066 -2.891242
v 0.680283 8.365066 -2.891242
v 0.680283 8.365066 -2.891242
v 0.680283 8.365066 -2.891242
v -1.961673 8.908734 -2.891242
v -1.961673 8.908734 -2.891242
v -1.961673 8.908734 -2.891242
v 0.680283 8.908734 -2.891242
v 0.680283 8.908734 -2.891242
v 0.680283 8.908734 -2.891242
v 0.956775 8.458704 -2.696007
v 0.956775 8.458704 -2.696007
v 1.866307 8.458704 -2.696007
v 1.866307 8.458704 -2.696007
v 0.956775 8.458704 2.696007
v 0.956775 8.458704 2.696007
v 1.866307 8.458704 2.696007
v 1.866307 8.458704 2.696007
v 2.374037 12.685137 2.696007
v 2.374037 12.685137 2.696007
v 1.777924 12.819468 2.696007
v 1.777924 12.819468 2.696007
v 2.374037 12.685137 -2.696007
v 2.374037 12.685137 -2.696007
v 1.777924 12.819468 -2.696007
v 1.777924 12.819468 -2.696007
v 1.756855 6.579394 0.000000
v 1.756855 6.579394 0.000000
v -3.158124 6.579394 0.000000
v -3.158124 6.579394 0.000000
# num_vertices: 210

vn 0.000000 1.000000 0.000000
vn 0.000000 -1.000000 0.000000
vn 0.000000 0.000000 -1.000000
vn -0.887396 -0.461009 0.000000
vn 0.271243 -0.962511 0.000000
vn 0.000000 0.000000 -1.000000
vn 1.000000 0.000000 0.000000
vn 0.271243 -0.962511 0.000000
vn 0.000000 0.000000 -1.000000
vn -0.887396 -0.461009 0.000000
vn 0.000000 1.000000 0.000000
vn 0.000000 0.000000 -1.000000
vn 1.000000 0.000000 0.000000
vn 0.000000 1.000000 0.000000
vn 0.000000 0.000000 1.000000
vn -0.887396 -0.461009 0.000000
vn 0.271243 -0.962511 0.000000
vn 0.000000 0.000000 1.000000
vn 1.000000 0.000000 0.000000
vn 0.271243 -0.962511 0.000000
vn 0.000000 0.000000 1.000000
vn -0.887396 -0.461009 0.000000
vn 0.000000 1.000000 0.000000
vn 0.000000 0.000000 1.000000
vn 1.000000 0.000000 0.000000
vn 0.000000 1.000000 0.000000
vn 0.000000 0.000000 -1.000000
vn 0.333397 -0.942787 0.000000
vn -0.929824 -0.368005 0.000000
vn 0.000000 0.000000 -1.000000
vn 0.333397 -0.942787 0.000000
vn 0.928158 0.372187 0.000000
vn 0.000000 0.000000 -1.000000
vn 0.000000 0.000000 -1.000000
vn 0.000000 0.000000 1.000000
vn 0.333397 -0.942787 0.000000
vn -0.929824 -0.368005 0.000000
vn 0.000000 0.000000 1.000000
vn 0.333397 -0.942787 0.000000
vn 0.928158 0.372187 0.000000
vn 0.000000 0.000000 1.000000
vn 0.000000 0.000000 1.000000
vn 0.000000 0.000000 1.000000
vn 0.000000 0.000000 1.000000
vn 0.000000 0.000000 -1.000000
vn 0.000000 0.000000 -1.000000
vn 0.560759 0.827979 0.000000
vn 0.000000 0.000000 1.000000
vn 0.676073 -0.736834 0.000000
vn 0.560759 0.827979 0.000000
vn 0.000000 0.000000 1.000000
vn -0.648142 0.761520 0.000000
vn 0.560759 0.827979 0.000000
vn 0.000000 0.000000 -1.000000
vn 0.676073 -0.736834 0.000000
vn 0.560759 0.827979 0.000000
vn 0.000000 0.000000 -1.000000
vn -0.648142 0.761520 0.000000
vn 0.000000 0.000000 -1.000000
vn -1.000000 0.000000 0.000000
vn 0.000000 -1.000000 0.000000
vn 0.000000 0.000000 -1.000000
vn 1.000000 0.000000 0.000000
vn 0.000000 -1.000000 0.000000
vn 0.000000 0.000000 -1.000000
vn -1.000000 0.000000 0.000000
vn 0.000000 0.999129 0.041733
vn 0.000000 0.000000 -1.000000
vn 1.000000 0.000000 0.000000
vn 0.000000 0.999129 0.041733
vn 0.000000 0.000000 1.000000
vn -1.000000 0.000000 0.000000
vn 0.000000 -1.000000 0.000000
vn 0.000000 0.000000 1.000000
vn 1.000000 0.000000 0.000000
vn 0.000000 -1.000000 0.000000
vn 0.000000 0.000000 1.000000
vn -1.000000 0.000000 0.000000
vn 0.000000 0.999129 -0.041733
vn 0.000000 0.000000 1.000000
vn 1.000000 0.000000 0.000000
vn 0.000000 0.999129 -0.041733
vn -1.000000 0.000000 0.000000
vn 0.000000 -1.000000 0.000000
vn 1.000000 0.000000 0.000000
vn 0.000000 -1.000000 0.000000
vn 1.000000 0.000000 0.000000
vn -1.000000 0.000000 0.000000
vn 0.000000 0.000000 -1.000000
vn -1.000000 0.000000 0.000000
vn 0.000000 -1.000000 0.000000
vn 0.000000 0.000000 -1.000000
vn 1.000000 0.000000 0.000000
vn 0.000000 -1.000000 0.000000
vn 0.000000 0.000000 -1.000000
vn -1.000000 0.000000 0.000000
vn 0.000000 1.000000 0.000000
vn 0.000000 0.000000 -1.000000
vn 1.000000 0.000000 0.000000
vn 0.000000 1.000000 0.000000
vn 0.000000 0.000000 1.000000
vn -1.000000 0.000000 0.000000
vn 0.000000 -1.000000 0.000000
vn 0.000000 0.000000 1.000000
vn 1.000000 0.000000 0.000000
vn 0.000000 -1.000000 0.000000
vn 0.000000 0.000000 1.000000
vn -1.000000 0.000000 0.000000
vn 0.000000 1.000000 0.000000
vn 0.000000 0.000000 1.000000
vn 1.000000 0.000000 0.000000
vn 0.000000 1.000000 0.000000
vn 0.000000 0.000000 -1.000000
vn 0.000000 -1.000000 0.000000
vn -1.000000 0.000000 0.000000
vn 0.000000 -1.000000 0.000000
vn 1.000000 0.000000 0.000000
vn 0.000000 0.000000 -1.000000
vn 0.000000 1.000000 0.000000
vn -1.000000 0.000000 0.000000
vn 0.000000 0.000000 -1.000000
vn 1.000000 0.000000 0.000000
vn 0.000000 1.000000 0.000000
vn 0.000000 0.000000 -1.000000
vn 0.000000 -1.000000 0.000000
vn -1.000000 0.000000 0.000000
vn 0.000000 0.000000 1.000000
vn 0.000000 -1.000000 0.000000
vn 1.000000 0.000000 0.000000
vn 0.000000 0.000000 1.000000
vn 0.000000 1.000000 0.000000
vn -1.000000 0.000000 0.000000
vn 0.000000 0.000000 1.000000
vn 1.000000 0.000000 0.000000
vn 0.000000 1.000000 0.000000
vn 0.000000 0.000000 1.000000
vn -0.809017 0.000000 -0.587785
vn -0.809017 0.000000 0.587785
vn 0.000000 -1.000000 0.000000
vn -0.809017 0.000000 -0.587785
vn -0.809017 0.000000 0.587785
vn 0.000000 1.000000 0.000000
vn -0.809017 0.000000 -0.587785
vn 0.309017 0.000000 -0.951057
vn 0.000000 -1.000000 0.000000
vn -0.809017 0.000000 -0.587785
vn 0.309017 0.000000 -0.951057
vn 0.000000 1.000000 0.000000
vn 0.309017 0.000000 -0.951057
vn 1.000000 0.000000 0.000000
vn 0.000000 -1.000000 0.000000
vn 0.309017 0.000000 -0.951057
vn 1.000000 0.000000 0.000000
vn 0.000000 1.000000 0.000000
vn 1.000000 0.000000 0.000000
vn 0.309017 0.000000 0.951057
vn 0.000000 -1.000000 0.000000
vn 1.000000 0.000000 0.000000
vn 0.309017 0.000000 0.951057
vn 0.000000 1.000000 0.000000
vn 0.309017 0.000000 0.951057
vn -0.809017 0.000000 0.587785
vn 0.000000 -1.000000 0.000000
vn 0.309017 0.000000 0.951057
vn -0.809017 0.000000 0.587785
vn 0.000000 1.000000 0.000000
vn 0.000000 0.000000 -1.000000
vn -1.000000 0.000000 0.000000
vn 0.000000 -1.000000 0.000000
vn 0.000000 0.000000 -1.000000
vn 1.000000 0.000000 0.000000
vn 0.000000 -1.000000 0.000000
vn 0.000000 0.000000 -1.000000
vn -1.000000 0.000000 0.000000
vn 0.000000 1.000000 0.000000
vn 0.000000 0.000000 -1.000000
vn 1.000000 0.000000 0.000000
vn 0.000000 1.000000 0.000000
vn 0.000000 0.000000 1.000000
vn -1.000000 0.000000 0.000000
vn 0.000000 -1.000000 0.000000
vn 0.000000 0.000000 1.000000
vn 1.000000 0.000000 0.000000
vn 0.000000 -1.000000 0.000000
vn 0.000000 0.000000 1.000000
vn -1.000000 0.000000 0.000000
vn 0.000000 1.000000 0.000000
vn 0.000000 0.000000 1.000000
vn 1.000000 0.000000 0.000000
vn 0.000000 1.000000 0.000000
vn -0.929824 -0.368005 0.000000
vn -0.982729 0.185052 0.000000
vn 0.928158 0.372187 0.000000
vn 0.992861 -0.119274 0.000000
vn -0.929824 -0.368005 0.000000
vn -0.982729 0.185052 0.000000
vn 0.928158 0.372187 0.000000
vn 0.992861 -0.119274 0.000000
vn 0.676073 -0.736834 0.000000
vn 0.992861 -0.119274 0.000000
vn -0.648142 0.761520 0.000000
vn -0.982729 0.185052 0.000000
vn 0.676073 -0.736834 0.000000
vn 0.992861 -0.119274 0.000000
vn -0.648142 0.761520 0.000000
vn -0.982729 0.185052 0.000000
vn 0.000000 0.999129 0.041733
vn 0.000000 0.999129 -0.041733
vn 0.000000 0.999129 0.041733
vn 0.000000 0.999129 -0.041733
# num_vertex_normals: 210

vt 0.004950 0.507109
vt 0.071019 0.507109
vt 0.180388 0.895210
vt 0.004950 0.986351
vt 0.526506 0.492891
vt 0.460438 0.492891
vt 0.460438 0.013649
vt 0.635875 0.104790
vt 0.004950 0.401750
vt 0.114320 0.013649
vt 0.449547 0.108118
vt 0.340178 0.496219
vt 0.538168 0.507109
vt 0.604236 0.507109
vt 0.604236 0.855393
vt 0.538168 0.855393
vt 0.995049 0.013649
vt 0.995049 0.492891
vt 0.646766 0.492891
vt 0.646766 0.013649
vt 0.366716 0.907316
vt 0.191278 0.816175
vt 0.351840 0.507109
vt 0.527278 0.598251
vt 0.164953 0.157627
vt 0.114267 0.031227
vt 0.157786 0.015837
vt 0.213904 0.157627
vt 0.104587 0.031227
vt 0.053901 0.157627
vt 0.004950 0.157627
vt 0.061068 0.015837
vt 0.313801 0.716233
vt 0.270282 0.700843
vt 0.367033 0.427249
vt 0.410552 0.442639
vt 0.868649 0.015837
vt 0.995049 0.066523
vt 0.887042 0.335872
vt 0.760642 0.285186
vt 0.413805 0.441771
vt 0.435246 0.427249
vt 0.597977 0.667526
vt 0.576536 0.682048
vt 0.650595 0.341787
vt 0.508806 0.285670
vt 0.615600 0.015837
vt 0.757389 0.071955
vt 0.004950 0.157627
vt 0.053901 0.157627
vt 0.081227 0.385093
vt 0.049145 0.392323
vt 0.232416 0.427249
vt 0.267030 0.715375
vt 0.039564 0.742701
vt 0.004950 0.454575
vt 0.164953 0.157627
vt 0.213904 0.157627
vt 0.169709 0.392323
vt 0.137627 0.385093
vt 0.451851 0.015837
vt 0.505553 0.301023
vt 0.270857 0.345217
vt 0.217156 0.060031
vt 0.049145 0.392323
vt 0.081227 0.385093
vt 0.107801 0.409475
vt 0.086359 0.423997
vt 0.004950 0.959781
vt 0.201145 0.745953
vt 0.227719 0.770335
vt 0.031524 0.984163
vt 0.137627 0.385093
vt 0.169709 0.392323
vt 0.132495 0.423997
vt 0.111053 0.409475
vt 0.601229 0.648240
vt 0.789318 0.427249
vt 0.826533 0.458923
vt 0.638444 0.679914
vt 0.004951 0.532271
vt 0.092207 0.532271
vt 0.092207 0.936859
vt 0.004951 0.936859
vt 0.181600 0.936859
vt 0.094344 0.936859
vt 0.094344 0.532271
vt 0.181600 0.532271
vt 0.498931 0.530134
vt 0.094344 0.530134
vt 0.094344 0.296638
vt 0.498931 0.296638
vt 0.501069 0.063141
vt 0.588325 0.063141
vt 0.588325 0.296638
vt 0.510822 0.296638
vt 0.590462 0.063141
vt 0.995049 0.063141
vt 0.995049 0.296841
vt 0.590462 0.296841
vt 0.092207 0.530134
vt 0.004951 0.530134
vt 0.014704 0.296638
vt 0.092207 0.296638
vt 0.094344 0.296638
vt 0.094344 0.063141
vt 0.498931 0.063141
vt 0.498931 0.296638
vt 0.588325 0.296638
vt 0.588325 0.530134
vt 0.501069 0.530134
vt 0.510822 0.296638
vt 0.995049 0.296841
vt 0.995049 0.529727
vt 0.590462 0.529727
vt 0.590462 0.296841
vt 0.014704 0.296638
vt 0.004951 0.063141
vt 0.092207 0.063141
vt 0.092207 0.296638
vt 0.028069 0.004950
vt 0.183441 0.004950
vt 0.183441 0.759983
vt 0.028069 0.759983
vt 0.577686 0.759983
vt 0.422314 0.759983
vt 0.422314 0.004950
vt 0.577686 0.004950
vt 0.187247 0.759983
vt 0.187247 0.004950
vt 0.418508 0.004950
vt 0.418508 0.759983
vt 0.028069 0.763789
vt 0.183441 0.763789
vt 0.183441 0.995049
vt 0.028069 0.995049
vt 0.812753 0.004950
vt 0.812753 0.759983
vt 0.581492 0.759983
vt 0.581492 0.004950
vt 0.971931 0.236211
vt 0.816559 0.236211
vt 0.816559 0.004950
vt 0.971931 0.004950
vt 0.004950 0.774186
vt 0.004950 0.026843
vt 0.199165 0.026843
vt 0.199165 0.774186
vt 0.597107 0.026843
vt 0.597107 0.774186
vt 0.402893 0.774186
vt 0.402893 0.026843
vt 0.199165 0.973157
vt 0.004950 0.973157
vt 0.004950 0.778943
vt 0.199165 0.778943
vt 0.601864 0.774186
vt 0.601864 0.026843
vt 0.796078 0.026843
vt 0.796078 0.774186
vt 0.800835 0.026843
vt 0.995049 0.026843
vt 0.995049 0.221057
vt 0.800835 0.221057
vt 0.398136 0.026843
vt 0.398136 0.774186
vt 0.203922 0.774186
vt 0.203922 0.026843
vt 0.261724 0.004950
vt 0.416805 0.004950
vt 0.416805 0.758568
vt 0.261724 0.758568
vt 0.577541 0.758568
vt 0.422459 0.758568
vt 0.422459 0.004950
vt 0.577541 0.004950
vt 0.025243 0.758568
vt 0.025243 0.004950
vt 0.256070 0.004950
vt 0.256070 0.758568
vt 0.025243 0.764222
vt 0.180324 0.764222
vt 0.180324 0.995049
vt 0.025243 0.995049
vt 0.814022 0.004950
vt 0.814022 0.758568
vt 0.583195 0.758568
vt 0.583195 0.004950
vt 0.974757 0.235778
vt 0.819676 0.235778
vt 0.819676 0.004950
vt 0.974757 0.004950
vt 0.387359 0.604577
vt 0.387359 0.922080
vt 0.321219 0.922080
vt 0.321219 0.604577
vt 0.693087 0.591650
vt 0.506463 0.334785
vt 0.776547 0.334785
vt 0.004950 0.334785
vt 0.191574 0.077920
vt 0.275034 0.334785
vt 0.308292 0.604577
vt 0.308292 0.922080
vt 0.242152 0.922080
vt 0.242152 0.604577
vt 0.995049 0.493537
vt 0.693087 0.591650
vt 0.776547 0.334785
vt 0.191574 0.077920
vt 0.493537 0.176034
vt 0.275034 0.334785
vt 0.150158 0.604577
vt 0.150158 0.922080
vt 0.084018 0.922080
vt 0.084018 0.604577
vt 0.995049 0.176034
vt 0.995049 0.493537
vt 0.776547 0.334785
vt 0.493537 0.176034
vt 0.493537 0.493537
vt 0.275034 0.334785
vt 0.071091 0.604577
vt 0.071091 0.922080
vt 0.004950 0.922080
vt 0.004950 0.604577
vt 0.693087 0.077920
vt 0.995049 0.176034
vt 0.776547 0.334785
vt 0.493537 0.493537
vt 0.191574 0.591650
vt 0.275034 0.334785
vt 0.229225 0.604577
vt 0.229225 0.922080
vt 0.163085 0.922080
vt 0.163085 0.604577
vt 0.506463 0.334785
vt 0.693087 0.077920
vt 0.776547 0.334785
vt 0.191574 0.591650
vt 0.004950 0.334785
vt 0.275034 0.334785
# num_uvs: 242

g Cube

f 12/1/12 6/2/6 3/3/3 9/4/9 
f 18/5/18 24/6/24 21/7/21 15/8/15 
f 20/9/20 17/10/17 5/11/5 8/12/8 
f 25/13/25 19/14/19 7/15/7 13/16/13 
f 23/17/23 26/18/26 14/19/14 11/20/11 
f 16/21/16 22/22/22 10/23/10 4/24/4 
f 34/25/34 30/26/30 27/27/27 33/28/33 
f 38/29/38 42/30/42 41/31/41 35/32/35 
f 39/33/39 36/34/36 28/35/28 31/36/31 
f 197/37/197 40/38/40 32/39/32 193/40/193 
f 50/41/50 47/42/47 53/43/53 56/44/56 
f 37/45/37 195/46/195 191/47/191 29/48/29 
f 41/49/41 42/50/42 43/51/43 44/52/44 
f 198/53/198 194/54/194 204/55/204 200/56/200 
f 34/57/34 33/58/33 46/59/46 45/60/45 
f 192/61/192 196/62/196 202/63/202 206/64/206 
f 44/65/44 43/66/43 48/67/48 51/68/51 
f 199/69/199 203/70/203 55/71/55 49/72/49 
f 45/73/45 46/74/46 57/75/57 54/76/54 
f 205/77/205 201/78/201 52/79/52 58/80/58 
f 68/81/68 62/82/62 59/83/59 65/84/65 
f 74/85/74 80/86/80 77/87/77 71/88/71 
f 76/89/76 73/90/73 84/91/84 86/92/86 
f 81/93/81 75/94/75 85/95/85 87/96/87 
f 79/97/79 82/98/82 208/99/208 210/100/210 
f 72/101/72 78/102/78 88/103/88 83/104/83 
f 84/105/84 61/106/61 64/107/64 86/108/86 
f 85/109/85 63/110/63 69/111/69 87/112/87 
f 207/113/207 70/114/70 67/115/67 209/116/209 
f 88/117/88 66/118/66 60/119/60 83/120/83 
f 98/121/98 92/122/92 89/123/89 95/124/95 
f 104/125/104 110/126/110 107/127/107 101/128/101 
f 106/129/106 103/130/103 91/131/91 94/132/94 
f 111/133/111 105/134/105 93/135/93 99/136/99 
f 109/137/109 112/138/112 100/139/100 97/140/97 
f 102/141/102 108/142/108 96/143/96 90/144/90 
f 124/145/124 118/146/118 113/147/113 121/148/121 
f 130/149/130 136/150/136 133/151/133 127/152/127 
f 128/153/128 125/154/125 114/155/114 116/156/116 
f 134/157/134 129/158/129 117/159/117 122/160/122 
f 131/161/131 135/162/135 123/163/123 119/164/119 
f 126/165/126 132/166/132 120/167/120 115/168/115 
f 176/169/176 170/170/170 167/171/167 173/172/173 
f 182/173/182 188/174/188 185/175/185 179/176/179 
f 184/177/184 181/178/181 169/179/169 172/180/172 
f 189/181/189 183/182/183 171/183/171 177/184/177 
f 187/185/187 190/186/190 178/187/178 175/188/175 
f 180/189/180 186/190/186 174/191/174 168/192/168 
# num_faces: 48

g Cylinder

f 143/193/143 137/194/137 140/195/140 146/196/146 
f 148/197/148 142/198/142 1/199/1 
f 139/200/139 145/201/145 2/202/2 
f 149/203/149 144/204/144 147/205/147 152/206/152 
f 154/207/154 148/208/148 1/209/1 
f 145/210/145 151/211/151 2/212/2 
f 155/213/155 150/214/150 153/215/153 158/216/158 
f 160/217/160 154/218/154 1/219/1 
f 151/220/151 157/221/157 2/222/2 
f 161/223/161 156/224/156 159/225/159 164/226/164 
f 166/227/166 160/228/160 1/229/1 
f 157/230/157 163/231/163 2/232/2 
f 138/233/138 162/234/162 165/235/165 141/236/141 
f 142/237/142 166/238/166 1/239/1 
f 163/240/163 139/241/139 2/242/2 
# num_faces: 15

