# Wavefront OBJ file
# Creator: Ultimate Unwrap3D Pro v3.35
# Website: http://www.unwrap3d.com
# Time: Sat Jun 15 10:36:24 2013
# num_vertices: 20
# num_vertex_normals: 20
# num_uvs: 30
# num_faces: 10
# num_groups: 1

v 4.000000 26.000000 -5.000000
v 4.000000 26.000000 -5.000000
v 4.000000 26.000000 -5.000000
v 4.000000 0.000000 5.000000
v 4.000000 0.000000 5.000000
v 4.000000 0.000000 -5.000000
v 4.000000 0.000000 -5.000000
v -4.000000 26.000000 -5.000000
v -4.000000 26.000000 -5.000000
v -4.000000 26.000000 -5.000000
v 4.000000 26.000000 5.000000
v 4.000000 26.000000 5.000000
v 4.000000 26.000000 5.000000
v -4.000000 26.000000 5.000000
v -4.000000 26.000000 5.000000
v -4.000000 26.000000 5.000000
v -4.000000 0.000000 5.000000
v -4.000000 0.000000 5.000000
v -4.000000 0.000000 -5.000000
v -4.000000 0.000000 -5.000000
# num_vertices: 20

vn 0.000000 1.000000 0.000000
vn 0.000000 0.000000 -1.000000
vn 1.000000 0.000000 0.000000
vn 0.000000 0.000000 1.000000
vn 1.000000 0.000000 0.000000
vn 0.000000 0.000000 -1.000000
vn 1.000000 0.000000 0.000000
vn 0.000000 1.000000 0.000000
vn 0.000000 0.000000 -1.000000
vn -1.000000 0.000000 0.000000
vn 0.000000 1.000000 0.000000
vn 0.000000 0.000000 1.000000
vn 1.000000 0.000000 0.000000
vn 0.000000 1.000000 0.000000
vn 0.000000 0.000000 1.000000
vn -1.000000 0.000000 0.000000
vn 0.000000 0.000000 1.000000
vn -1.000000 0.000000 0.000000
vn 0.000000 0.000000 -1.000000
vn -1.000000 0.000000 0.000000
# num_vertex_normals: 20

vt 12.812500 20.062500
vt 12.500000 19.250000
vt 12.812500 19.250000
vt 24.968750 -11.812500
vt 24.718750 -11.500000
vt 24.718750 -11.812500
vt 24.968750 -11.812500
vt 24.968750 -11.500000
vt 24.718750 -11.500000
vt -24.968750 20.062500
vt -24.718750 19.250000
vt -24.718750 20.062500
vt -24.968750 20.062500
vt -24.968750 19.250000
vt -24.718750 19.250000
vt 24.968750 20.062500
vt 24.718750 19.250000
vt 24.968750 19.250000
vt 24.968750 20.062500
vt 24.718750 20.062500
vt 24.718750 19.250000
vt 12.812500 20.062500
vt 12.500000 20.062500
vt 12.500000 19.250000
vt -12.500000 20.062500
vt -12.812500 19.250000
vt -12.500000 19.250000
vt -12.500000 20.062500
vt -12.812500 20.062500
vt -12.812500 19.250000
# num_uvs: 30

g server

f 3/1/3 5/2/5 7/3/7 
f 8/4/8 11/5/11 1/6/1 
f 8/7/8 14/8/14 11/9/11 
f 15/10/15 4/11/4 12/12/12 
f 15/13/15 17/14/17 4/15/4 
f 9/16/9 6/17/6 19/18/19 
f 9/19/9 2/20/2 6/21/6 
f 3/22/3 13/23/13 5/24/5 
f 16/25/16 20/26/20 18/27/18 
f 16/28/16 10/29/10 20/30/20 
# num_faces: 10

