# Wavefront OBJ file
# Creator: Ultimate Unwrap3D Pro v3.35
# Website: http://www.unwrap3d.com
# Time: Sat Jun 15 10:33:22 2013
# num_vertices: 20
# num_vertex_normals: 20
# num_uvs: 30
# num_faces: 10
# num_groups: 1

v 4.000000 12.000000 5.000000
v 4.000000 12.000000 5.000000
v 4.000000 12.000000 5.000000
v 4.000000 0.000000 -5.000000
v 4.000000 0.000000 -5.000000
v 4.000000 12.000000 -5.000000
v 4.000000 12.000000 -5.000000
v 4.000000 12.000000 -5.000000
v -4.000000 12.000000 5.000000
v -4.000000 12.000000 5.000000
v -4.000000 12.000000 5.000000
v -4.000000 12.000000 -5.000000
v -4.000000 12.000000 -5.000000
v -4.000000 12.000000 -5.000000
v 4.000000 0.000000 5.000000
v 4.000000 0.000000 5.000000
v -4.000000 0.000000 5.000000
v -4.000000 0.000000 5.000000
v -4.000000 0.000000 -5.000000
v -4.000000 0.000000 -5.000000
# num_vertices: 20

vn 0.000000 1.000000 0.000000
vn 0.000000 0.000000 1.000000
vn 1.000000 0.000000 0.000000
vn 0.000000 0.000000 -1.000000
vn 1.000000 0.000000 0.000000
vn 0.000000 1.000000 0.000000
vn 0.000000 0.000000 -1.000000
vn 1.000000 0.000000 0.000000
vn 0.000000 1.000000 0.000000
vn 0.000000 0.000000 1.000000
vn -1.000000 0.000000 0.000000
vn 0.000000 1.000000 0.000000
vn 0.000000 0.000000 -1.000000
vn -1.000000 0.000000 0.000000
vn 0.000000 0.000000 1.000000
vn 1.000000 0.000000 0.000000
vn 0.000000 0.000000 1.000000
vn -1.000000 0.000000 0.000000
vn 0.000000 0.000000 -1.000000
vn -1.000000 0.000000 0.000000
# num_vertex_normals: 20

vt -23.000000 19.625000
vt -22.687500 19.250000
vt -22.687500 19.625000
vt 22.687500 -21.687500
vt 23.000000 -21.937500
vt 23.000000 -21.687500
vt 22.687500 -21.687500
vt 22.687500 -21.937500
vt 23.000000 -21.937500
vt -23.000000 19.625000
vt -23.000000 19.250000
vt -22.687500 19.250000
vt 23.000000 19.250000
vt 22.687500 19.625000
vt 22.687500 19.250000
vt 23.000000 19.250000
vt 23.000000 19.625000
vt 22.687500 19.625000
vt 22.937500 19.250000
vt 22.687500 19.625000
vt 22.687500 19.250000
vt 22.937500 19.250000
vt 22.937500 19.625000
vt 22.687500 19.625000
vt -22.937500 19.625000
vt -22.687500 19.250000
vt -22.687500 19.625000
vt -22.937500 19.625000
vt -22.937500 19.250000
vt -22.687500 19.250000
# num_uvs: 30

g Generic

f 3/1/3 5/2/5 8/3/8 
f 6/4/6 9/5/9 1/6/1 
f 6/7/6 12/8/12 9/9/9 
f 3/10/3 16/11/16 5/12/5 
f 18/13/18 14/14/14 20/15/20 
f 18/16/18 11/17/11 14/18/14 
f 19/19/19 7/20/7 4/21/4 
f 19/22/19 13/23/13 7/24/7 
f 10/25/10 15/26/15 2/27/2 
f 10/28/10 17/29/17 15/30/15 
# num_faces: 10

