# Wavefront OBJ file
# Creator: Ultimate Unwrap3D Pro v3.35
# Website: http://www.unwrap3d.com
# Time: Sat Jun 15 10:32:41 2013
# num_vertices: 20
# num_vertex_normals: 20
# num_uvs: 30
# num_faces: 10
# num_groups: 1

v 3.000000 6.000000 1.500000
v 3.000000 6.000000 1.500000
v 3.000000 6.000000 1.500000
v 3.000000 0.000000 -1.500000
v 3.000000 0.000000 -1.500000
v 3.000000 6.000000 -1.500000
v 3.000000 6.000000 -1.500000
v 3.000000 6.000000 -1.500000
v -3.000000 6.000000 -1.500000
v -3.000000 6.000000 -1.500000
v -3.000000 6.000000 -1.500000
v -3.000000 0.000000 -1.500000
v -3.000000 0.000000 -1.500000
v -3.000000 6.000000 1.500000
v -3.000000 6.000000 1.500000
v -3.000000 6.000000 1.500000
v 3.000000 0.000000 1.500000
v 3.000000 0.000000 1.500000
v -3.000000 0.000000 1.500000
v -3.000000 0.000000 1.500000
# num_vertices: 20

vn 1.000000 0.000000 0.000000
vn 0.000000 1.000000 0.000000
vn 0.000000 0.000000 1.000000
vn 1.000000 0.000000 0.000000
vn 0.000000 0.000000 -1.000000
vn 1.000000 0.000000 0.000000
vn 0.000000 1.000000 0.000000
vn 0.000000 0.000000 -1.000000
vn -1.000000 0.000000 0.000000
vn 0.000000 1.000000 0.000000
vn 0.000000 0.000000 -1.000000
vn -1.000000 0.000000 0.000000
vn 0.000000 0.000000 -1.000000
vn -1.000000 0.000000 0.000000
vn 0.000000 1.000000 0.000000
vn 0.000000 0.000000 1.000000
vn 1.000000 0.000000 0.000000
vn 0.000000 0.000000 1.000000
vn -1.000000 0.000000 0.000000
vn 0.000000 0.000000 1.000000
# num_vertex_normals: 20

vt -23.843750 19.437500
vt -23.750000 19.250000
vt -23.750000 19.437500
vt 20.937500 19.437500
vt 20.750000 19.250000
vt 20.937500 19.250000
vt 20.937500 19.437500
vt 20.750000 19.437500
vt 20.750000 19.250000
vt -20.937500 19.437500
vt -20.750000 19.250000
vt -20.750000 19.437500
vt -20.937500 19.437500
vt -20.937500 19.250000
vt -20.750000 19.250000
vt -23.843750 19.437500
vt -23.843750 19.250000
vt -23.750000 19.250000
vt 23.750000 19.250000
vt 23.843750 19.437500
vt 23.750000 19.437500
vt 23.750000 19.250000
vt 23.843750 19.250000
vt 23.843750 19.437500
vt 23.750000 -19.750000
vt 23.843750 -19.937500
vt 23.843750 -19.750000
vt 23.750000 -19.750000
vt 23.750000 -19.937500
vt 23.843750 -19.937500
# num_uvs: 30

g Generic

f 1/1/1 4/2/4 6/3/6 
f 11/4/11 5/5/5 13/6/13 
f 11/7/11 8/8/8 5/9/5 
f 16/10/16 18/11/18 3/12/3 
f 16/13/16 20/14/20 18/15/18 
f 1/16/1 17/17/17 4/18/4 
f 12/19/12 14/20/14 9/21/9 
f 12/22/12 19/23/19 14/24/14 
f 7/25/7 15/26/15 2/27/2 
f 7/28/7 10/29/10 15/30/15 
# num_faces: 10

