mtllib model.mtl
o model.obj
v 3.000000 6.000000 1.500000
v 3.000000 0.000000 -1.500000
v 3.000000 6.000000 -1.500000
v -3.000000 6.000000 -1.500000
v -3.000000 0.000000 -1.500000
v -3.000000 6.000000 1.500000
v 3.000000 0.000000 1.500000
v -3.000000 0.000000 1.500000
v 3.000000 0.000000 1.500000
v 3.000000 6.000000 1.500000
v -3.000000 6.000000 1.500000
v -3.000000 0.000000 1.500000
v 3.000000 0.000000 -1.500000
v -3.000000 0.000000 -1.500000
v -3.000000 6.000000 -1.500000
v 3.000000 6.000000 -1.500000
v 3.000000 0.000000 -1.500000
v 3.000000 6.000000 -1.500000
v 3.000000 6.000000 1.500000
v 3.000000 0.000000 1.500000
v -3.000000 6.000000 1.500000
v -3.000000 6.000000 -1.500000
v -3.000000 0.000000 -1.500000
v -3.000000 0.000000 1.500000
vn 0.000000 1.000000 0.000000
vn 0.000000 -1.000000 0.000000
vn 0.000000 1.000000 0.000000
vn 0.000000 1.000000 0.000000
vn 0.000000 -1.000000 0.000000
vn 0.000000 1.000000 0.000000
vn 0.000000 -1.000000 0.000000
vn 0.000000 -1.000000 0.000000
vn 0.000000 0.000000 1.000000
vn 0.000000 0.000000 1.000000
vn 0.000000 0.000000 1.000000
vn 0.000000 0.000000 1.000000
vn 0.000000 0.000000 -1.000000
vn 0.000000 0.000000 -1.000000
vn 0.000000 0.000000 -1.000000
vn 0.000000 0.000000 -1.000000
vn 1.000000 0.000000 0.000000
vn 1.000000 0.000000 0.000000
vn 1.000000 0.000000 0.000000
vn 1.000000 0.000000 0.000000
vn -1.000000 0.000000 0.000000
vn -1.000000 0.000000 0.000000
vn -1.000000 0.000000 0.000000
vn -1.000000 0.000000 0.000000
vt 0.995000 0.008453
vt 0.995000 0.771523
vt 0.805882 0.771523
vt 0.805882 0.008453
vt 0.502275 0.661008
vt 0.803885 0.661008
vt 0.803885 0.965248
vt 0.502275 0.965248
vt 0.801607 0.008469
vt 0.801607 0.608163
vt 0.504353 0.608163
vt 0.504353 0.008469
vt 0.801607 0.008469
vt 0.504353 0.008469
vt 0.504353 0.608163
vt 0.801607 0.608163
vt 0.498072 0.005000
vt 0.498072 0.995000
vt 0.252712 0.995000
vt 0.252712 0.005000
vt 0.250360 0.995000
vt 0.005000 0.995000
vt 0.005000 0.005000
vt 0.250360 0.005000
g base
usemtl Material1
f 6/1/6 1/2/1 3/3/3 4/4/4 
f 5/5/5 2/6/2 7/7/7 8/8/8 
f 9/9/9 10/10/10 11/11/11 12/12/12 
f 13/13/13 14/14/14 15/15/15 16/16/16 
f 17/17/17 18/18/18 19/19/19 20/20/20 
f 21/21/21 22/22/22 23/23/23 24/24/24 
v -2.991201 4.462901 -0.274984
v -1.991201 4.462901 -0.274984
v -2.991201 5.731500 -0.274984
v -1.991201 5.731500 -0.274984
v -2.991201 4.462901 0.993615
v -1.991201 4.462901 0.993615
v -2.991201 5.731500 0.993615
v -1.991201 5.731500 0.993615
vn 0.000000 0.707107 0.707107
vn -0.577350 0.577350 0.577350
vn 0.000000 -0.707107 0.707107
vn -0.577350 -0.577350 0.577350
vn 0.000000 0.707107 -0.707107
vn -0.577350 0.577350 -0.577350
vn 0.000000 -0.707107 -0.707107
vn -0.577350 -0.577350 -0.577350
vt 0.873458 0.921415
vt 0.873458 0.921415
vt 0.928388 0.921415
vt 0.928388 0.921415
vt 0.873458 0.866485
vt 0.873458 0.866485
vt 0.928388 0.866485
vt 0.928388 0.866485
g black
usemtl Material1
f 27/25/27 25/26/25 26/27/26 28/28/28 
f 29/29/29 31/30/31 32/31/32 30/32/30 
f 26/27/26 25/26/25 29/29/29 30/32/30 
f 28/28/28 26/27/26 30/32/30 32/31/32 
f 27/25/27 28/28/28 32/31/32 31/30/31 
v -2.991201 2.460286 -0.153667
v -1.991201 2.460286 -0.153667
v -2.991201 3.717996 -0.153667
v -1.991201 3.717996 -0.153667
v -2.991201 2.460286 1.104043
v -1.991201 2.460286 1.104043
v -2.991201 3.717996 1.104043
v -1.991201 3.717996 1.104043
vn 0.000000 0.707107 0.707107
vn -0.577350 0.577350 0.577350
vn 0.000000 -0.707107 0.707107
vn -0.577350 -0.577350 0.577350
vn 0.000000 0.707107 -0.707107
vn -0.577350 0.577350 -0.577350
vn 0.000000 -0.707107 -0.707107
vn -0.577350 -0.577350 -0.577350
vt 0.873458 0.921415
vt 0.873458 0.921415
vt 0.928388 0.921415
vt 0.928388 0.921415
vt 0.873458 0.866485
vt 0.873458 0.866485
vt 0.928388 0.866485
vt 0.928388 0.866485
g black
usemtl Material1
f 35/33/35 33/34/33 34/35/34 36/36/36 
f 37/37/37 39/38/39 40/39/40 38/40/38 
f 34/35/34 33/34/33 37/37/37 38/40/38 
f 36/36/36 34/35/34 38/40/38 40/39/40 
f 35/33/35 36/36/36 40/39/40 39/38/39 
