mtllib model.mtl
o model.obj
v -1.791592 0.000000 -1.193348
v 1.792062 0.000000 1.193348
v -2.043762 5.079648 1.321665
v 2.044152 5.079648 1.321665
v -1.791592 0.000000 1.193348
v 1.792062 0.000000 -1.193348
v 2.066817 5.079648 -1.321665
v -2.043762 5.079648 -1.321665
v 1.825349 5.079648 -1.435082
v 1.534845 0.000000 1.295753
v 1.534845 0.000000 -1.295753
v 1.751653 5.079648 1.435082
v -1.540286 0.000000 -1.295753
v -1.756184 5.079648 1.435082
v -1.756184 5.079648 -1.435082
v -1.540286 0.000000 1.295753
v 1.894187 0.000000 0.950930
v 2.160721 5.079648 1.053181
v -2.160721 5.079648 1.053181
v -1.894187 0.000000 0.950930
v -1.894187 0.000000 -0.950930
v 1.894187 0.000000 -0.950930
v 2.160721 5.079648 -1.053181
v -2.160721 5.079648 -1.053181
v -1.885588 5.079648 1.161157
v 1.885979 5.079648 1.161157
v 1.906889 5.079648 -1.161157
v -1.885588 5.079648 -1.161157
v 1.684093 5.079648 -1.260800
v 1.616099 5.079648 1.260800
v -1.620280 5.079648 1.260800
v -1.620280 5.079648 -1.260800
v 1.993512 5.079648 0.925279
v -1.993512 5.079648 0.925279
v 1.993512 5.079648 -0.925279
v -1.993512 5.079648 -0.925279
v -0.000828 0.000000 -0.000000
v 1.609523 3.674694 -1.012577
v 1.426656 3.701755 -1.102768
v -1.647814 3.952519 1.047324
v -1.409935 3.919852 1.133272
v 1.549964 3.474824 0.997896
v 1.637498 3.471289 0.795502
v -1.752280 3.998048 0.838934
v 1.673110 3.631924 -0.802746
v -1.818879 4.298456 -0.899662
v -1.474660 4.279055 -1.167628
v 1.333485 3.503615 1.086507
v 1.651261 3.533370 0.000000
v -1.786518 4.152485 -0.041959
v 0.595000 3.808503 -1.114761
v -0.595000 4.097345 -1.147213
v -0.595000 3.861634 1.126731
v 0.595000 3.641233 1.101969
v -1.726790 4.323790 -1.077178
v -0.595000 4.009812 0.000000
v 0.595000 3.792618 0.000000
v -2.110746 4.127214 1.034009
v 1.989007 3.968475 1.293596
v -1.712330 4.047844 1.406781
v -2.106581 4.047844 -1.032411
v 2.114911 4.206583 -1.035607
v 2.019594 4.206583 -1.299611
v -1.994510 4.087529 1.296603
v -1.710643 4.008160 -1.405692
v 2.104499 4.008160 1.031613
v 1.705920 4.008160 1.405692
v -1.990570 4.008160 -1.294598
v -0.002344 4.206583 1.411135
v 1.496832 4.127214 1.408958
v 1.773149 4.166899 -1.410046
v 0.028171 4.206583 -1.411135
v -1.497792 4.127214 -1.408958
v -1.501534 4.127214 1.408958
v -2.110746 4.127214 -0.775507
v -2.112828 4.166899 0.000000
v 1.820379 4.278806 1.497822
v 2.153268 4.426137 -1.383432
v -2.124115 4.278806 -1.379447
v -1.826706 4.308273 1.498687
v -2.127248 4.337739 1.381041
v -2.247339 4.308273 -1.099860
v 1.893355 4.396672 -1.501283
v 2.122945 4.249340 1.378650
v -2.250650 4.367205 1.101130
v 2.253929 4.426137 -1.102400
v -1.825365 4.278806 -1.497822
v 2.245652 4.278806 1.099225
v 2.152172 4.799377 1.393526
v -2.277136 4.838666 1.111291
v 2.278209 4.858311 -1.111714
v -1.849502 4.809200 -1.513399
v 2.275450 4.809200 1.110656
v 1.844617 4.809200 1.513399
v 2.178296 4.858311 -1.395120
v -2.152307 4.809200 -1.393792
v -1.849949 4.819022 1.513687
v -2.153351 4.828844 1.394324
v -2.276033 4.819022 -1.110868
v 1.921021 4.848488 -1.514552
v -0.002266 5.079648 1.435082
v -0.002479 4.426137 1.502149
v -0.002438 4.858311 1.514841
v -2.160721 5.079648 0.000000
v -2.252305 4.396672 0.000000
v -2.277688 4.848488 0.000000
v 0.034582 5.079648 -1.435082
v 0.031545 4.426137 -1.502149
v 0.034943 4.858311 -1.514841
vn -0.463900 -0.750744 -0.470297
vn 0.461901 -0.751357 0.471287
vn -0.344974 0.865274 0.363722
vn 0.360845 0.851790 0.379795
vn -0.464069 -0.750533 0.470468
vn 0.460822 -0.752708 -0.470184
vn 0.352989 0.878211 -0.322714
vn -0.357625 0.855328 -0.374858
vn 0.113927 0.842774 -0.526073
vn 0.082492 -0.474116 0.876590
vn 0.102001 -0.580122 -0.808118
vn 0.104847 0.816154 0.568243
vn -0.104201 -0.579538 -0.808256
vn -0.102513 0.831457 0.546049
vn -0.105513 0.818558 -0.564650
vn -0.084201 -0.474261 0.876349
vn 0.666908 -0.732859 0.134728
vn 0.527297 0.842678 0.108869
vn -0.503385 0.857824 0.103641
vn -0.799016 -0.591785 0.106603
vn -0.867299 -0.490268 -0.086198
vn 0.666286 -0.733450 -0.134588
vn 0.511719 0.855040 -0.083966
vn -0.509903 0.853560 -0.106933
vn 0.410396 0.797405 -0.442402
vn -0.409563 0.797259 -0.443437
vn -0.436859 0.800789 0.409745
vn 0.412451 0.795554 0.443822
vn -0.086309 0.543183 0.835167
vn -0.073657 0.536412 -0.840736
vn 0.091690 0.631081 -0.770279
vn 0.091690 0.633854 0.767999
vn -0.725969 0.679922 -0.103320
vn 0.725217 0.680698 -0.103489
vn -0.729950 0.678142 0.085418
vn 0.727474 0.678175 0.104212
vn 0.000000 -1.000000 0.000000
vn -0.325500 0.816755 0.476405
vn -0.046241 0.762448 0.645395
vn 0.483798 0.802481 -0.349232
vn 0.177550 0.794137 -0.581224
vn -0.298972 0.861477 -0.410455
vn -0.502737 0.860074 -0.086761
vn 0.653702 0.756369 -0.024078
vn -0.501401 0.840091 0.206987
vn 0.636727 0.735036 0.233027
vn 0.238286 0.714094 0.658247
vn 0.009576 0.802373 -0.596745
vn -0.688209 0.723248 0.057279
vn 0.767182 0.636359 0.080487
vn 0.121175 0.730655 0.671908
vn 0.134483 0.714797 0.686279
vn 0.103172 0.779476 -0.617878
vn 0.131396 0.776502 -0.616262
vn 0.475409 0.727215 0.495121
vn 0.133904 0.982392 0.130288
vn 0.196393 0.976470 0.089086
vn -0.938644 -0.300937 0.168479
vn 0.669980 -0.273348 0.690223
vn -0.171226 -0.217153 0.961003
vn -0.950322 -0.275379 -0.145102
vn 0.936554 -0.298057 -0.184467
vn 0.685929 -0.336053 -0.645422
vn -0.685008 -0.306829 0.660772
vn -0.149860 -0.199058 -0.968462
vn 0.947611 -0.272440 0.166763
vn 0.134959 -0.190953 0.972277
vn -0.679235 -0.282906 -0.677203
vn -0.000000 -0.172368 0.985033
vn -0.039545 -0.178656 0.983117
vn 0.204397 -0.255950 -0.944834
vn 0.003133 -0.186917 -0.982371
vn 0.053732 -0.259318 -0.964296
vn 0.030163 -0.184957 0.982284
vn -0.960663 -0.275101 0.038022
vn -0.970298 -0.241908 0.001401
vn 0.102105 -0.232338 0.967261
vn 0.703733 -0.338287 -0.624757
vn -0.675489 -0.284626 -0.680222
vn -0.130517 -0.253638 0.958453
vn -0.681228 -0.308560 0.663867
vn -0.937184 -0.330190 -0.112518
vn 0.217401 -0.258453 -0.941243
vn 0.666373 -0.274895 0.693094
vn -0.937605 -0.302942 0.170655
vn 0.938825 -0.299167 -0.170609
vn -0.113206 -0.257694 -0.959572
vn 0.946639 -0.274451 0.168973
vn 0.679428 0.184267 0.710227
vn -0.957454 0.209937 0.198013
vn 0.965161 0.204492 -0.163241
vn -0.183576 0.148153 -0.971777
vn 0.963160 0.180837 0.199050
vn 0.180874 0.144456 0.972840
vn 0.716266 0.238592 -0.655772
vn -0.680156 0.191904 -0.707503
vn -0.183247 0.171692 0.967958
vn -0.676076 0.213336 0.705272
vn -0.958843 0.201559 -0.199986
vn 0.208978 0.187861 -0.959706
vn 0.000000 0.647891 0.761733
vn -0.000000 -0.209587 0.977790
vn 0.000000 0.141731 0.989905
vn -0.688861 0.724893 0.000000
vn -0.956710 -0.291037 0.001752
vn -0.979758 0.200187 -0.000000
vn 0.000000 0.647891 -0.761733
vn 0.003919 -0.227825 -0.973694
vn 0.000000 0.141731 -0.989905
vt 0.565891 0.665139
vt 0.548225 0.664646
vt 0.563306 0.123661
vt 0.580583 0.119067
vt 0.270677 0.006999
vt 0.287440 0.005160
vt 0.301705 0.525339
vt 0.283324 0.525815
vt 0.334660 0.665330
vt 0.317885 0.667183
vt 0.303357 0.141868
vt 0.321764 0.145018
vt 0.039445 0.006997
vt 0.045783 0.532986
vt 0.026418 0.537625
vt 0.958755 0.965016
vt 0.972974 0.952084
vt 0.983180 0.972914
vt 0.967770 0.987633
vt 0.747877 0.637770
vt 0.730946 0.650701
vt 0.720851 0.629871
vt 0.739204 0.615152
vt 0.978502 0.681313
vt 0.971640 0.650701
vt 0.981734 0.629871
vt 0.989173 0.664714
vt 0.713387 0.664714
vt 0.724058 0.681313
vt 0.978502 0.921473
vt 0.989173 0.938071
vt 0.724058 0.921473
vt 0.713387 0.938071
vt 0.713387 0.801392
vt 0.747877 0.965016
vt 0.853487 0.987633
vt 0.739204 0.987633
vt 0.954416 0.637770
vt 0.851135 0.615152
vt 0.963067 0.615152
vt 0.730946 0.952084
vt 0.720851 0.972914
vt 0.852880 0.800340
vt 0.934416 0.660437
vt 0.948073 0.671494
vt 0.953495 0.903013
vt 0.948073 0.929186
vt 0.752353 0.697668
vt 0.757800 0.671494
vt 0.771143 0.940243
vt 0.757800 0.929186
vt 0.934416 0.940243
vt 0.752353 0.903013
vt 0.953495 0.697668
vt 0.771143 0.660437
vt 0.589710 0.812230
vt 0.608765 0.995544
vt 0.576841 0.817490
vt 0.481004 0.832210
vt 0.496266 0.685229
vt 0.478202 0.683401
vt 0.464779 0.834823
vt 0.274890 0.894524
vt 0.253325 0.685232
vt 0.237153 0.692314
vt 0.261194 0.901109
vt 0.512449 0.692314
vt 0.496160 0.832710
vt 0.289700 0.889185
vt 0.271663 0.683406
vt 0.391664 0.892664
vt 0.382341 0.997253
vt 0.364280 0.995322
vt 0.374443 0.896638
vt 0.602641 0.800024
vt 0.624365 0.987986
vt 0.348124 0.987986
vt 0.359993 0.886566
vt 0.163124 0.836773
vt 0.162997 0.972708
vt 0.088978 0.976911
vt 0.089981 0.836645
vt 0.164812 0.701193
vt 0.091657 0.698128
vt 0.027729 0.705993
vt 0.042289 0.695815
vt 0.223386 0.713921
vt 0.228646 0.738599
vt 0.228876 0.835864
vt 0.210209 0.703051
vt 0.229089 0.934475
vt 0.224839 0.960302
vt 0.213672 0.971278
vt 0.604276 0.712739
vt 0.600218 0.609502
vt 0.705345 0.592660
vt 0.705345 0.832819
vt 0.610718 0.816918
vt 0.602684 0.461509
vt 0.612225 0.350199
vt 0.663310 0.341430
vt 0.663310 0.581589
vt 0.592588 0.570383
vt 0.021030 0.731587
vt 0.017435 0.835399
vt 0.336829 0.871212
vt 0.412772 0.842427
vt 0.447808 0.869000
vt 0.593219 0.997500
vt 0.523763 0.831368
vt 0.034687 0.979517
vt 0.019212 0.968502
vt 0.013988 0.941301
vt 0.253011 0.007472
vt 0.263928 0.527834
vt 0.022670 0.005160
vt 0.007983 0.540790
vt 0.582652 0.667081
vt 0.598467 0.121250
vt 0.351976 0.664837
vt 0.340982 0.144487
vt 0.995366 0.299741
vt 0.995430 0.546558
vt 0.726608 0.557832
vt 0.739219 0.289542
vt 0.023256 0.666418
vt 0.004594 0.664397
vt 0.005441 0.633495
vt 0.024046 0.634220
vt 0.583632 0.005731
vt 0.601750 0.007964
vt 0.600929 0.036285
vt 0.582870 0.034065
vt 0.318316 0.005925
vt 0.338043 0.005383
vt 0.338778 0.040159
vt 0.319178 0.040698
vt 0.670815 0.560172
vt 0.670744 0.286816
vt 0.687863 0.287498
vt 0.684763 0.559587
vt 0.042984 0.666940
vt 0.043684 0.633451
vt 0.566609 0.005160
vt 0.565783 0.034785
vt 0.305518 0.664397
vt 0.286865 0.666420
vt 0.285980 0.630358
vt 0.304565 0.629633
vt 0.299654 0.007964
vt 0.300580 0.041440
vt 0.284209 0.561877
vt 0.264657 0.562611
vt 0.452230 0.033608
vt 0.452326 0.005271
vt 0.354562 0.129017
vt 0.451944 0.118618
vt 0.340247 0.109711
vt 0.452039 0.090281
vt 0.980258 0.003085
vt 0.995475 0.002500
vt 0.995395 0.139178
vt 0.980813 0.139143
vt 0.934470 0.239673
vt 0.929378 0.273000
vt 0.670704 0.261798
vt 0.995315 0.275856
vt 0.978831 0.275142
vt 0.934608 0.004840
vt 0.937065 0.139036
vt 0.670849 0.014981
vt 0.266116 0.632164
vt 0.266846 0.666941
vt 0.154915 0.666940
vt 0.154914 0.638604
vt 0.056762 0.007472
vt 0.154910 0.553594
vt 0.059235 0.543290
vt 0.250584 0.543290
vt 0.007136 0.571692
vt 0.025627 0.569823
vt 0.599288 0.092928
vt 0.581345 0.090733
vt 0.320902 0.110245
vt 0.722100 0.288861
vt 0.712660 0.558417
vt 0.045083 0.566474
vt 0.564131 0.094036
vt 0.302658 0.560104
vt 0.302431 0.108392
vt 0.951648 0.139072
vt 0.949824 0.004255
vt 0.945863 0.273714
vt 0.154911 0.581931
vt 0.253011 0.007472
vt 0.351976 0.664837
vt 0.670849 0.014981
g base
usemtl Material1
f 6/1/6 11/2/11 71/3/71 63/4/63 
f 2/5/2 17/6/17 66/7/66 59/8/59 
f 1/9/1 21/10/21 61/11/61 68/12/68 
f 5/13/5 16/176/16 60/14/60 64/15/64 
f 29/16/29 27/17/27 7/18/7 9/19/9 
f 31/20/31 25/21/25 3/22/3 14/23/14 
f 33/24/33 26/25/26 4/26/4 18/27/18 
f 19/28/19 3/22/3 25/21/25 34/29/34 
f 35/30/35 33/24/33 18/27/18 23/31/23 
f 34/29/34 36/32/36 24/33/24 104/34/104 19/28/19 
f 32/35/32 29/16/29 9/19/9 107/36/107 15/37/15 
f 30/38/30 31/20/31 14/23/14 101/39/101 12/40/12 
f 26/25/26 30/38/30 12/40/12 4/26/4 
f 28/41/28 32/35/32 15/37/15 8/42/8 
f 27/17/27 35/30/35 23/31/23 7/18/7 
f 8/42/8 24/33/24 36/32/36 28/41/28 
f 37/43/37 11/44/11 6/45/6 
f 37/43/37 17/46/17 2/47/2 
f 37/43/37 21/48/21 1/49/1 
f 37/43/37 16/50/16 5/51/5 
f 37/43/37 2/47/2 10/52/10 
f 37/43/37 5/51/5 20/53/20 
f 37/43/37 20/53/20 21/48/21 
f 37/43/37 10/52/10 16/50/16 
f 37/43/37 6/45/6 22/54/22 
f 37/43/37 1/49/1 13/55/13 
f 37/43/37 13/55/13 11/44/11 
f 37/43/37 22/54/22 17/46/17 
f 38/56/38 27/57/27 29/109/29 39/58/39 
f 40/59/40 25/60/25 31/61/31 41/62/41 
f 42/63/42 26/64/26 33/65/33 43/66/43 
f 34/67/34 25/60/25 40/59/40 44/68/44 
f 48/69/48 30/70/30 26/64/26 42/63/42 
f 47/71/47 32/72/32 28/73/28 55/74/55 
f 45/75/45 35/76/35 27/57/27 38/56/38 
f 28/73/28 36/77/36 46/78/46 55/74/55 
f 57/79/57 51/80/51 52/81/52 
f 52/81/52 56/82/56 57/79/57 
f 54/83/54 57/79/57 53/84/53 
f 53/84/53 57/79/57 56/82/56 
f 56/82/56 40/85/40 41/86/41 
f 57/79/57 42/87/42 43/88/43 
f 43/88/43 49/89/49 57/79/57 
f 57/79/57 54/83/54 48/90/48 
f 57/79/57 48/90/48 42/87/42 
f 57/79/57 49/89/49 45/91/45 
f 57/79/57 45/91/45 38/92/38 
f 57/79/57 38/92/38 39/93/39 
f 57/79/57 39/93/39 51/80/51 
f 49/94/49 43/95/43 33/96/33 
f 49/94/49 33/96/33 35/97/35 
f 49/94/49 35/97/35 45/98/45 
f 50/99/50 46/100/46 36/101/36 
f 50/99/50 36/101/36 34/102/34 
f 50/99/50 34/102/34 44/103/44 
f 44/104/44 40/85/40 56/82/56 
f 56/82/56 50/105/50 44/104/44 
f 41/86/41 53/84/53 56/82/56 
f 30/70/30 48/69/48 54/106/54 
f 30/70/30 54/106/54 53/107/53 
f 53/107/53 41/62/41 31/61/31 
f 31/61/31 30/70/30 53/107/53 
f 32/72/32 47/71/47 52/108/52 
f 52/108/52 29/109/29 32/72/32 
f 29/109/29 52/108/52 51/110/51 
f 29/109/29 51/110/51 39/58/39 
f 56/82/56 52/81/52 47/111/47 
f 56/82/56 47/111/47 55/112/55 
f 56/82/56 55/112/55 46/113/46 
f 46/113/46 50/105/50 56/82/56 
f 10/114/10 2/5/2 59/8/59 67/115/67 
f 20/116/20 5/13/5 64/15/64 58/117/58 
f 22/118/22 6/1/6 63/4/63 62/119/62 
f 13/120/13 1/9/1 68/12/68 65/121/65 
f 17/122/17 22/123/22 62/124/62 66/125/66 
f 3/126/3 19/127/19 90/128/90 98/129/98 
f 7/130/7 23/131/23 91/132/91 95/133/95 
f 8/134/8 15/135/15 92/136/92 96/137/96 
f 23/138/23 18/139/18 93/140/93 91/141/91 
f 14/142/14 3/126/3 98/129/98 97/143/97 
f 9/144/9 7/130/7 95/133/95 100/145/100 
f 18/146/18 4/147/4 89/148/89 93/149/93 
f 24/150/24 8/134/8 96/137/96 99/151/99 
f 67/115/67 59/8/59 84/152/84 77/153/77 
f 11/2/11 72/157/72 71/3/71 
f 109/154/109 107/155/107 9/144/9 100/145/100 
f 92/136/92 15/135/15 107/155/107 109/154/109 
f 65/121/65 73/156/73 72/157/72 13/120/13 
f 72/157/72 73/156/73 87/158/87 108/159/108 
f 90/160/90 19/161/19 104/162/104 106/163/106 
f 75/164/75 61/165/61 21/166/21 
f 106/163/106 104/162/104 24/167/24 99/168/99 
f 58/169/58 76/170/76 20/171/20 
f 21/166/21 76/170/76 75/164/75 
f 94/172/94 12/173/12 101/174/101 103/175/103 
f 16/176/16 69/177/69 74/178/74 
f 74/178/74 60/14/60 16/176/16 
f 103/175/103 101/174/101 14/142/14 97/143/97 
f 67/115/67 70/179/70 10/114/10 
f 85/180/85 81/181/81 98/129/98 90/128/90 
f 86/182/86 78/183/78 95/133/95 91/132/91 
f 87/158/87 79/184/79 96/137/96 92/136/92 
f 88/185/88 86/186/86 91/141/91 93/140/93 
f 81/181/81 80/187/80 97/143/97 98/129/98 
f 78/183/78 83/188/83 100/145/100 95/133/95 
f 84/152/84 88/189/88 93/149/93 89/148/89 
f 79/184/79 82/190/82 99/151/99 96/137/96 
f 89/148/89 94/172/94 77/153/77 84/152/84 
f 108/159/108 109/154/109 100/145/100 83/188/83 
f 87/158/87 92/136/92 109/154/109 108/159/108 
f 106/163/106 105/191/105 85/192/85 90/160/90 
f 105/191/105 106/163/106 99/168/99 82/193/82 
f 103/175/103 102/194/102 77/153/77 94/172/94 
f 102/194/102 103/175/103 97/143/97 80/187/80 
f 85/180/85 58/117/58 64/15/64 81/181/81 
f 86/182/86 62/119/62 63/4/63 78/183/78 
f 87/158/87 65/121/65 68/12/68 79/184/79 
f 88/185/88 66/125/66 62/124/62 86/186/86 
f 81/181/81 64/15/64 60/14/60 80/187/80 
f 78/183/78 63/4/63 71/3/71 83/188/83 
f 84/152/84 59/8/59 66/7/66 88/189/88 
f 79/184/79 68/12/68 61/11/61 82/190/82 
f 83/188/83 71/3/71 72/157/72 108/159/108 
f 76/170/76 58/169/58 85/192/85 105/191/105 
f 75/164/75 76/170/76 105/191/105 82/193/82 
f 89/148/89 4/147/4 12/173/12 94/172/94 
f 16/176/16 10/195/10 69/177/69 
f 70/179/70 69/177/69 10/114/10 
f 11/2/11 13/196/13 72/157/72 
f 21/166/21 20/197/20 76/170/76 
f 74/178/74 69/177/69 102/194/102 80/187/80 
f 102/194/102 69/177/69 70/179/70 77/153/77 
f 75/164/75 82/193/82 61/165/61 
f 73/156/73 65/121/65 87/158/87 
f 70/179/70 67/115/67 77/153/77 
f 74/178/74 80/187/80 60/14/60 
