mtllib model.mtl
o model.obj
v -1.791592 0.000000 -1.193348
v 1.792062 0.000000 1.193348
v -2.043762 5.079648 1.321665
v 2.044152 5.079648 1.321665
v -1.791592 0.000000 1.193348
v 1.792062 0.000000 -1.193348
v 2.066817 5.079648 -1.321665
v -2.043762 5.079648 -1.321665
v 1.825349 5.079648 -1.435082
v 1.534845 0.000000 1.295753
v 1.534845 0.000000 -1.295753
v 1.751653 5.079648 1.435082
v -1.540286 0.000000 -1.295753
v -1.756184 5.079648 1.435082
v -1.756184 5.079648 -1.435082
v -1.540286 0.000000 1.295753
v 1.894187 0.000000 0.950930
v 2.160721 5.079648 1.053181
v -2.160721 5.079648 1.053181
v -1.894187 0.000000 0.950930
v -1.894187 0.000000 -0.950930
v 1.894187 0.000000 -0.950930
v 2.160721 5.079648 -1.053181
v -2.160721 5.079648 -1.053181
v -1.885588 5.079648 1.161157
v 1.885979 5.079648 1.161157
v 1.906889 5.079648 -1.161157
v -1.885588 5.079648 -1.161157
v 1.684093 5.079648 -1.260800
v 1.616099 5.079648 1.260800
v -1.620280 5.079648 1.260800
v -1.620280 5.079648 -1.260800
v 1.993512 5.079648 0.925279
v -1.993512 5.079648 0.925279
v 1.993512 5.079648 -0.925279
v -1.993512 5.079648 -0.925279
v -0.000828 0.000000 -0.000000
v 1.609523 3.674694 -1.012577
v 1.426656 3.701755 -1.102768
v -1.647814 3.952519 1.047324
v -1.409935 3.919852 1.133272
v 1.549964 3.474824 0.997896
v 1.637498 3.471289 0.795502
v -1.752280 3.998048 0.838934
v 1.673110 3.631924 -0.802746
v -1.818879 4.298456 -0.857703
v -1.474660 4.279055 -1.167628
v 1.333485 3.503615 1.086507
v 1.651261 3.533370 0.000000
v -1.786518 4.152485 0.000000
v 0.595000 3.808503 -1.114761
v -0.595000 4.097345 -1.147213
v -0.595000 3.861634 1.126731
v 0.595000 3.641233 1.101969
v -1.726790 4.323790 -1.077178
v -0.595000 4.009812 0.000000
v 0.595000 3.792618 0.000000
vn -0.460753 -0.751349 -0.472421
vn 0.459388 -0.751843 0.472965
vn -0.486984 0.716897 0.498905
vn 0.484184 0.719077 0.498493
vn -0.462078 -0.749924 0.473389
vn 0.472047 -0.756563 -0.452531
vn 0.499343 0.722153 -0.478698
vn -0.485613 0.718516 -0.497910
vn 0.134364 0.700386 -0.701003
vn 0.126622 -0.725047 0.676959
vn 0.129394 -0.726314 -0.675075
vn 0.131105 0.701077 0.700929
vn -0.128528 -0.725252 -0.676380
vn -0.136976 0.701582 0.699300
vn -0.133089 0.701252 -0.700380
vn -0.132255 -0.725684 0.675198
vn 0.666908 -0.732859 0.134728
vn 0.704883 0.694883 0.142399
vn -0.703579 0.695335 0.146581
vn -0.665639 -0.733276 0.138677
vn -0.666738 -0.732915 -0.135265
vn 0.672859 -0.730893 -0.114263
vn 0.710951 0.692800 -0.120731
vn -0.704708 0.694944 -0.142968
vn 0.410396 0.797405 -0.442402
vn -0.409563 0.797259 -0.443437
vn -0.436859 0.800789 0.409745
vn 0.409121 0.798769 0.441122
vn -0.086309 0.543183 0.835167
vn -0.073657 0.536412 -0.840736
vn 0.091690 0.631081 -0.770279
vn 0.091690 0.633854 0.767999
vn -0.725969 0.679922 -0.103320
vn 0.725217 0.680699 -0.103486
vn -0.729950 0.678142 0.085418
vn 0.724376 0.681603 0.103424
vn 0.000000 -1.000000 0.000000
vn -0.325500 0.816755 0.476405
vn -0.046241 0.762448 0.645395
vn 0.483798 0.802481 -0.349232
vn 0.177550 0.794137 -0.581224
vn -0.298972 0.861477 -0.410455
vn -0.502737 0.860074 -0.086761
vn 0.655069 0.755260 -0.021619
vn -0.501401 0.840091 0.206987
vn 0.639512 0.735813 0.222718
vn 0.238286 0.714094 0.658247
vn 0.009576 0.802373 -0.596745
vn -0.688209 0.723248 0.057279
vn 0.768507 0.634545 0.082152
vn 0.121175 0.730655 0.671908
vn 0.134483 0.714797 0.686279
vn 0.103172 0.779476 -0.617878
vn 0.131396 0.776502 -0.616262
vn 0.479820 0.731328 0.484697
vn 0.137479 0.982138 0.128474
vn 0.196393 0.976470 0.089086
vt 0.565891 0.665139
vt 0.548225 0.664646
vt 0.566609 0.005160
vt 0.583632 0.005731
vt 0.286865 0.666420
vt 0.266846 0.666941
vt 0.253011 0.007472
vt 0.270677 0.006999
vt 0.287440 0.005160
vt 0.305518 0.664397
vt 0.023256 0.666418
vt 0.004594 0.664397
vt 0.022670 0.005160
vt 0.039445 0.006997
vt 0.995475 0.002500
vt 0.995315 0.275856
vt 0.670704 0.261798
vt 0.670849 0.014981
vt 0.042984 0.666940
vt 0.056762 0.007472
vt 0.601750 0.007964
vt 0.582652 0.667081
vt 0.334660 0.665330
vt 0.317885 0.667183
vt 0.299654 0.007964
vt 0.318316 0.005925
vt 0.338043 0.005383
vt 0.351976 0.664837
vt 0.670815 0.560172
vt 0.670744 0.286816
vt 0.995366 0.299741
vt 0.995430 0.546558
vt 0.958755 0.965016
vt 0.972974 0.952084
vt 0.983180 0.972914
vt 0.967770 0.987633
vt 0.747877 0.637770
vt 0.730946 0.650701
vt 0.720851 0.629871
vt 0.739204 0.615152
vt 0.978502 0.681313
vt 0.971640 0.650701
vt 0.981734 0.629871
vt 0.989173 0.664714
vt 0.713387 0.664714
vt 0.724058 0.681313
vt 0.978502 0.921473
vt 0.989173 0.938071
vt 0.724058 0.921473
vt 0.713387 0.938071
vt 0.747877 0.965016
vt 0.739204 0.987633
vt 0.954416 0.637770
vt 0.963067 0.615152
vt 0.730946 0.952084
vt 0.720851 0.972914
vt 0.852880 0.800340
vt 0.934416 0.660437
vt 0.948073 0.671494
vt 0.953495 0.903013
vt 0.948073 0.929186
vt 0.752353 0.697668
vt 0.757800 0.671494
vt 0.771143 0.940243
vt 0.757800 0.929186
vt 0.934416 0.940243
vt 0.752353 0.903013
vt 0.953495 0.697668
vt 0.771143 0.660437
vt 0.589710 0.812230
vt 0.608765 0.995544
vt 0.593219 0.997500
vt 0.576841 0.817490
vt 0.481004 0.832210
vt 0.496266 0.685229
vt 0.478202 0.683401
vt 0.464779 0.834823
vt 0.274890 0.894524
vt 0.253325 0.685232
vt 0.237153 0.692314
vt 0.261194 0.901109
vt 0.512449 0.692314
vt 0.496160 0.832710
vt 0.289700 0.889185
vt 0.271663 0.683406
vt 0.391664 0.892664
vt 0.382341 0.997253
vt 0.364280 0.995322
vt 0.374443 0.896638
vt 0.602641 0.800024
vt 0.624365 0.987986
vt 0.348124 0.987986
vt 0.359993 0.886566
vt 0.161974 0.837249
vt 0.161840 0.981957
vt 0.083695 0.986431
vt 0.084754 0.837113
vt 0.163756 0.692919
vt 0.086523 0.689656
vt 0.019032 0.698029
vt 0.034403 0.687194
vt 0.225595 0.706468
vt 0.231149 0.732739
vt 0.231392 0.836281
vt 0.211684 0.694897
vt 0.231616 0.941256
vt 0.227130 0.968750
vt 0.215340 0.980435
vt 0.604276 0.712739
vt 0.600218 0.609502
vt 0.705345 0.592660
vt 0.705345 0.832819
vt 0.610718 0.816918
vt 0.602684 0.461509
vt 0.612225 0.350199
vt 0.663310 0.341430
vt 0.663310 0.581589
vt 0.592588 0.570383
vt 0.011960 0.725275
vt 0.008164 0.835786
vt 0.336829 0.871212
vt 0.412772 0.842427
vt 0.447808 0.869000
vt 0.523763 0.831368
vt 0.026378 0.989205
vt 0.010040 0.977479
vt 0.004525 0.948523
g base
usemtl Default
f 6/1/6 11/2/11 9/3/9 7/4/7 
f 4/5/4 12/6/12 10/7/10 2/8/2 
f 2/8/2 17/9/17 18/10/18 4/5/4 
f 3/11/3 19/12/19 20/13/20 5/14/5 
f 19/15/19 24/16/24 21/17/21 20/18/20 
f 12/6/12 14/19/14 16/20/16 10/7/10 
f 7/4/7 23/21/23 22/22/22 6/1/6 
f 1/23/1 21/24/21 24/25/24 8/26/8 
f 8/26/8 15/27/15 13/28/13 1/23/1 
f 5/14/5 16/20/16 14/19/14 3/11/3 
f 15/27/15 9/3/9 11/2/11 13/28/13 
f 23/29/23 18/30/18 17/31/17 22/32/22 
f 29/33/29 27/34/27 7/35/7 9/36/9 
f 31/37/31 25/38/25 3/39/3 14/40/14 
f 33/41/33 26/42/26 4/43/4 18/44/18 
f 19/45/19 3/39/3 25/38/25 34/46/34 
f 35/47/35 33/41/33 18/44/18 23/48/23 
f 34/46/34 36/49/36 24/50/24 19/45/19 
f 32/51/32 29/33/29 9/36/9 15/52/15 
f 30/53/30 31/37/31 14/40/14 12/54/12 
f 26/42/26 30/53/30 12/54/12 4/43/4 
f 28/55/28 32/51/32 15/52/15 8/56/8 
f 27/34/27 35/47/35 23/48/23 7/35/7 
f 8/56/8 24/50/24 36/49/36 28/55/28 
f 37/57/37 11/58/11 6/59/6 
f 37/57/37 17/60/17 2/61/2 
f 37/57/37 21/62/21 1/63/1 
f 37/57/37 16/64/16 5/65/5 
f 37/57/37 2/61/2 10/66/10 
f 37/57/37 5/65/5 20/67/20 
f 37/57/37 20/67/20 21/62/21 
f 37/57/37 10/66/10 16/64/16 
f 37/57/37 6/59/6 22/68/22 
f 37/57/37 1/63/1 13/69/13 
f 37/57/37 13/69/13 11/58/11 
f 37/57/37 22/68/22 17/60/17 
f 38/70/38 27/71/27 29/72/29 39/73/39 
f 40/74/40 25/75/25 31/76/31 41/77/41 
f 42/78/42 26/79/26 33/80/33 43/81/43 
f 34/82/34 25/75/25 40/74/40 44/83/44 
f 48/84/48 30/85/30 26/79/26 42/78/42 
f 47/86/47 32/87/32 28/88/28 55/89/55 
f 45/90/45 35/91/35 27/71/27 38/70/38 
f 28/88/28 36/92/36 46/93/46 55/89/55 
f 57/94/57 51/95/51 52/96/52 
f 52/96/52 56/97/56 57/94/57 
f 54/98/54 57/94/57 53/99/53 
f 53/99/53 57/94/57 56/97/56 
f 56/97/56 40/100/40 41/101/41 
f 57/94/57 42/102/42 43/103/43 
f 43/103/43 49/104/49 57/94/57 
f 57/94/57 54/98/54 48/105/48 
f 57/94/57 48/105/48 42/102/42 
f 57/94/57 49/104/49 45/106/45 
f 57/94/57 45/106/45 38/107/38 
f 57/94/57 38/107/38 39/108/39 
f 57/94/57 39/108/39 51/95/51 
f 49/109/49 43/110/43 33/111/33 
f 49/109/49 33/111/33 35/112/35 
f 49/109/49 35/112/35 45/113/45 
f 50/114/50 46/115/46 36/116/36 
f 50/114/50 36/116/36 34/117/34 
f 50/114/50 34/117/34 44/118/44 
f 44/119/44 40/100/40 56/97/56 
f 56/97/56 50/120/50 44/119/44 
f 41/101/41 53/99/53 56/97/56 
f 30/85/30 48/84/48 54/121/54 
f 30/85/30 54/121/54 53/122/53 
f 53/122/53 41/77/41 31/76/31 
f 31/76/31 30/85/30 53/122/53 
f 32/87/32 47/86/47 52/123/52 
f 52/123/52 29/72/29 32/87/32 
f 29/72/29 52/123/52 51/124/51 
f 29/72/29 51/124/51 39/73/39 
f 56/97/56 52/96/52 47/125/47 
f 56/97/56 47/125/47 55/126/55 
f 56/97/56 55/126/55 46/127/46 
f 46/127/46 50/120/50 56/97/56 
