mtllib model.mtl
o model.obj
v 0.000000 -3.000000 0.000000
v 0.500000 -3.000000 0.000000
v 0.000000 -2.853170 0.927051
v 0.500000 -2.853170 0.927051
v 0.000000 -2.427051 1.763356
v 0.500000 -2.427051 1.763356
v 0.000000 -1.763356 2.427051
v 0.500000 -1.763356 2.427051
v 0.000000 -0.927051 2.853169
v 0.500000 -0.927051 2.853169
v 0.000000 -0.000000 3.000000
v 0.500000 -0.000000 3.000000
v 0.000000 0.927051 2.853169
v 0.500000 0.927051 2.853169
v 0.000000 1.763355 2.427051
v 0.500000 1.763355 2.427051
v 0.000000 2.427051 1.763356
v 0.500000 2.427051 1.763356
v 0.000000 2.853170 0.927051
v 0.500000 2.853170 0.927051
v 0.000000 3.000000 0.000000
v 0.500000 3.000000 0.000000
v 0.000000 2.853170 -0.927051
v 0.500000 2.853170 -0.927051
v 0.000000 2.427051 -1.763356
v 0.500000 2.427051 -1.763356
v 0.000000 1.763355 -2.427051
v 0.500000 1.763355 -2.427051
v 0.000000 0.927051 -2.853169
v 0.500000 0.927051 -2.853169
v 0.000000 -0.000000 -3.000000
v 0.500000 -0.000000 -3.000000
v 0.000000 -0.927052 -2.853170
v 0.500000 -0.927052 -2.853170
v 0.000000 -1.763357 -2.427051
v 0.500000 -1.763357 -2.427051
v 0.000000 -2.427052 -1.763356
v 0.500000 -2.427052 -1.763356
v 0.000000 -2.853171 -0.927051
v 0.500000 -2.853171 -0.927051
v 0.500000 -0.000000 0.000000
vn 0.000000 -1.000000 0.000001
vn 0.711473 -0.702714 0.000000
vn 0.000000 -0.951057 0.309017
vn 0.711473 -0.668320 0.217150
vn 0.000000 -0.809017 0.587785
vn 0.711473 -0.568507 0.413045
vn 0.000000 -0.587785 0.809017
vn 0.711473 -0.413044 0.568507
vn 0.000000 -0.309017 0.951057
vn 0.711473 -0.217150 0.668320
vn 0.000000 0.000000 1.000000
vn 0.711473 0.000000 0.702713
vn 0.000000 0.309017 0.951056
vn 0.711473 0.217151 0.668320
vn 0.000000 0.587785 0.809017
vn 0.711473 0.413044 0.568507
vn 0.000000 0.809017 0.587786
vn 0.711473 0.568507 0.413045
vn 0.000000 0.951057 0.309017
vn 0.711473 0.668320 0.217150
vn 0.000000 1.000000 0.000000
vn 0.711473 0.702714 0.000000
vn 0.000000 0.951057 -0.309017
vn 0.711473 0.668320 -0.217150
vn 0.000000 0.809017 -0.587786
vn 0.711473 0.568507 -0.413045
vn 0.000000 0.587785 -0.809017
vn 0.711473 0.413044 -0.568507
vn 0.000000 0.309017 -0.951056
vn 0.711473 0.217151 -0.668320
vn 0.000000 0.000001 -1.000000
vn 0.711473 0.000000 -0.702713
vn 0.000000 -0.309017 -0.951057
vn 0.711473 -0.217150 -0.668320
vn 0.000000 -0.587785 -0.809017
vn 0.711473 -0.413045 -0.568507
vn 0.000000 -0.809017 -0.587785
vn 0.711473 -0.568507 -0.413045
vn 0.000000 -0.951057 -0.309016
vn 0.711473 -0.668320 -0.217150
vn 1.000000 0.000000 0.000000
vt 1.146460 0.746077
vt 1.146460 0.502897
vt 1.276003 0.502897
vt 1.276003 0.746077
vt 0.970820 0.347021
vt 0.995049 0.500000
vt 0.500000 0.500000
vt 1.146460 0.497104
vt 1.146460 0.253924
vt 1.276003 0.253924
vt 1.276003 0.497104
vt 0.900503 0.209017
vt 1.552469 0.746077
vt 1.552469 0.502897
vt 1.682012 0.502897
vt 1.682012 0.746077
vt 0.790983 0.099497
vt 1.281797 0.746077
vt 1.281797 0.502897
vt 1.411340 0.502897
vt 1.411340 0.746077
vt 0.652979 0.029180
vt 1.417133 0.497104
vt 1.417133 0.253924
vt 1.546676 0.253924
vt 1.546676 0.497104
vt 0.500000 0.004950
vt 1.281797 0.497104
vt 1.281797 0.253924
vt 1.411340 0.253924
vt 1.411340 0.497104
vt 0.347021 0.029180
vt 1.146460 0.995050
vt 1.146460 0.751870
vt 1.276003 0.751870
vt 1.276003 0.995050
vt 0.209017 0.099497
vt 1.281797 0.248130
vt 1.281797 0.004950
vt 1.411340 0.004950
vt 1.411340 0.248130
vt 0.099497 0.209017
vt 1.552469 0.248130
vt 1.552469 0.004950
vt 1.682012 0.004950
vt 1.682012 0.248130
vt 0.029180 0.347021
vt 1.011124 0.746077
vt 1.011124 0.502897
vt 1.140667 0.502897
vt 1.140667 0.746077
vt 0.004951 0.500000
vt 1.687805 0.497104
vt 1.687805 0.253924
vt 1.817348 0.253924
vt 1.817348 0.497104
vt 0.029180 0.652979
vt 1.687805 0.248130
vt 1.687805 0.004950
vt 1.817348 0.004950
vt 1.817348 0.248130
vt 0.099497 0.790983
vt 1.146460 0.248130
vt 1.146460 0.004950
vt 1.276003 0.004950
vt 1.276003 0.248130
vt 0.209017 0.900503
vt 1.011124 0.995050
vt 1.011124 0.751870
vt 1.140667 0.751870
vt 1.140667 0.995050
vt 0.347021 0.970820
vt 1.552469 0.497104
vt 1.552469 0.253924
vt 1.682012 0.253924
vt 1.682012 0.497104
vt 0.500000 0.995049
vt 1.011124 0.248130
vt 1.011124 0.004950
vt 1.140667 0.004950
vt 1.140667 0.248130
vt 0.652979 0.970820
vt 1.011124 0.497104
vt 1.011124 0.253924
vt 1.140667 0.253924
vt 1.140667 0.497104
vt 0.790983 0.900504
vt 1.687805 0.746077
vt 1.687805 0.502897
vt 1.817348 0.502897
vt 1.817348 0.746077
vt 0.900504 0.790983
vt 1.417133 0.248130
vt 1.417133 0.004950
vt 1.546676 0.004950
vt 1.546676 0.248130
vt 0.970820 0.652979
vt 1.417133 0.746077
vt 1.417133 0.502897
vt 1.546676 0.502897
vt 1.546676 0.746077
g Cylinder
usemtl Default
f 3/1/3 1/2/1 2/3/2 4/4/4 
f 4/5/4 2/6/2 41/7/41 
f 5/8/5 3/9/3 4/10/4 6/11/6 
f 6/12/6 4/5/4 41/7/41 
f 7/13/7 5/14/5 6/15/6 8/16/8 
f 8/17/8 6/12/6 41/7/41 
f 9/18/9 7/19/7 8/20/8 10/21/10 
f 10/22/10 8/17/8 41/7/41 
f 11/23/11 9/24/9 10/25/10 12/26/12 
f 12/27/12 10/22/10 41/7/41 
f 13/28/13 11/29/11 12/30/12 14/31/14 
f 14/32/14 12/27/12 41/7/41 
f 15/33/15 13/34/13 14/35/14 16/36/16 
f 16/37/16 14/32/14 41/7/41 
f 17/38/17 15/39/15 16/40/16 18/41/18 
f 18/42/18 16/37/16 41/7/41 
f 19/43/19 17/44/17 18/45/18 20/46/20 
f 20/47/20 18/42/18 41/7/41 
f 21/48/21 19/49/19 20/50/20 22/51/22 
f 22/52/22 20/47/20 41/7/41 
f 23/53/23 21/54/21 22/55/22 24/56/24 
f 24/57/24 22/52/22 41/7/41 
f 25/58/25 23/59/23 24/60/24 26/61/26 
f 26/62/26 24/57/24 41/7/41 
f 27/63/27 25/64/25 26/65/26 28/66/28 
f 28/67/28 26/62/26 41/7/41 
f 29/68/29 27/69/27 28/70/28 30/71/30 
f 30/72/30 28/67/28 41/7/41 
f 31/73/31 29/74/29 30/75/30 32/76/32 
f 32/77/32 30/72/30 41/7/41 
f 33/78/33 31/79/31 32/80/32 34/81/34 
f 34/82/34 32/77/32 41/7/41 
f 35/83/35 33/84/33 34/85/34 36/86/36 
f 36/87/36 34/82/34 41/7/41 
f 37/88/37 35/89/35 36/90/36 38/91/38 
f 38/92/38 36/87/36 41/7/41 
f 39/93/39 37/94/37 38/95/38 40/96/40 
f 40/97/40 38/92/38 41/7/41 
f 1/98/1 39/99/39 40/100/40 2/101/2 
f 2/6/2 40/97/40 41/7/41 
