mtllib model.mtl
o model.obj
v 0.000000 -3.000000 -0.000000
v 0.375000 -3.000000 -0.000000
v 0.000000 -2.897778 0.776457
v 0.375000 -2.897778 0.776457
v 0.000000 -2.598076 1.500000
v 0.375000 -2.598076 1.500000
v 0.000000 -2.121320 2.121320
v 0.375000 -2.121320 2.121320
v 0.000000 -1.500000 2.598076
v 0.375000 -1.500000 2.598076
v 0.000000 -0.776457 2.897778
v 0.375000 -0.776457 2.897778
v 0.000000 0.000000 3.000000
v 0.375000 0.000000 3.000000
v 0.000000 0.776457 2.897778
v 0.375000 0.776457 2.897778
v 0.000000 1.500000 2.598076
v 0.375000 1.500000 2.598076
v 0.000000 2.121320 2.121320
v 0.375000 2.121320 2.121320
v 0.000000 2.598076 1.500000
v 0.375000 2.598076 1.500000
v 0.000000 2.897778 0.776457
v 0.375000 2.897778 0.776457
v 0.000000 3.000000 -0.000000
v 0.375000 3.000000 -0.000000
v 0.000000 2.897778 -0.776457
v 0.375000 2.897778 -0.776457
v 0.000000 2.598076 -1.500000
v 0.375000 2.598076 -1.500000
v 0.000000 2.121320 -2.121321
v 0.375000 2.121320 -2.121321
v 0.000000 1.500000 -2.598076
v 0.375000 1.500000 -2.598076
v 0.000000 0.776457 -2.897778
v 0.375000 0.776457 -2.897778
v 0.000000 0.000000 -3.000000
v 0.375000 0.000000 -3.000000
v 0.000000 -0.776457 -2.897778
v 0.375000 -0.776457 -2.897778
v 0.000000 -1.500000 -2.598076
v 0.375000 -1.500000 -2.598076
v 0.000000 -2.121320 -2.121320
v 0.375000 -2.121320 -2.121320
v 0.000000 -2.598076 -1.500000
v 0.375000 -2.598076 -1.500000
v 0.000000 -2.897777 -0.776457
v 0.375000 -2.897777 -0.776457
v 0.250000 0.000000 -0.000000
v 0.375000 -2.589400 -0.000000
v 0.375000 -2.501168 0.670186
v 0.375000 -2.242486 1.294700
v 0.375000 -1.830982 1.830982
v 0.375000 -1.294700 2.242486
v 0.375000 -0.670186 2.501168
v 0.375000 0.000000 2.589400
v 0.375000 0.670186 2.501168
v 0.375000 1.294700 2.242486
v 0.375000 1.830983 1.830982
v 0.375000 2.242486 1.294700
v 0.375000 2.501168 0.670186
v 0.375000 2.589400 -0.000000
v 0.375000 2.501168 -0.670186
v 0.375000 2.242486 -1.294700
v 0.375000 1.830982 -1.830983
v 0.375000 1.294700 -2.242486
v 0.375000 0.670186 -2.501168
v 0.375000 0.000000 -2.589400
v 0.375000 -0.670186 -2.501168
v 0.375000 -1.294700 -2.242486
v 0.375000 -1.830982 -1.830982
v 0.375000 -2.242486 -1.294700
v 0.375000 -2.501168 -0.670186
v 0.250000 -2.589400 -0.000000
v 0.250000 -2.501168 0.670186
v 0.250000 -2.242486 1.294700
v 0.250000 -1.830982 1.830982
v 0.250000 -1.294700 2.242486
v 0.250000 -0.670186 2.501168
v 0.250000 0.000000 2.589400
v 0.250000 0.670186 2.501168
v 0.250000 1.294700 2.242486
v 0.250000 1.830983 1.830982
v 0.250000 2.242486 1.294700
v 0.250000 2.501168 0.670186
v 0.250000 2.589400 -0.000000
v 0.250000 2.501168 -0.670186
v 0.250000 2.242486 -1.294700
v 0.250000 1.830982 -1.830983
v 0.250000 1.294700 -2.242486
v 0.250000 0.670186 -2.501168
v 0.250000 0.000000 -2.589400
v 0.250000 -0.670186 -2.501168
v 0.250000 -1.294700 -2.242486
v 0.250000 -1.830982 -1.830982
v 0.250000 -2.242486 -1.294700
v 0.250000 -2.501168 -0.670186
vn 0.000000 -0.999038 -0.043843
vn 0.709799 -0.703727 0.030882
vn 0.000000 -0.976344 0.216222
vn 0.709799 -0.671755 0.211968
vn 0.000000 -0.887113 0.461552
vn 0.709799 -0.594004 0.378609
vn 0.000000 -0.737428 0.675426
vn 0.709799 -0.475773 0.519447
vn 0.000000 -0.537488 0.843271
vn 0.709799 -0.325119 0.624886
vn 0.000000 -0.300919 0.953650
vn 0.709799 -0.152308 0.687741
vn 0.000000 -0.043842 0.999039
vn 0.709799 0.030882 0.703727
vn 0.000000 0.216222 0.976344
vn 0.709799 0.211968 0.671755
vn 0.000000 0.461552 0.887113
vn 0.709799 0.378609 0.594004
vn 0.000000 0.675426 0.737428
vn 0.709799 0.519447 0.475773
vn 0.000000 0.843271 0.537488
vn 0.709799 0.624886 0.325119
vn 0.000000 0.953650 0.300919
vn 0.709799 0.687741 0.152308
vn 0.000000 0.999039 0.043842
vn 0.709799 0.703727 -0.030882
vn 0.000000 0.976344 -0.216222
vn 0.709799 0.671755 -0.211968
vn 0.000000 0.887114 -0.461551
vn 0.709799 0.594004 -0.378608
vn 0.000000 0.737428 -0.675426
vn 0.709799 0.475773 -0.519447
vn 0.000000 0.537487 -0.843272
vn 0.709799 0.325119 -0.624886
vn 0.000000 0.300919 -0.953650
vn 0.709799 0.152308 -0.687741
vn 0.000000 0.043842 -0.999039
vn 0.709799 -0.030882 -0.703727
vn 0.000000 -0.216222 -0.976344
vn 0.709799 -0.211968 -0.671755
vn 0.000000 -0.461552 -0.887113
vn 0.709799 -0.378609 -0.594004
vn 0.000000 -0.675426 -0.737428
vn 0.709799 -0.519447 -0.475773
vn 0.000000 -0.843272 -0.537488
vn 0.709799 -0.624887 -0.325118
vn 0.000000 -0.953650 -0.300918
vn 0.709799 -0.687741 -0.152308
vn 1.000000 0.000000 0.000000
vn 0.709799 0.703727 0.030883
vn 0.709799 0.687741 -0.152308
vn 0.709799 0.624886 -0.325118
vn 0.709799 0.519447 -0.475773
vn 0.709799 0.378609 -0.594004
vn 0.709799 0.211968 -0.671755
vn 0.709799 0.030883 -0.703727
vn 0.709799 -0.152308 -0.687741
vn 0.709799 -0.325118 -0.624887
vn 0.709799 -0.475773 -0.519447
vn 0.709799 -0.594004 -0.378608
vn 0.709799 -0.671755 -0.211968
vn 0.709799 -0.703727 -0.030883
vn 0.709799 -0.687741 0.152308
vn 0.709799 -0.624887 0.325118
vn 0.709799 -0.519447 0.475773
vn 0.709799 -0.378608 0.594004
vn 0.709799 -0.211968 0.671755
vn 0.709799 -0.030883 0.703727
vn 0.709799 0.152308 0.687741
vn 0.709799 0.325118 0.624886
vn 0.709799 0.475773 0.519447
vn 0.709799 0.594004 0.378609
vn 0.709799 0.671755 0.211968
vn 0.557631 0.829291 -0.036393
vn 0.557631 0.791614 -0.249789
vn 0.557631 0.699990 -0.446163
vn 0.557631 0.560664 -0.612131
vn 0.557631 0.383128 -0.736383
vn 0.557631 0.179484 -0.810452
vn 0.557631 -0.036393 -0.829291
vn 0.557631 -0.249789 -0.791614
vn 0.557631 -0.446162 -0.699991
vn 0.557631 -0.612131 -0.560663
vn 0.557631 -0.736383 -0.383128
vn 0.557631 -0.810452 -0.179484
vn 0.557631 -0.829291 0.036393
vn 0.557631 -0.791614 0.249789
vn 0.557631 -0.699991 0.446162
vn 0.557631 -0.560663 0.612131
vn 0.557631 -0.383128 0.736383
vn 0.557631 -0.179484 0.810452
vn 0.557631 0.036393 0.829291
vn 0.557631 0.249789 0.791614
vn 0.557631 0.446163 0.699990
vn 0.557631 0.612131 0.560664
vn 0.557631 0.736383 0.383128
vn 0.557631 0.810452 0.179484
vt 0.371909 0.016951
vt 0.500000 0.000000
vt 0.500000 0.057984
vt 0.386720 0.072976
vt 0.499998 0.118224
vt 0.402103 0.131188
vt 0.252505 0.066599
vt 0.281103 0.116906
vt 0.310829 0.169197
vt 0.149727 0.145475
vt 0.190200 0.186763
vt 0.232314 0.229679
vt 0.070164 0.248336
vt 0.119942 0.277916
vt 0.171792 0.308610
vt 0.018863 0.368859
vt 0.074874 0.384585
vt 0.133287 0.400808
vt 0.000000 0.500000
vt 0.057927 0.500000
vt 0.119512 0.499965
vt 0.018863 0.631142
vt 0.074874 0.615415
vt 0.133283 0.599202
vt 0.070164 0.751664
vt 0.119942 0.722084
vt 0.171787 0.691402
vt 0.149727 0.854525
vt 0.190200 0.813237
vt 0.232314 0.770330
vt 0.252505 0.933401
vt 0.281103 0.883094
vt 0.310833 0.830807
vt 0.371909 0.983049
vt 0.386720 0.927024
vt 0.402107 0.868813
vt 0.500000 1.000000
vt 0.500000 0.942016
vt 0.500002 0.881776
vt 0.628092 0.983049
vt 0.613281 0.927024
vt 0.597898 0.868812
vt 0.747496 0.933401
vt 0.718898 0.883094
vt 0.689171 0.830803
vt 0.850273 0.854525
vt 0.809801 0.813237
vt 0.767688 0.770321
vt 0.929837 0.751664
vt 0.880059 0.722084
vt 0.828209 0.691390
vt 0.981138 0.631142
vt 0.925127 0.615415
vt 0.866714 0.599192
vt 1.000000 0.500000
vt 0.942074 0.500000
vt 0.880489 0.500035
vt 0.981138 0.368859
vt 0.925127 0.384585
vt 0.866718 0.400798
vt 0.929837 0.248336
vt 0.880059 0.277916
vt 0.828213 0.308598
vt 0.850273 0.145475
vt 0.809801 0.186763
vt 0.767687 0.229670
vt 0.747496 0.066599
vt 0.718898 0.116906
vt 0.689168 0.169193
vt 0.628092 0.016951
vt 0.613281 0.072976
vt 0.597894 0.131187
vt 0.499999 0.135759
vt 0.500000 0.500000
vt 0.406563 0.148144
vt 0.319456 0.184461
vt 0.244584 0.242268
vt 0.187043 0.317674
vt 0.150791 0.405581
vt 0.138386 0.499997
vt 0.150789 0.594417
vt 0.187041 0.682327
vt 0.244584 0.757734
vt 0.319457 0.815541
vt 0.406565 0.851857
vt 0.500002 0.864241
vt 0.593438 0.851856
vt 0.680544 0.815539
vt 0.755417 0.757732
vt 0.812958 0.682326
vt 0.849210 0.594419
vt 0.861615 0.500003
vt 0.849212 0.405583
vt 0.812960 0.317673
vt 0.755417 0.242266
vt 0.680544 0.184459
vt 0.593436 0.148143
g base
usemtl Default
f 3/1/3 1/2/1 2/3/2 
f 3/1/3 2/3/2 4/4/4 
f 4/4/4 2/3/2 50/5/50 
f 4/4/4 50/5/50 51/6/51 
f 5/7/5 3/1/3 4/4/4 
f 5/7/5 4/4/4 6/8/6 
f 6/8/6 4/4/4 51/6/51 
f 6/8/6 51/6/51 52/9/52 
f 7/10/7 5/7/5 6/8/6 
f 7/10/7 6/8/6 8/11/8 
f 8/11/8 6/8/6 52/9/52 
f 8/11/8 52/9/52 53/12/53 
f 9/13/9 7/10/7 8/11/8 
f 9/13/9 8/11/8 10/14/10 
f 10/14/10 8/11/8 53/12/53 
f 10/14/10 53/12/53 54/15/54 
f 11/16/11 9/13/9 10/14/10 
f 11/16/11 10/14/10 12/17/12 
f 12/17/12 10/14/10 54/15/54 
f 12/17/12 54/15/54 55/18/55 
f 13/19/13 11/16/11 12/17/12 
f 13/19/13 12/17/12 14/20/14 
f 14/20/14 12/17/12 55/18/55 
f 14/20/14 55/18/55 56/21/56 
f 15/22/15 13/19/13 14/20/14 
f 15/22/15 14/20/14 16/23/16 
f 16/23/16 14/20/14 56/21/56 
f 16/23/16 56/21/56 57/24/57 
f 17/25/17 15/22/15 16/23/16 
f 17/25/17 16/23/16 18/26/18 
f 18/26/18 16/23/16 57/24/57 
f 18/26/18 57/24/57 58/27/58 
f 19/28/19 17/25/17 18/26/18 
f 19/28/19 18/26/18 20/29/20 
f 20/29/20 18/26/18 58/27/58 
f 20/29/20 58/27/58 59/30/59 
f 21/31/21 19/28/19 20/29/20 
f 21/31/21 20/29/20 22/32/22 
f 22/32/22 20/29/20 59/30/59 
f 22/32/22 59/30/59 60/33/60 
f 23/34/23 21/31/21 22/32/22 
f 23/34/23 22/32/22 24/35/24 
f 24/35/24 22/32/22 60/33/60 
f 24/35/24 60/33/60 61/36/61 
f 25/37/25 23/34/23 24/35/24 
f 25/37/25 24/35/24 26/38/26 
f 26/38/26 24/35/24 61/36/61 
f 26/38/26 61/36/61 62/39/62 
f 27/40/27 25/37/25 26/38/26 
f 27/40/27 26/38/26 28/41/28 
f 28/41/28 26/38/26 62/39/62 
f 28/41/28 62/39/62 63/42/63 
f 29/43/29 27/40/27 28/41/28 
f 29/43/29 28/41/28 30/44/30 
f 30/44/30 28/41/28 63/42/63 
f 30/44/30 63/42/63 64/45/64 
f 31/46/31 29/43/29 30/44/30 
f 31/46/31 30/44/30 32/47/32 
f 32/47/32 30/44/30 64/45/64 
f 32/47/32 64/45/64 65/48/65 
f 33/49/33 31/46/31 32/47/32 
f 33/49/33 32/47/32 34/50/34 
f 34/50/34 32/47/32 65/48/65 
f 34/50/34 65/48/65 66/51/66 
f 35/52/35 33/49/33 34/50/34 
f 35/52/35 34/50/34 36/53/36 
f 36/53/36 34/50/34 66/51/66 
f 36/53/36 66/51/66 67/54/67 
f 37/55/37 35/52/35 36/53/36 
f 37/55/37 36/53/36 38/56/38 
f 38/56/38 36/53/36 67/54/67 
f 38/56/38 67/54/67 68/57/68 
f 39/58/39 37/55/37 38/56/38 
f 39/58/39 38/56/38 40/59/40 
f 40/59/40 38/56/38 68/57/68 
f 40/59/40 68/57/68 69/60/69 
f 41/61/41 39/58/39 40/59/40 
f 41/61/41 40/59/40 42/62/42 
f 42/62/42 40/59/40 69/60/69 
f 42/62/42 69/60/69 70/63/70 
f 43/64/43 41/61/41 42/62/42 
f 43/64/43 42/62/42 44/65/44 
f 44/65/44 42/62/42 70/63/70 
f 44/65/44 70/63/70 71/66/71 
f 45/67/45 43/64/43 44/65/44 
f 45/67/45 44/65/44 46/68/46 
f 46/68/46 44/65/44 71/66/71 
f 46/68/46 71/66/71 72/69/72 
f 47/70/47 45/67/45 46/68/46 
f 47/70/47 46/68/46 48/71/48 
f 48/71/48 46/68/46 72/69/72 
f 48/71/48 72/69/72 73/72/73 
f 1/2/1 47/70/47 48/71/48 
f 1/2/1 48/71/48 2/3/2 
f 2/3/2 48/71/48 73/72/73 
f 2/3/2 73/72/73 50/5/50 
f 74/73/74 49/74/49 75/75/75 
f 75/75/75 49/74/49 76/76/76 
f 76/76/76 49/74/49 77/77/77 
f 77/77/77 49/74/49 78/78/78 
f 78/78/78 49/74/49 79/79/79 
f 79/79/79 49/74/49 80/80/80 
f 80/80/80 49/74/49 81/81/81 
f 81/81/81 49/74/49 82/82/82 
f 82/82/82 49/74/49 83/83/83 
f 83/83/83 49/74/49 84/84/84 
f 84/84/84 49/74/49 85/85/85 
f 85/85/85 49/74/49 86/86/86 
f 86/86/86 49/74/49 87/87/87 
f 87/87/87 49/74/49 88/88/88 
f 88/88/88 49/74/49 89/89/89 
f 89/89/89 49/74/49 90/90/90 
f 90/90/90 49/74/49 91/91/91 
f 91/91/91 49/74/49 92/92/92 
f 92/92/92 49/74/49 93/93/93 
f 93/93/93 49/74/49 94/94/94 
f 94/94/94 49/74/49 95/95/95 
f 95/95/95 49/74/49 96/96/96 
f 96/96/96 49/74/49 97/97/97 
f 97/97/97 49/74/49 74/73/74 
f 51/6/51 50/5/50 74/73/74 
f 51/6/51 74/73/74 75/75/75 
f 52/9/52 51/6/51 75/75/75 
f 52/9/52 75/75/75 76/76/76 
f 53/12/53 52/9/52 76/76/76 
f 53/12/53 76/76/76 77/77/77 
f 54/15/54 53/12/53 77/77/77 
f 54/15/54 77/77/77 78/78/78 
f 55/18/55 54/15/54 78/78/78 
f 55/18/55 78/78/78 79/79/79 
f 56/21/56 55/18/55 79/79/79 
f 56/21/56 79/79/79 80/80/80 
f 57/24/57 56/21/56 80/80/80 
f 57/24/57 80/80/80 81/81/81 
f 58/27/58 57/24/57 81/81/81 
f 58/27/58 81/81/81 82/82/82 
f 59/30/59 58/27/58 82/82/82 
f 59/30/59 82/82/82 83/83/83 
f 60/33/60 59/30/59 83/83/83 
f 60/33/60 83/83/83 84/84/84 
f 61/36/61 60/33/60 84/84/84 
f 61/36/61 84/84/84 85/85/85 
f 62/39/62 61/36/61 85/85/85 
f 62/39/62 85/85/85 86/86/86 
f 63/42/63 62/39/62 86/86/86 
f 63/42/63 86/86/86 87/87/87 
f 64/45/64 63/42/63 87/87/87 
f 64/45/64 87/87/87 88/88/88 
f 65/48/65 64/45/64 88/88/88 
f 65/48/65 88/88/88 89/89/89 
f 66/51/66 65/48/65 89/89/89 
f 66/51/66 89/89/89 90/90/90 
f 67/54/67 66/51/66 90/90/90 
f 67/54/67 90/90/90 91/91/91 
f 68/57/68 67/54/67 91/91/91 
f 68/57/68 91/91/91 92/92/92 
f 69/60/69 68/57/68 92/92/92 
f 69/60/69 92/92/92 93/93/93 
f 70/63/70 69/60/69 93/93/93 
f 70/63/70 93/93/93 94/94/94 
f 71/66/71 70/63/70 94/94/94 
f 71/66/71 94/94/94 95/95/95 
f 72/69/72 71/66/71 95/95/95 
f 72/69/72 95/95/95 96/96/96 
f 73/72/73 72/69/72 96/96/96 
f 73/72/73 96/96/96 97/97/97 
f 50/5/50 73/72/73 97/97/97 
f 50/5/50 97/97/97 74/73/74 
v 0.249894 -0.193736 0.415122
v 0.300151 -0.337162 0.381093
v 0.300151 1.151148 -1.301136
v 0.264283 1.176544 -1.183595
v 0.249894 -0.388417 0.242882
v 0.264283 1.031388 -1.312018
v 0.362317 -2.057699 -0.649841
v 0.362317 -2.046680 -0.683756
v 0.362317 -0.055065 -0.053399
v 0.362317 -0.075935 0.010833
v 0.362317 0.079077 -0.020503
v 0.362317 0.051924 0.063064
v 0.362317 0.008654 0.076436
v 0.362317 0.051930 -0.056753
v 0.362317 1.065949 0.285302
v 0.362317 1.030068 0.395733
v 0.362317 -0.051930 0.056751
v 0.362317 -0.008654 -0.076438
v 0.303095 0.391738 -0.520550
v 0.353353 0.489571 -0.496799
v 0.353353 -1.671503 1.696190
v 0.317484 -1.661390 1.594195
v 0.303095 0.514753 -0.399325
v 0.317484 -1.569670 1.684581
vn 0.935401 0.264500 0.234657
vn 1.000000 0.000001 0.000001
vn 1.000000 -0.000343 0.000389
vn 0.938052 0.258865 0.230319
vn 0.935402 -0.265142 -0.233930
vn 0.938052 -0.260150 -0.228866
vn 1.000000 0.000000 0.000000
vn 1.000000 0.000000 0.000000
vn 1.000000 0.000000 0.000000
vn 1.000000 0.000000 0.000000
vn 1.000000 0.000000 0.000000
vn 1.000000 0.000000 0.000000
vn 1.000000 0.000000 0.000000
vn 1.000000 0.000000 0.000000
vn 1.000000 0.000000 0.000000
vn 1.000000 0.000000 0.000000
vn 1.000000 0.000000 0.000000
vn 1.000000 0.000000 0.000000
vn 0.869147 -0.352030 -0.347359
vn 1.000000 0.000001 0.000001
vn 1.000000 0.000265 -0.000259
vn 0.873930 -0.345748 -0.341620
vn 0.869141 0.352490 0.346908
vn 0.873919 0.346666 0.340717
vt 0.615531 0.055384
vt 0.782766 0.035681
vt 0.782766 0.671984
vt 0.658755 0.651813
vt 0.950000 0.055384
vt 0.906776 0.651813
vt 0.154341 0.994723
vt 0.108456 0.994723
vt 0.087947 0.360568
vt 0.174849 0.360568
vt 0.074866 0.318731
vt 0.187928 0.318731
vt 0.221497 0.329975
vt 0.041299 0.329975
vt 0.056694 0.001971
vt 0.206101 0.001971
vt 0.221497 0.349323
vt 0.041299 0.349323
vt 0.545675 0.940839
vt 0.434560 0.954424
vt 0.434559 0.146183
vt 0.516527 0.167118
vt 0.323446 0.940839
vt 0.352595 0.167118
g hand
usemtl Default
f 98/98/98 99/99/99 100/100/100 
f 100/100/100 101/101/101 98/98/98 
f 102/102/102 103/103/103 100/100/100 
f 100/100/100 99/99/99 102/102/102 
f 104/104/104 105/105/105 106/106/106 107/107/107 
f 108/108/108 109/109/109 110/110/110 111/111/111 
f 112/112/112 113/113/113 109/109/109 108/108/108 
f 114/114/114 115/115/115 111/111/111 110/110/110 
f 114/114/114 107/107/107 106/106/106 115/115/115 
f 116/116/116 117/117/117 118/118/118 
f 118/118/118 119/119/119 116/116/116 
f 120/120/120 121/121/121 118/118/118 
f 118/118/118 117/117/117 120/120/120 
