mtllib model.mtl
o model.obj
v 0.125000 -4.000000 -1.250000
v 0.125000 -4.000000 -1.250000
v 0.125000 -4.000000 -1.250000
v 0.125000 4.000000 1.250000
v 0.125000 4.000000 1.250000
v 0.125000 4.000000 1.250000
v 0.125000 -4.000000 1.250000
v 0.125000 -4.000000 1.250000
v 0.125000 -4.000000 1.250000
v 0.125000 4.000000 -1.250000
v 0.125000 4.000000 -1.250000
v 0.125000 4.000000 -1.250000
v 0.000000 -4.000000 -1.250000
v 0.000000 -4.000000 -1.250000
v 0.000000 4.000000 1.250000
v 0.000000 4.000000 1.250000
v 0.000000 -4.000000 1.250000
v 0.000000 -4.000000 1.250000
v 0.000000 4.000000 -1.250000
v 0.000000 4.000000 -1.250000
vn 0.000000 -1.000000 0.000000
vn 0.000000 0.000000 -1.000000
vn 1.000000 0.000000 0.000000
vn 0.000000 0.000000 1.000000
vn 0.000000 1.000000 0.000000
vn 1.000000 0.000000 0.000000
vn 0.000000 0.000000 1.000000
vn 0.000000 -1.000000 0.000000
vn 1.000000 0.000000 0.000000
vn 0.000000 0.000000 -1.000000
vn 0.000000 1.000000 0.000000
vn 1.000000 0.000000 0.000000
vn 0.000000 -1.000000 0.000000
vn 0.000000 0.000000 -1.000000
vn 0.000000 0.000000 1.000000
vn 0.000000 1.000000 0.000000
vn 0.000000 0.000000 1.000000
vn 0.000000 -1.000000 0.000000
vn 0.000000 0.000000 -1.000000
vn 0.000000 1.000000 0.000000
vt 0.300519 0.995049
vt 0.300519 0.004950
vt 0.609925 0.004950
vt 0.609925 0.995049
vt 0.616844 0.995049
vt 0.616844 0.004950
vt 0.632314 0.004950
vt 0.632314 0.995049
vt 0.684010 0.314356
vt 0.684010 0.004950
vt 0.699481 0.004950
vt 0.699481 0.314356
vt 0.654703 0.004950
vt 0.654703 0.995049
vt 0.639233 0.995049
vt 0.639233 0.004950
vt 0.661622 0.314356
vt 0.661622 0.004950
vt 0.677092 0.004950
vt 0.677092 0.314356
g sign_conference_room
usemtl Default
f 6/1/6 9/2/9 3/3/3 12/4/12 
f 15/5/15 17/6/17 7/7/7 4/8/4 
f 18/9/18 13/10/13 1/11/1 8/12/8 
f 14/13/14 19/14/19 10/15/10 2/16/2 
f 20/17/20 16/18/16 5/19/5 11/20/11 
