# Wavefront OBJ file
# Creator: Ultimate Unwrap3D Pro v3.35
# Website: http://www.unwrap3d.com
# Time: Sun Jul 07 08:26:42 2013
# num_vertices: 74
# num_vertex_normals: 74
# num_uvs: 112
# num_faces: 31
# num_groups: 1

v 0.937500 -12.217500 20.000000
v 0.937500 -12.217500 -20.000000
v 1.000000 -12.000000 -19.500000
v 1.000000 10.000000 -19.500000
v 1.000000 10.000000 -19.500000
v 0.875000 -12.000000 -19.500000
v 0.875000 10.000000 -19.500000
v 0.875000 10.000000 -19.500000
v 0.875000 -12.000000 19.500000
v 0.875000 10.000000 19.500000
v 0.875000 10.000000 19.500000
v 1.000000 10.000000 19.500000
v 1.000000 10.000000 19.500000
v 1.000000 -12.000000 19.500000
v 2.000000 11.750000 -21.000000
v 2.000000 11.750000 -21.000000
v 2.000000 11.750000 -21.000000
v 2.000000 10.500000 -21.000000
v 2.000000 10.500000 -21.000000
v 2.000000 10.500000 -21.000000
v 0.000000 12.250000 -21.000000
v 0.000000 12.250000 -21.000000
v 0.000000 10.000000 21.000000
v 0.000000 10.000000 21.000000
v 2.000000 10.500000 21.000000
v 2.000000 10.500000 21.000000
v 2.000000 10.500000 21.000000
v -0.000000 10.000000 -21.000000
v -0.000000 10.000000 -21.000000
v 2.000000 11.750000 21.000000
v 2.000000 11.750000 21.000000
v 2.000000 11.750000 21.000000
v 0.000000 12.250000 21.000000
v 0.000000 12.250000 21.000000
v 1.500000 12.250000 -21.000000
v 1.500000 12.250000 -21.000000
v 1.500000 12.250000 -21.000000
v 1.500000 10.000000 -21.000000
v 1.500000 10.000000 -21.000000
v 1.500000 10.000000 -21.000000
v 1.500000 10.000000 21.000000
v 1.500000 10.000000 21.000000
v 1.500000 10.000000 21.000000
v 1.500000 12.250000 21.000000
v 1.500000 12.250000 21.000000
v 1.500000 12.250000 21.000000
v 0.687500 -12.217500 -20.000000
v 0.687500 -12.217500 20.000000
v 0.812500 -12.000000 -20.000000
v 0.812500 -12.000000 20.000000
v 1.062500 -12.000000 -20.000000
v 1.062500 -12.000000 20.000000
v 1.187500 -12.217500 -20.000000
v 1.187500 -12.217500 20.000000
v 1.062500 -12.434006 -20.000000
v 1.062500 -12.434006 20.000000
v 0.812500 -12.434006 -20.000000
v 0.812500 -12.434006 20.000000
v 0.687500 -12.217500 -20.000000
v 0.687500 -12.217500 20.000000
v 0.812500 -12.434006 -20.000000
v 0.812500 -12.434006 20.000000
v 0.812500 -12.000000 -20.000000
v 0.812500 -12.000000 20.000000
v 0.875000 -12.000000 -19.500000
v 0.875000 -12.000000 19.500000
v 1.000000 -12.000000 -19.500000
v 1.000000 -12.000000 19.500000
v 1.062500 -12.434006 -20.000000
v 1.062500 -12.434006 20.000000
v 1.062500 -12.000000 -20.000000
v 1.062500 -12.000000 20.000000
v 1.187500 -12.217500 -20.000000
v 1.187500 -12.217500 20.000000
# num_vertices: 74

vn 0.000000 0.000000 1.000000
vn 0.000000 0.000000 -1.000000
vn 0.000000 0.000000 -1.000000
vn 0.000000 0.000000 -1.000000
vn 1.000000 0.000000 0.000000
vn 0.000000 0.000000 -1.000000
vn 0.000000 0.000000 -1.000000
vn -1.000000 0.000000 0.000000
vn 0.000000 0.000000 1.000000
vn 0.000000 0.000000 1.000000
vn -1.000000 0.000000 0.000000
vn 0.000000 0.000000 1.000000
vn 1.000000 0.000000 0.000000
vn 0.000000 0.000000 1.000000
vn 0.707107 0.707107 0.000000
vn 0.000000 0.000000 -1.000000
vn 1.000000 0.000000 0.000000
vn 0.000000 0.000000 -1.000000
vn 0.707107 -0.707107 0.000000
vn 1.000000 0.000000 0.000000
vn 0.000000 0.000000 -1.000000
vn 0.000000 1.000000 0.000000
vn 0.000000 -1.000000 0.000000
vn 0.000000 0.000000 1.000000
vn 0.707107 -0.707107 0.000000
vn 0.000000 0.000000 1.000000
vn 1.000000 0.000000 0.000000
vn 0.000000 0.000000 -1.000000
vn 0.000000 -1.000000 0.000000
vn 0.707107 0.707107 0.000000
vn 0.000000 0.000000 1.000000
vn 1.000000 0.000000 0.000000
vn 0.000000 0.000000 1.000000
vn 0.000000 1.000000 0.000000
vn 0.707107 0.707107 0.000000
vn 0.000000 0.000000 -1.000000
vn 0.000000 1.000000 0.000000
vn 0.000000 0.000000 -1.000000
vn 0.707107 -0.707107 0.000000
vn 0.000000 -1.000000 0.000000
vn 0.707107 -0.707107 0.000000
vn 0.000000 0.000000 1.000000
vn 0.000000 -1.000000 0.000000
vn 0.707107 0.707107 0.000000
vn 0.000000 0.000000 1.000000
vn 0.000000 1.000000 0.000000
vn 0.000000 0.000000 -1.000000
vn 0.000000 0.000000 1.000000
vn 0.000000 0.000000 -1.000000
vn 0.000000 0.000000 1.000000
vn 0.000000 0.000000 -1.000000
vn 0.000000 0.000000 1.000000
vn 0.000000 0.000000 -1.000000
vn 0.000000 0.000000 1.000000
vn 0.000000 0.000000 -1.000000
vn 0.000000 0.000000 1.000000
vn 0.000000 0.000000 -1.000000
vn 0.000000 0.000000 1.000000
vn -1.000000 -0.000990 0.000000
vn -1.000000 -0.000990 0.000000
vn -0.500000 -0.866026 0.000000
vn -0.500000 -0.866026 0.000000
vn -0.500857 0.865530 0.000000
vn -0.500857 0.865530 0.000000
vn -1.000000 0.000000 0.000000
vn -1.000000 0.000000 0.000000
vn 1.000000 0.000000 0.000000
vn 1.000000 0.000000 0.000000
vn 0.500000 -0.866026 0.000000
vn 0.500000 -0.866026 0.000000
vn 0.500857 0.865530 0.000000
vn 0.500857 0.865530 0.000000
vn 1.000000 -0.000990 0.000000
vn 1.000000 -0.000990 0.000000
# num_vertex_normals: 74

vt 0.474838 0.315026
vt 0.084953 0.315026
vt 0.084953 -0.376134
vt 0.474838 -0.376134
vt -0.394906 1.376134
vt -0.394906 0.986249
vt -0.392691 0.986249
vt -0.392691 1.376134
vt -0.305898 -0.376134
vt 0.083987 -0.376134
vt 0.083987 0.315026
vt -0.305898 0.315026
vt -0.389510 0.986249
vt -0.389510 1.376134
vt -0.391725 1.376134
vt -0.391725 0.986249
vt -0.372754 -0.376134
vt -0.372754 0.368192
vt -0.394906 0.368192
vt -0.394906 -0.376134
vt -0.353100 0.986249
vt -0.353100 1.026123
vt -0.379683 1.026123
vt -0.379683 0.986249
vt -0.344239 0.368192
vt -0.344239 -0.376134
vt -0.317656 -0.376134
vt -0.317656 0.368192
vt 0.858761 0.895476
vt 0.849900 0.904337
vt 0.323582 0.378019
vt 0.332443 0.369158
vt -0.352135 1.026123
vt -0.352135 0.986249
vt -0.325552 0.986249
vt -0.325552 1.026123
vt -0.371788 0.368192
vt -0.371788 -0.376134
vt -0.345205 -0.376134
vt -0.345205 0.368192
vt -0.379683 1.026123
vt -0.388544 1.017262
vt -0.388544 0.995110
vt -0.379683 0.986249
vt 1.386045 0.369158
vt 1.394906 0.378019
vt 0.868588 0.904337
vt 0.859727 0.895476
vt -0.325552 0.986249
vt -0.316691 0.995110
vt -0.316691 1.017262
vt -0.325552 1.026123
vt 0.475803 -0.373919
vt 0.479658 -0.376134
vt 0.832883 0.238477
vt 0.829028 0.240692
vt -0.315725 0.988464
vt -0.311870 0.986249
vt -0.311870 0.990679
vt -0.303213 0.995110
vt -0.307068 0.992894
vt -0.303213 0.990679
vt -0.306864 0.332748
vt -0.311294 0.332748
vt -0.311294 -0.376134
vt -0.306864 -0.376134
vt -0.315725 0.992894
vt -0.315725 0.988464
vt -0.311870 0.990679
vt -0.307068 0.992894
vt -0.307068 0.988464
vt -0.303213 0.990679
vt 0.837703 0.240692
vt 0.833848 0.238477
vt 1.187073 -0.376134
vt 1.190928 -0.373919
vt -0.311870 0.995110
vt -0.315725 0.992894
vt -0.311870 0.990679
vt -0.307068 0.988464
vt -0.303213 0.986249
vt -0.303213 0.990679
vt 0.322616 0.983068
vt 0.318780 0.985283
vt -0.035662 0.371373
vt -0.031825 0.369158
vt -0.308033 0.992894
vt -0.311870 0.995110
vt -0.311870 0.990679
vt -0.303213 0.986249
vt -0.299376 0.988464
vt -0.303213 0.990679
vt -0.316691 -0.376134
vt -0.312260 -0.376134
vt -0.312260 0.332748
vt -0.316691 0.332748
vt -0.308033 0.988464
vt -0.308033 0.992894
vt -0.311870 0.990679
vt -0.299376 0.988464
vt -0.299376 0.992894
vt -0.303213 0.990679
vt -0.040465 0.369158
vt -0.036628 0.371373
vt -0.391069 0.985283
vt -0.394906 0.983068
vt -0.311870 0.986249
vt -0.308033 0.988464
vt -0.311870 0.990679
vt -0.299376 0.992894
vt -0.303213 0.995110
vt -0.303213 0.990679
# num_uvs: 112

g base

f 67/1/67 5/2/5 13/3/13 68/4/68 
f 4/5/4 3/6/3 6/7/6 7/8/7 
f 8/9/8 65/10/65 66/11/66 11/12/11 
f 14/13/14 12/14/12 10/15/10 9/16/9 
f 27/17/27 20/18/20 17/19/17 32/20/32 
f 28/21/28 21/22/21 36/23/36 38/24/38 
f 23/25/23 29/26/29 40/27/40 43/28/43 
f 15/29/15 35/30/35 44/31/44 30/32/30 
f 33/33/33 24/34/24 42/35/42 45/36/45 
f 22/37/22 34/38/34 46/39/46 37/40/37 
f 36/41/36 16/42/16 18/43/18 38/44/38 
f 39/45/39 19/46/19 25/47/25 41/48/41 
f 42/49/42 26/50/26 31/51/31 45/52/45 
f 63/53/63 59/54/59 60/55/60 64/56/64 
f 50/57/50 48/58/48 1/59/1 
f 47/60/47 49/61/49 2/62/2 
f 71/63/71 63/64/63 64/65/64 72/66/72 
f 52/67/52 50/68/50 1/69/1 
f 49/70/49 51/71/51 2/72/2 
f 73/73/73 71/74/71 72/75/72 74/76/74 
f 54/77/54 52/78/52 1/79/1 
f 51/80/51 53/81/53 2/82/2 
f 69/83/69 73/84/73 74/85/74 70/86/70 
f 56/87/56 54/88/54 1/89/1 
f 53/90/53 55/91/55 2/92/2 
f 61/93/61 69/94/69 70/95/70 62/96/62 
f 58/97/58 56/98/56 1/99/1 
f 55/100/55 57/101/57 2/102/2 
f 59/103/59 61/104/61 62/105/62 60/106/60 
f 48/107/48 58/108/58 1/109/1 
f 57/110/57 47/111/47 2/112/2 
# num_faces: 31

