mtllib model.mtl
o model.obj
v 0.000000 -3.000000 0.000000
v 0.500000 -3.000000 0.000000
v 0.000000 -2.853170 0.927051
v 0.500000 -2.853170 0.927051
v 0.000000 -2.427051 1.763356
v 0.500000 -2.427051 1.763356
v 0.000000 -1.763356 2.427051
v 0.500000 -1.763356 2.427051
v 0.000000 -0.927051 2.853169
v 0.500000 -0.927051 2.853169
v 0.000000 -0.000000 3.000000
v 0.500000 -0.000000 3.000000
v 0.000000 0.927051 2.853169
v 0.500000 0.927051 2.853169
v 0.000000 1.763355 2.427051
v 0.500000 1.763355 2.427051
v 0.000000 2.427051 1.763356
v 0.500000 2.427051 1.763356
v 0.000000 2.853170 0.927051
v 0.500000 2.853170 0.927051
v 0.000000 3.000000 0.000000
v 0.500000 3.000000 0.000000
v 0.000000 2.853170 -0.927051
v 0.500000 2.853170 -0.927051
v 0.000000 2.427051 -1.763356
v 0.500000 2.427051 -1.763356
v 0.000000 1.763355 -2.427051
v 0.500000 1.763355 -2.427051
v 0.000000 0.927051 -2.853169
v 0.500000 0.927051 -2.853169
v 0.000000 -0.000000 -3.000000
v 0.500000 -0.000000 -3.000000
v 0.000000 -0.927052 -2.853170
v 0.500000 -0.927052 -2.853170
v 0.000000 -1.763357 -2.427051
v 0.500000 -1.763357 -2.427051
v 0.000000 -2.427052 -1.763356
v 0.500000 -2.427052 -1.763356
v 0.000000 -2.853171 -0.927051
v 0.500000 -2.853171 -0.927051
v 0.500000 -0.000000 0.000000
vn 0.000000 -1.000000 0.000001
vn 0.711473 -0.702714 0.000000
vn 0.000000 -0.951057 0.309017
vn 0.711473 -0.668320 0.217150
vn 0.000000 -0.809017 0.587785
vn 0.711473 -0.568507 0.413045
vn 0.000000 -0.587785 0.809017
vn 0.711473 -0.413045 0.568507
vn 0.000000 -0.309017 0.951056
vn 0.711473 -0.217150 0.668320
vn 0.000000 -0.000000 1.000000
vn 0.711473 -0.000000 0.702713
vn 0.000000 0.309017 0.951057
vn 0.711473 0.217150 0.668320
vn 0.000000 0.587785 0.809017
vn 0.711473 0.413045 0.568507
vn 0.000000 0.809017 0.587786
vn 0.711473 0.568507 0.413045
vn 0.000000 0.951056 0.309017
vn 0.711473 0.668320 0.217150
vn 0.000000 1.000000 0.000000
vn 0.711473 0.702714 0.000000
vn 0.000000 0.951057 -0.309017
vn 0.711473 0.668320 -0.217150
vn 0.000000 0.809017 -0.587785
vn 0.711473 0.568507 -0.413045
vn 0.000000 0.587785 -0.809017
vn 0.711473 0.413045 -0.568507
vn 0.000000 0.309017 -0.951056
vn 0.711473 0.217150 -0.668320
vn 0.000000 0.000000 -1.000000
vn 0.711473 0.000000 -0.702713
vn 0.000000 -0.309017 -0.951057
vn 0.711473 -0.217150 -0.668320
vn 0.000000 -0.587785 -0.809017
vn 0.711473 -0.413045 -0.568507
vn 0.000000 -0.809017 -0.587785
vn 0.711473 -0.568507 -0.413045
vn 0.000000 -0.951057 -0.309016
vn 0.711473 -0.668320 -0.217150
vn 1.000000 0.000000 0.000000
vt 0.970820 0.347021
vt 0.995049 0.500000
vt 0.995049 0.500000
vt 0.970820 0.347021
vt 0.500000 0.500000
vt 0.900503 0.209017
vt 0.900503 0.209017
vt 0.790983 0.099497
vt 0.790983 0.099497
vt 0.652979 0.029180
vt 0.652979 0.029180
vt 0.500000 0.004950
vt 0.500000 0.004950
vt 0.347021 0.029180
vt 0.347021 0.029180
vt 0.209017 0.099497
vt 0.209017 0.099497
vt 0.099497 0.209017
vt 0.099497 0.209017
vt 0.029180 0.347021
vt 0.029180 0.347021
vt 0.004951 0.500000
vt 0.004951 0.500000
vt 0.029180 0.652979
vt 0.029180 0.652979
vt 0.099497 0.790983
vt 0.099497 0.790983
vt 0.209017 0.900503
vt 0.209017 0.900503
vt 0.347021 0.970820
vt 0.347021 0.970820
vt 0.500000 0.995049
vt 0.500000 0.995049
vt 0.652979 0.970820
vt 0.652979 0.970820
vt 0.790983 0.900504
vt 0.790983 0.900504
vt 0.900504 0.790983
vt 0.900504 0.790983
vt 0.970820 0.652979
vt 0.970820 0.652979
g Cylinder
usemtl Default
f 3/1/3 1/2/1 2/3/2 4/4/4 
f 4/4/4 2/3/2 41/5/41 
f 5/6/5 3/1/3 4/4/4 6/7/6 
f 6/7/6 4/4/4 41/5/41 
f 7/8/7 5/6/5 6/7/6 8/9/8 
f 8/9/8 6/7/6 41/5/41 
f 9/10/9 7/8/7 8/9/8 10/11/10 
f 10/11/10 8/9/8 41/5/41 
f 11/12/11 9/10/9 10/11/10 12/13/12 
f 12/13/12 10/11/10 41/5/41 
f 13/14/13 11/12/11 12/13/12 14/15/14 
f 14/15/14 12/13/12 41/5/41 
f 15/16/15 13/14/13 14/15/14 16/17/16 
f 16/17/16 14/15/14 41/5/41 
f 17/18/17 15/16/15 16/17/16 18/19/18 
f 18/19/18 16/17/16 41/5/41 
f 19/20/19 17/18/17 18/19/18 20/21/20 
f 20/21/20 18/19/18 41/5/41 
f 21/22/21 19/20/19 20/21/20 22/23/22 
f 22/23/22 20/21/20 41/5/41 
f 23/24/23 21/22/21 22/23/22 24/25/24 
f 24/25/24 22/23/22 41/5/41 
f 25/26/25 23/24/23 24/25/24 26/27/26 
f 26/27/26 24/25/24 41/5/41 
f 27/28/27 25/26/25 26/27/26 28/29/28 
f 28/29/28 26/27/26 41/5/41 
f 29/30/29 27/28/27 28/29/28 30/31/30 
f 30/31/30 28/29/28 41/5/41 
f 31/32/31 29/30/29 30/31/30 32/33/32 
f 32/33/32 30/31/30 41/5/41 
f 33/34/33 31/32/31 32/33/32 34/35/34 
f 34/35/34 32/33/32 41/5/41 
f 35/36/35 33/34/33 34/35/34 36/37/36 
f 36/37/36 34/35/34 41/5/41 
f 37/38/37 35/36/35 36/37/36 38/39/38 
f 38/39/38 36/37/36 41/5/41 
f 39/40/39 37/38/37 38/39/38 40/41/40 
f 40/41/40 38/39/38 41/5/41 
f 1/2/1 39/40/39 40/41/40 2/3/2 
f 2/3/2 40/41/40 41/5/41 
