# Wavefront OBJ file
# Creator: Ultimate Unwrap3D Pro v3.35
# Website: http://www.unwrap3d.com
# Time: Sat Jun 15 10:35:51 2013
# num_vertices: 51
# num_vertex_normals: 51
# num_uvs: 126
# num_faces: 42
# num_groups: 1

v -1.500000 0.000000 0.000000
v -0.500000 2.000000 0.000000
v -0.500000 0.000000 0.000000
v -2.500000 0.250000 1.750000
v -2.500000 0.250000 1.750000
v -2.500000 0.250000 1.750000
v -2.500000 2.000000 0.000000
v -2.500000 2.000000 0.000000
v -2.500000 0.250000 0.000000
v -2.500000 0.250000 0.000000
v -2.500000 2.000000 -1.750000
v -2.500000 2.000000 -1.750000
v -2.500000 2.000000 -1.750000
v -2.500000 2.000000 1.750000
v -2.500000 2.000000 1.750000
v -2.500000 2.000000 1.750000
v -1.500000 0.000000 -2.000000
v -1.500000 0.000000 -2.000000
v -1.500000 2.000000 -2.000000
v -1.500000 2.000000 -2.000000
v -2.500000 0.250000 -1.750000
v -2.500000 0.250000 -1.750000
v -2.500000 0.250000 -1.750000
v -1.500000 0.000000 2.000000
v -1.500000 0.000000 2.000000
v -0.500000 0.000000 -2.000000
v -0.500000 0.000000 -2.000000
v -0.500000 2.000000 -2.000000
v -0.500000 2.000000 -2.000000
v -0.500000 2.000000 2.000000
v -0.500000 2.000000 2.000000
v -1.500000 2.000000 2.000000
v -1.500000 2.000000 2.000000
v 2.500000 2.000000 -2.000000
v 2.500000 2.000000 -2.000000
v 2.500000 2.000000 -2.000000
v 2.500000 2.000000 0.000000
v 2.500000 2.000000 0.000000
v -0.500000 0.000000 2.000000
v -0.500000 0.000000 2.000000
v 2.500000 0.000000 -2.000000
v 2.500000 0.000000 -2.000000
v 2.500000 0.000000 -2.000000
v 2.500000 0.000000 0.000000
v 2.500000 0.000000 0.000000
v 2.500000 2.000000 2.000000
v 2.500000 2.000000 2.000000
v 2.500000 2.000000 2.000000
v 2.500000 0.000000 2.000000
v 2.500000 0.000000 2.000000
v 2.500000 0.000000 2.000000
# num_vertices: 51

vn -0.122183 -0.992508 0.000000
vn 0.000000 1.000000 0.000000
vn 0.000000 -1.000000 0.000000
vn -0.242536 -0.970143 0.000000
vn -0.242536 0.000000 0.970143
vn -1.000000 0.000000 0.000000
vn -1.000000 0.000000 0.000000
vn 0.000000 1.000000 0.000000
vn -0.242536 -0.970143 0.000000
vn -1.000000 0.000000 0.000000
vn 0.000000 1.000000 0.000000
vn -0.242536 0.000000 -0.970143
vn -1.000000 0.000000 0.000000
vn -0.242536 0.000000 0.970143
vn 0.000000 1.000000 0.000000
vn -1.000000 0.000000 0.000000
vn -0.162774 -0.986663 0.000000
vn -0.081387 0.000000 -0.996683
vn 0.000000 1.000000 0.000000
vn -0.162774 0.000000 -0.986663
vn -0.242536 -0.970143 0.000000
vn -0.242536 0.000000 -0.970143
vn -1.000000 0.000000 0.000000
vn -0.081387 -0.996683 0.000000
vn -0.162774 0.000000 0.986663
vn 0.000000 -1.000000 0.000000
vn 0.000000 0.000000 -1.000000
vn 0.000000 1.000000 0.000000
vn 0.000000 0.000000 -1.000000
vn 0.000000 1.000000 0.000000
vn 0.000000 0.000000 1.000000
vn 0.000000 1.000000 0.000000
vn -0.081387 0.000000 0.996683
vn 0.000000 1.000000 0.000000
vn 1.000000 0.000000 0.000000
vn 0.000000 0.000000 -1.000000
vn 0.000000 1.000000 0.000000
vn 1.000000 0.000000 0.000000
vn 0.000000 -1.000000 0.000000
vn 0.000000 0.000000 1.000000
vn 1.000000 0.000000 0.000000
vn 0.000000 0.000000 -1.000000
vn 0.000000 -1.000000 0.000000
vn 0.000000 -1.000000 0.000000
vn 1.000000 0.000000 0.000000
vn 0.000000 1.000000 0.000000
vn 1.000000 0.000000 0.000000
vn 0.000000 0.000000 1.000000
vn 0.000000 0.000000 1.000000
vn 1.000000 0.000000 0.000000
vn 0.000000 -1.000000 0.000000
# num_vertex_normals: 51

vt 16.054688 20.351563
vt 16.000000 20.406250
vt 16.000000 20.351563
vt 16.000000 20.351563
vt 16.000000 20.406250
vt 15.945313 20.406250
vt 16.054688 13.062500
vt 16.000000 13.062500
vt 16.000000 13.031250
vt 16.054688 20.351563
vt 16.054688 20.406250
vt 16.000000 20.406250
vt 16.000000 13.062500
vt 15.937500 13.031250
vt 16.000000 13.031250
vt 16.000000 -11.062500
vt 15.937500 -11.031250
vt 15.945313 -11.062500
vt 16.000000 20.351563
vt 15.945313 20.406250
vt 15.945313 20.351563
vt 16.054688 13.062500
vt 16.000000 13.031250
vt 16.062500 13.031250
vt 16.054688 -11.062500
vt 16.000000 -11.000000
vt 16.000000 -11.062500
vt -12.062500 20.406250
vt -12.062500 20.351563
vt -12.031250 20.343750
vt 16.000000 13.031250
vt 15.937500 13.031250
vt 15.937500 13.000000
vt 16.000000 13.062500
vt 15.945313 13.062500
vt 15.937500 13.031250
vt 16.000000 -11.062500
vt 15.937500 -11.000000
vt 15.937500 -11.031250
vt 16.000000 -11.062500
vt 16.000000 -11.000000
vt 15.937500 -11.000000
vt 12.062500 20.351563
vt 12.062500 20.406250
vt 12.031250 20.406250
vt 16.062500 13.031250
vt 16.000000 13.031250
vt 16.000000 13.000000
vt 16.054688 -11.062500
vt 16.062500 -11.000000
vt 16.000000 -11.000000
vt -12.062500 20.406250
vt -12.031250 20.343750
vt -12.031250 20.406250
vt 16.000000 13.031250
vt 15.937500 13.000000
vt 16.000000 13.000000
vt 12.031250 20.343750
vt 12.000000 20.406250
vt 12.000000 20.343750
vt 12.031250 20.343750
vt 12.031250 20.406250
vt 12.000000 20.406250
vt 12.062500 20.351563
vt 12.031250 20.406250
vt 12.031250 20.343750
vt 16.000000 -11.000000
vt 15.937500 -10.906250
vt 15.937500 -11.000000
vt 16.062500 -11.000000
vt 16.000000 -10.906250
vt 16.000000 -11.000000
vt 16.062500 13.031250
vt 16.000000 13.000000
vt 16.062500 13.000000
vt 16.054688 -11.062500
vt 16.062500 -11.031250
vt 16.062500 -11.000000
vt -12.031250 20.406250
vt -12.031250 20.343750
vt -12.000000 20.343750
vt 15.937500 12.906250
vt 16.000000 13.000000
vt 15.937500 13.000000
vt 16.000000 -11.000000
vt 16.000000 -10.906250
vt 15.937500 -10.906250
vt 12.000000 20.343750
vt 12.000000 20.406250
vt 11.906250 20.406250
vt 16.000000 12.906250
vt 16.062500 13.000000
vt 16.000000 13.000000
vt 16.062500 -11.000000
vt 16.062500 -10.906250
vt 16.000000 -10.906250
vt -12.031250 20.406250
vt -12.000000 20.343750
vt -12.000000 20.406250
vt 15.937500 12.906250
vt 16.000000 12.906250
vt 16.000000 13.000000
vt -16.000000 20.406250
vt -15.937500 20.343750
vt -15.937500 20.406250
vt 12.000000 20.343750
vt 11.906250 20.406250
vt 11.906250 20.343750
vt 16.000000 12.906250
vt 16.062500 12.906250
vt 16.062500 13.000000
vt -16.062500 20.406250
vt -16.000000 20.343750
vt -16.000000 20.406250
vt -12.000000 20.406250
vt -11.906250 20.343750
vt -11.906250 20.406250
vt -12.000000 20.406250
vt -12.000000 20.343750
vt -11.906250 20.343750
vt -16.000000 20.406250
vt -16.000000 20.343750
vt -15.937500 20.343750
vt -16.062500 20.406250
vt -16.062500 20.343750
vt -16.000000 20.343750
# num_uvs: 126

g Generic

f 6/1/6 7/2/7 10/3/10 
f 10/4/10 7/5/7 13/6/13 
f 4/7/4 9/8/9 1/9/1 
f 6/10/6 16/11/16 7/12/7 
f 9/13/9 17/14/17 1/15/1 
f 8/16/8 19/17/19 11/18/11 
f 10/19/10 13/20/13 23/21/23 
f 4/22/4 1/23/1 24/24/24 
f 15/25/15 2/26/2 8/27/8 
f 14/28/14 5/29/5 25/30/25 
f 1/31/1 17/32/17 26/33/26 
f 9/34/9 21/35/21 17/36/17 
f 8/37/8 28/38/28 19/39/19 
f 8/40/8 2/41/2 28/42/28 
f 22/43/22 12/44/12 20/45/20 
f 24/46/24 1/47/1 3/48/3 
f 15/49/15 30/50/30 2/51/2 
f 14/52/14 25/53/25 33/54/33 
f 1/55/1 26/56/26 3/57/3 
f 18/58/18 29/59/29 27/60/27 
f 18/61/18 20/62/20 29/63/29 
f 22/64/22 20/65/20 18/66/18 
f 2/67/2 34/68/34 28/69/28 
f 30/70/30 37/71/37 2/72/2 
f 24/73/24 3/74/3 39/75/39 
f 15/76/15 32/77/32 30/78/30 
f 33/79/33 25/80/25 40/81/40 
f 43/82/43 3/83/3 26/84/26 
f 2/85/2 37/86/37 34/87/34 
f 27/88/27 29/89/29 36/90/36 
f 44/91/44 39/92/39 3/93/3 
f 30/94/30 46/95/46 37/96/37 
f 33/97/33 40/98/40 31/99/31 
f 43/100/43 44/101/44 3/102/3 
f 38/103/38 41/104/41 35/105/35 
f 27/106/27 36/107/36 42/108/42 
f 44/109/44 51/110/51 39/111/39 
f 47/112/47 45/113/45 38/114/38 
f 31/115/31 49/116/49 48/117/48 
f 31/118/31 40/119/40 49/120/49 
f 38/121/38 45/122/45 41/123/41 
f 47/124/47 50/125/50 45/126/45 
# num_faces: 42

