mtllib model.mtl
o model.obj
v 1.672965 -0.625000 2.000000
v 1.672965 0.625000 2.000000
v 1.672965 -0.625000 -2.000000
v 1.672965 0.625000 -2.000000
v -2.000000 0.625000 2.000000
v -2.000000 -0.625000 2.000000
v -2.000000 0.625000 -2.000000
v -2.000000 -0.625000 -2.000000
v -2.000000 0.625000 0.000000
v -2.000000 -0.625000 0.000000
v -2.000000 0.625000 1.500000
v -2.000000 -0.625000 1.500000
v -2.000000 -0.820165 1.125000
v -2.000000 0.820165 1.125000
v -2.000000 0.820165 0.375000
v -2.000000 -0.820165 0.375000
v -0.365821 0.625000 0.000000
v -0.365821 -0.625000 0.000000
v -0.365821 0.625000 1.500000
v -0.365821 -0.625000 1.500000
v -0.865821 -0.820165 1.125000
v -0.865821 0.820165 0.375000
v -0.865821 0.820165 1.125000
v -0.865821 -0.820165 0.375000
v -2.000000 -0.000000 1.389072
v -1.729234 -0.000000 1.321888
v -2.000000 0.451892 1.201892
v -1.729234 0.404386 1.154386
v -2.000000 0.639072 0.750000
v -1.729234 0.571888 0.750000
v -2.000000 0.451892 0.298108
v -1.729234 0.404386 0.345614
v -2.000000 -0.000000 0.110928
v -1.729234 -0.000000 0.178112
v -2.000000 -0.451892 0.298108
v -1.729234 -0.404386 0.345614
v -2.000000 -0.639072 0.750000
v -1.729234 -0.571888 0.750000
v -2.000000 -0.451892 1.201892
v -1.729234 -0.404386 1.154386
v -1.729234 -0.000000 0.750000
v 2.000000 -0.550148 -1.747795
v 2.000000 0.550148 -1.747795
v 2.000000 0.550148 1.747795
v 2.000000 -0.550148 1.747795
vn 0.233460 -0.832932 0.501719
vn 0.233460 0.832932 0.501719
vn 0.233460 -0.832932 -0.501719
vn 0.233460 0.832932 -0.501719
vn -0.816497 0.408248 0.408248
vn -0.816497 -0.408248 0.408248
vn -0.816497 0.408248 -0.408248
vn -0.816497 -0.408248 -0.408248
vn -0.839375 0.527983 -0.129168
vn -0.839375 -0.527983 -0.129168
vn -0.839375 0.527983 0.129168
vn -0.839375 -0.527983 0.129168
vn -0.839375 -0.527983 0.129168
vn -0.839375 0.527983 0.129168
vn -0.839375 0.527983 -0.129168
vn -0.839375 -0.527983 -0.129168
vn 0.094113 0.988365 -0.119491
vn 0.094113 -0.988365 -0.119491
vn 0.094113 0.988365 0.119491
vn 0.094113 -0.988365 0.119491
vn 0.126288 -0.978949 0.160342
vn 0.126288 0.978949 -0.160342
vn 0.126288 0.978949 0.160342
vn 0.126288 -0.978949 -0.160342
vn -0.949443 0.000000 -0.313938
vn -0.805359 0.000000 -0.592788
vn -0.886304 -0.327465 -0.327465
vn -0.805359 -0.419164 -0.419164
vn -0.886303 -0.463105 0.000000
vn -0.805359 -0.592788 0.000000
vn -0.886304 -0.327465 0.327465
vn -0.805359 -0.419164 0.419164
vn -0.949443 0.000000 0.313938
vn -0.805359 0.000000 0.592788
vn -0.886304 0.327465 0.327465
vn -0.805359 0.419164 0.419164
vn -0.886304 0.463105 0.000000
vn -0.805359 0.592788 0.000000
vn -0.886303 0.327465 -0.327465
vn -0.805359 0.419164 -0.419164
vn -1.000000 0.000000 0.000000
vn 0.825056 -0.438576 -0.356278
vn 0.825056 0.438576 -0.356278
vn 0.825056 0.438576 0.356278
vn 0.825056 -0.438576 0.356278
vt 0.502909 0.069311
vt 0.502909 0.009584
vt 0.942601 0.009584
vt 0.697921 0.069311
vt 0.826023 0.502093
vt 0.975225 0.502077
vt 0.975272 0.940486
vt 0.826071 0.940502
vt 0.363834 0.202775
vt 0.497033 0.202775
vt 0.497033 0.251192
vt 0.301962 0.251192
vt 0.518229 0.918493
vt 0.386897 0.918493
vt 0.386897 0.501255
vt 0.518229 0.501255
vt 0.942601 0.490548
vt 0.697921 0.251022
vt 0.057369 0.491002
vt 0.057369 0.009912
vt 0.301962 0.068615
vt 0.502909 0.203020
vt 0.502909 0.116959
vt 0.636048 0.117008
vt 0.636048 0.202883
vt 0.819743 0.941163
vt 0.670543 0.940481
vt 0.672547 0.502077
vt 0.821747 0.502758
vt 0.497033 0.491002
vt 0.502909 0.490548
vt 0.502909 0.251022
vt 0.497033 0.009912
vt 0.497033 0.068615
vt 0.363834 0.116397
vt 0.497033 0.116397
vt 0.326303 0.662419
vt 0.312022 0.612164
vt 0.343078 0.600148
vt 0.359036 0.656307
vt 0.598731 0.569516
vt 0.598731 0.637778
vt 0.550463 0.617784
vt 0.331118 0.714441
vt 0.364417 0.714441
vt 0.530470 0.569516
vt 0.326303 0.766464
vt 0.359036 0.772575
vt 0.550463 0.521249
vt 0.312022 0.816719
vt 0.343078 0.828734
vt 0.598731 0.501255
vt 0.288760 0.863499
vt 0.317083 0.881010
vt 0.646999 0.521249
vt 0.257308 0.905216
vt 0.281935 0.927627
vt 0.666992 0.569516
vt 0.288760 0.565383
vt 0.257308 0.523667
vt 0.281935 0.501255
vt 0.317083 0.547872
vt 0.646999 0.617784
vt 0.101197 0.883437
vt 0.155135 0.905779
vt 0.080535 0.919019
vt 0.057240 0.874259
vt 0.078855 0.829498
vt 0.057240 0.784738
vt 0.101197 0.775560
vt 0.080535 0.739977
vt 0.155135 0.753218
vt 0.080535 0.501255
vt 0.209074 0.775560
vt 0.229736 0.739977
vt 0.253031 0.784738
vt 0.231416 0.829498
vt 0.253031 0.874259
vt 0.209074 0.883437
vt 0.229736 0.919019
vt 0.229736 0.978700
vt 0.080535 0.978700
vt 0.229736 0.501255
vt 0.966343 0.989782
vt 0.835011 0.989796
vt 0.982869 0.040825
vt 0.982869 0.460283
vt 0.810584 0.990416
vt 0.679253 0.989816
vt 0.017131 0.460664
vt 0.017131 0.041456
g Generic
usemtl Default
f 11/1/11 5/2/5 2/3/2 19/4/19 
f 8/5/8 7/6/7 4/7/4 3/8/3 
f 24/9/24 16/10/16 10/11/10 18/12/18 
f 42/13/42 43/14/43 44/15/44 45/16/45 
f 4/17/4 17/18/17 19/4/19 2/3/2 
f 18/12/18 3/19/3 1/20/1 20/21/20 
f 15/22/15 14/23/14 23/24/23 22/25/22 
f 23/24/23 14/23/14 11/1/11 19/4/19 
f 1/26/1 2/27/2 5/28/5 6/29/6 
f 3/19/3 18/12/18 10/11/10 8/30/8 
f 17/18/17 4/17/4 7/31/7 9/32/9 
f 20/21/20 1/20/1 6/33/6 12/34/12 
f 21/35/21 24/9/24 18/12/18 20/21/20 
f 9/32/9 15/22/15 22/25/22 17/18/17 
f 13/36/13 16/10/16 24/9/24 21/35/21 
f 12/34/12 13/36/13 21/35/21 20/21/20 
f 17/18/17 22/25/22 23/24/23 19/4/19 
f 28/37/28 26/38/26 25/39/25 27/40/27 
f 41/41/41 26/42/26 28/43/28 
f 30/44/30 28/37/28 27/40/27 29/45/29 
f 41/41/41 28/43/28 30/46/30 
f 32/47/32 30/44/30 29/45/29 31/48/31 
f 41/41/41 30/46/30 32/49/32 
f 34/50/34 32/47/32 31/48/31 33/51/33 
f 41/41/41 32/49/32 34/52/34 
f 36/53/36 34/50/34 33/51/33 35/54/35 
f 41/41/41 34/52/34 36/55/36 
f 38/56/38 36/53/36 35/54/35 37/57/37 
f 41/41/41 36/55/36 38/58/38 
f 40/59/40 38/60/38 37/61/37 39/62/39 
f 41/41/41 38/58/38 40/63/40 
f 26/38/26 40/59/40 39/62/39 25/39/25 
f 41/41/41 40/63/40 26/42/26 
f 27/64/27 25/65/25 11/66/11 
f 27/64/27 11/66/11 14/67/14 
f 29/68/29 27/64/27 14/67/14 
f 29/68/29 14/67/14 15/69/15 
f 31/70/31 29/68/29 15/69/15 
f 31/70/31 15/69/15 9/71/9 
f 33/72/33 31/70/31 9/71/9 
f 33/72/33 9/71/9 7/73/7 
f 35/74/35 33/72/33 10/75/10 
f 35/74/35 10/75/10 16/76/16 
f 37/77/37 35/74/35 16/76/16 
f 37/77/37 16/76/16 13/78/13 
f 39/79/39 37/77/37 13/78/13 
f 39/79/39 13/78/13 12/80/12 
f 25/65/25 39/79/39 12/80/12 
f 25/65/25 12/80/12 6/81/6 
f 5/82/5 11/66/11 25/65/25 
f 6/81/6 5/82/5 25/65/25 
f 7/73/7 8/83/8 33/72/33 
f 8/83/8 10/75/10 33/72/33 
f 3/8/3 4/7/4 43/84/43 42/85/42 
f 4/17/4 2/3/2 44/86/44 43/87/43 
f 2/27/2 1/26/1 45/88/45 44/89/44 
f 1/20/1 3/19/3 42/90/42 45/91/45 
