# Wavefront OBJ file
# Creator: Ultimate Unwrap3D Pro v3.35
# Website: http://www.unwrap3d.com
# Time: Wed Jul 10 09:04:13 2013
# num_vertices: 120
# num_vertex_normals: 120
# num_uvs: 180
# num_faces: 48
# num_groups: 2

v -0.805863 1.143484 0.201556
v -0.805863 1.143484 -0.944960
v -0.597004 1.064724 0.201556
v -0.597004 1.064724 -0.944960
v -0.805863 1.143484 -0.944960
v -0.805863 1.143484 0.201556
v -0.597004 1.064724 0.201556
v -0.597004 1.064724 -0.944960
v 1.078158 0.000000 -0.850794
v 1.078158 0.000000 -0.850794
v 1.078158 0.000000 0.890148
v 1.078158 0.000000 0.890148
v 1.037433 0.137393 -0.850794
v 1.037433 0.137393 -0.850794
v 1.037433 0.137393 0.890148
v 1.037433 0.137393 0.890148
v -1.070436 0.000000 -0.850794
v -1.070436 0.000000 -0.850794
v -1.070436 0.000000 0.890148
v -1.070436 0.000000 0.890148
v -0.837790 0.844530 -0.850794
v -0.837790 0.844530 -0.850794
v -0.837790 0.844530 0.890148
v -0.837790 0.844530 0.890148
v 1.202610 0.075054 -1.243360
v 1.202610 0.075054 -1.243360
v 1.202610 0.075054 -1.243360
v 1.202610 0.075054 1.282715
v 1.202610 0.075054 1.282715
v 1.202610 0.075054 1.282715
v 1.305300 0.347375 -1.243360
v 1.305300 0.347375 -1.243360
v 1.305300 0.347375 -1.243360
v 1.305300 0.347375 1.282715
v 1.305300 0.347375 1.282715
v 1.305300 0.347375 1.282715
v -1.179907 0.973489 -1.243360
v -1.179907 0.973489 -1.243360
v -1.179907 0.973489 -1.243360
v -1.179907 0.973489 1.282715
v -1.179907 0.973489 1.282715
v -1.179907 0.973489 1.282715
v -1.077216 1.245810 -1.243360
v -1.077216 1.245810 -1.243360
v -1.077216 1.245810 -1.243360
v -1.077216 1.245810 1.282715
v -1.077216 1.245810 1.282715
v -1.077216 1.245810 1.282715
v 0.208631 1.015791 0.568549
v 0.208631 1.015791 0.568549
v 0.208631 1.015791 1.094540
v 0.208631 1.015791 1.094540
v 0.672413 0.759441 0.531327
v 0.672413 0.759441 1.131762
v -0.308939 1.129504 1.131762
v -0.308939 1.129504 0.531327
v -0.464546 0.998360 0.531327
v -0.464546 0.998360 0.531327
v -0.464546 0.998360 1.131762
v -0.464546 0.998360 1.131762
v 0.702681 0.558204 0.531327
v 0.702681 0.558204 0.531327
v 0.702681 0.558204 1.131762
v 0.702681 0.558204 1.131762
v -0.168907 1.140115 0.566141
v -0.168907 1.140115 0.566141
v -0.168907 1.140115 1.096948
v -0.168907 1.140115 1.096948
v 0.564322 0.865363 1.096226
v 0.564322 0.865363 1.096226
v 0.564322 0.865363 0.566863
v 0.564322 0.865363 0.566863
v 1.266956 0.535243 0.531327
v 1.266956 0.535243 0.531327
v 1.266956 0.535243 1.131762
v 1.266956 0.535243 1.131762
v 1.238614 0.694342 0.608786
v 1.238614 0.694342 0.608786
v 1.238614 0.694342 0.608786
v 1.238614 0.694342 1.054303
v 1.238614 0.694342 1.054303
v 1.238614 0.694342 1.054303
v -0.903481 1.353703 0.531327
v -0.903481 1.353703 0.531327
v -0.903481 1.353703 1.131762
v -0.903481 1.353703 1.131762
v -0.777144 1.454474 0.608786
v -0.777144 1.454474 0.608786
v -0.777144 1.454474 0.608786
v -0.777144 1.454474 1.054303
v -0.777144 1.454474 1.054303
v -0.777144 1.454474 1.054303
v 0.274359 1.190093 1.043497
v 0.274359 1.190093 1.043497
v 0.274359 1.190093 0.619592
v 0.274359 1.190093 0.619592
v 0.804047 0.951213 1.054303
v 0.804047 0.951213 1.054303
v 0.804047 0.951213 0.608786
v 0.804047 0.951213 0.608786
v -0.281171 1.360443 1.054303
v -0.281171 1.360443 1.054303
v -0.281171 1.360443 0.608786
v -0.281171 1.360443 0.608786
v -0.966151 1.187512 0.531327
v -0.966151 1.187512 0.531327
v -0.966151 1.187512 1.131762
v -0.966151 1.187512 1.131762
v 1.204286 0.369051 0.531327
v 1.204286 0.369051 0.531327
v 1.204286 0.369051 1.131762
v 1.204286 0.369051 1.131762
v 0.672413 0.759441 0.531327
v 0.672413 0.759441 0.531327
v 0.672413 0.759441 1.131762
v 0.672413 0.759441 1.131762
v -0.308939 1.129504 1.131762
v -0.308939 1.129504 1.131762
v -0.308939 1.129504 0.531327
v -0.308939 1.129504 0.531327
# num_vertices: 120

vn 0.352842 0.935683 -0.000000
vn 0.352842 0.935683 0.000001
vn 0.352841 0.935683 -0.000000
vn 0.352841 0.935683 0.000001
vn 0.352843 0.935683 0.000000
vn 0.352843 0.935683 0.000000
vn 0.352843 0.935683 0.000000
vn 0.352843 0.935683 0.000000
vn 0.958768 0.284191 0.000000
vn 0.000000 0.000000 -1.000000
vn 0.958768 0.284191 0.000000
vn 0.000000 0.000000 1.000000
vn 0.958768 0.284191 0.000000
vn 0.000000 0.000000 -1.000000
vn 0.958768 0.284191 0.000000
vn 0.000000 0.000000 1.000000
vn -0.964089 0.265581 0.000000
vn 0.000000 0.000000 -1.000000
vn -0.964089 0.265581 0.000000
vn 0.000000 0.000000 1.000000
vn -0.964089 0.265581 0.000000
vn 0.000000 0.000000 -1.000000
vn -0.964089 0.265581 0.000000
vn 0.000000 0.000000 1.000000
vn 0.935684 -0.352839 0.000000
vn 0.000000 0.000000 -1.000000
vn -0.352841 -0.935683 0.000000
vn 0.935684 -0.352839 0.000000
vn 0.000000 0.000000 1.000000
vn -0.352841 -0.935683 0.000000
vn 0.935684 -0.352839 0.000000
vn 0.000000 0.000000 -1.000000
vn 0.352841 0.935683 0.000001
vn 0.935684 -0.352839 0.000000
vn 0.000000 0.000000 1.000000
vn 0.352841 0.935683 -0.000000
vn -0.935683 0.352842 0.000000
vn 0.000000 0.000000 -1.000000
vn -0.352841 -0.935683 0.000000
vn -0.935683 0.352842 0.000000
vn 0.000000 0.000000 1.000000
vn -0.352841 -0.935683 0.000000
vn -0.935683 0.352842 0.000000
vn 0.000000 0.000000 -1.000000
vn 0.352842 0.935683 0.000001
vn -0.935683 0.352842 0.000000
vn 0.000000 0.000000 1.000000
vn 0.352842 0.935683 -0.000000
vn 0.090113 0.228343 -0.969401
vn -0.351443 -0.936209 0.000000
vn 0.093639 0.247121 0.964450
vn -0.351443 -0.936209 0.000000
vn 0.051354 0.221561 -0.973793
vn 0.051354 0.221561 0.973793
vn 0.109827 0.199973 0.973627
vn 0.109827 0.199973 -0.973627
vn 0.000000 0.000000 -1.000000
vn 0.644442 -0.764653 0.000000
vn 0.644442 -0.764653 0.000000
vn 0.000000 0.000000 1.000000
vn 0.000000 0.000000 -1.000000
vn -0.988877 -0.148737 0.000000
vn 0.000000 0.000000 1.000000
vn -0.988877 -0.148737 0.000000
vn -0.120946 -0.992659 0.000000
vn 0.150777 0.261357 -0.953393
vn -0.120946 -0.992659 0.000000
vn 0.149643 0.269189 0.951391
vn -0.554436 -0.832227 0.000000
vn 0.068418 0.299147 0.951751
vn 0.063810 0.288364 -0.955392
vn -0.554436 -0.832227 0.000000
vn 0.132334 0.261518 -0.956084
vn 0.995757 -0.092027 0.000000
vn 0.995757 -0.092027 0.000000
vn 0.132334 0.261518 0.956084
vn 0.984501 0.175380 0.000000
vn 0.271886 0.459969 -0.845285
vn 0.508849 0.860856 0.000000
vn 0.984501 0.175380 0.000000
vn 0.271886 0.459969 0.845285
vn 0.508849 0.860856 0.000000
vn -0.808585 0.588379 0.000000
vn 0.073295 0.283780 -0.956084
vn -0.808585 0.588379 0.000000
vn 0.073295 0.283780 0.956084
vn -0.623568 0.781770 0.000000
vn 0.099527 0.524963 -0.845286
vn 0.186271 0.982498 0.000000
vn -0.623568 0.781770 0.000000
vn 0.099527 0.524963 0.845286
vn 0.186271 0.982498 0.000000
vn 0.093639 0.247121 0.964450
vn 0.352841 0.935683 0.000000
vn 0.090113 0.228343 -0.969401
vn 0.352841 0.935683 0.000000
vn 0.131770 0.342862 0.930098
vn 0.460678 0.887567 0.000000
vn 0.129528 0.337601 -0.932335
vn 0.460678 0.887567 0.000000
vn 0.129196 0.344197 0.929966
vn 0.240085 0.970752 0.000000
vn 0.129808 0.340378 -0.931286
vn 0.240085 0.970752 0.000000
vn -0.935683 0.352842 0.000000
vn 0.000000 0.000000 -1.000000
vn -0.935683 0.352842 0.000000
vn 0.000000 0.000000 1.000000
vn 0.000000 0.000000 -1.000000
vn 0.935683 -0.352841 0.000000
vn 0.935683 -0.352841 0.000000
vn 0.000000 0.000000 1.000000
vn -0.699904 -0.714237 0.000000
vn -0.988877 -0.148737 0.000000
vn -0.699904 -0.714237 0.000000
vn -0.988877 -0.148737 0.000000
vn 0.075559 -0.997141 0.000000
vn 0.644442 -0.764653 0.000000
vn 0.075559 -0.997141 0.000000
vn 0.644442 -0.764653 0.000000
# num_vertex_normals: 120

vt 0.318826 0.908255
vt 0.336089 0.943688
vt 0.204034 0.944532
vt 0.220842 0.908881
vt 0.334559 0.398123
vt 0.317495 0.433660
vt 0.219492 0.433592
vt 0.202478 0.398032
vt 0.219492 0.433592
vt 0.317495 0.433660
vt 0.317131 0.544386
vt 0.219736 0.544395
vt 0.730277 0.018121
vt 0.791863 0.017852
vt 0.791863 0.102269
vt 0.730277 0.102000
vt 0.314609 0.670998
vt 0.317817 0.797566
vt 0.220460 0.798110
vt 0.222285 0.671260
vt 0.317817 0.797566
vt 0.318826 0.908255
vt 0.220842 0.908881
vt 0.220460 0.798110
vt 0.644496 0.012185
vt 0.666891 0.017737
vt 0.666891 0.102384
vt 0.644496 0.107936
vt 0.334559 0.398123
vt 0.202478 0.398032
vt 0.202504 0.358961
vt 0.334586 0.359052
vt 0.187241 0.410551
vt 0.166097 0.549153
vt 0.130643 0.521572
vt 0.148493 0.404572
vt 0.644496 0.012185
vt 0.644496 0.107936
vt 0.612044 0.107936
vt 0.612044 0.012185
vt 0.370707 0.549211
vt 0.349766 0.410745
vt 0.388471 0.404892
vt 0.406139 0.521713
vt 0.166818 0.793650
vt 0.188720 0.932093
vt 0.150021 0.938215
vt 0.131543 0.821414
vt 0.204034 0.944532
vt 0.336089 0.943688
vt 0.336339 0.982752
vt 0.204283 0.983595
vt 0.351239 0.930971
vt 0.371347 0.792393
vt 0.406940 0.819676
vt 0.389975 0.936592
vt 0.815997 0.107936
vt 0.815997 0.012185
vt 0.848449 0.012185
vt 0.848449 0.107936
vt 0.356952 0.670886
vt 0.357491 0.756755
vt 0.317817 0.797566
vt 0.314609 0.670998
vt 0.220460 0.798110
vt 0.166818 0.793650
vt 0.180166 0.757998
vt 0.356952 0.670886
vt 0.314609 0.670998
vt 0.317131 0.544386
vt 0.357284 0.582493
vt 0.219736 0.544395
vt 0.179598 0.582401
vt 0.166097 0.549153
vt 0.349766 0.410745
vt 0.370707 0.549211
vt 0.317131 0.544386
vt 0.317131 0.544386
vt 0.317495 0.433660
vt 0.349766 0.410745
vt 0.187241 0.410551
vt 0.219492 0.433592
vt 0.219736 0.544395
vt 0.187241 0.410551
vt 0.219736 0.544395
vt 0.166097 0.549153
vt 0.351239 0.930971
vt 0.318826 0.908255
vt 0.317817 0.797566
vt 0.317817 0.797566
vt 0.371347 0.792393
vt 0.351239 0.930971
vt 0.220460 0.798110
vt 0.220842 0.908881
vt 0.188720 0.932093
vt 0.220460 0.798110
vt 0.188720 0.932093
vt 0.166818 0.793650
vt 0.666891 0.017737
vt 0.730277 0.018121
vt 0.730277 0.102000
vt 0.666891 0.102384
vt 0.317131 0.544386
vt 0.314609 0.670998
vt 0.222285 0.671260
vt 0.219736 0.544395
vt 0.317131 0.544386
vt 0.370707 0.549211
vt 0.357284 0.582493
vt 0.219736 0.544395
vt 0.222285 0.671260
vt 0.179858 0.670616
vt 0.179598 0.582401
vt 0.791863 0.017852
vt 0.815997 0.012185
vt 0.815997 0.107936
vt 0.791863 0.102269
vt 0.357491 0.756755
vt 0.371347 0.792393
vt 0.317817 0.797566
vt 0.180166 0.757998
vt 0.179858 0.670616
vt 0.222285 0.671260
vt 0.220460 0.798110
vt 0.410698 0.786766
vt 0.391624 0.786766
vt 0.391624 0.555042
vt 0.410698 0.555042
vt 0.355530 0.138081
vt 0.479945 0.138081
vt 0.479945 0.385345
vt 0.355530 0.385345
vt 0.136101 0.631631
vt 0.016154 0.664673
vt 0.016154 0.359512
vt 0.035668 0.365296
vt 0.016185 0.681756
vt 0.136132 0.714799
vt 0.035699 0.981133
vt 0.016185 0.986918
vt 0.500379 0.329836
vt 0.500379 0.274339
vt 0.982072 0.274339
vt 0.982072 0.329836
vt 0.500379 0.401187
vt 0.500379 0.345690
vt 0.982072 0.345690
vt 0.982072 0.401187
vt 0.339605 0.343141
vt 0.016223 0.343141
vt 0.016223 0.017172
vt 0.339605 0.017172
vt 0.496310 0.180626
vt 0.496324 0.125128
vt 0.981870 0.125245
vt 0.981857 0.180743
vt 0.496320 0.255303
vt 0.496314 0.199806
vt 0.981861 0.199758
vt 0.981866 0.255255
vt 0.427888 0.423871
vt 0.983776 0.423871
vt 0.745856 0.487690
vt 0.493554 0.487690
vt 0.983776 0.423871
vt 0.983776 0.984207
vt 0.745856 0.536811
vt 0.745856 0.487690
vt 0.983776 0.984207
vt 0.427888 0.984207
vt 0.493554 0.536811
vt 0.745856 0.536811
vt 0.427888 0.984207
vt 0.427888 0.423871
vt 0.493554 0.487690
vt 0.493554 0.536811
vt 0.655128 0.924011
vt 0.344872 0.924011
vt 0.344872 0.012380
vt 0.655128 0.012380
# num_uvs: 180

g base

f 80/1/80 75/2/75 74/3/74 77/4/77 
f 85/5/85 90/6/90 87/7/87 83/8/83 
f 89/9/89 92/10/92 102/11/102 104/12/104 
f 50/13/50 72/14/72 69/15/69 52/16/52 
f 94/17/94 98/18/98 100/19/100 96/20/96 
f 98/21/98 82/22/82 79/23/79 100/24/100 
f 119/25/119 65/26/65 67/27/67 117/28/117 
f 85/29/85 83/30/83 105/31/105 107/32/107 
f 84/33/84 56/34/56 57/35/57 106/36/106 
f 120/37/120 118/38/118 59/39/59 58/40/58 
f 55/41/55 86/42/86 108/43/108 60/44/60 
f 53/45/53 73/46/73 109/47/109 61/48/61 
f 74/49/74 75/50/75 111/51/111 110/52/110 
f 76/53/76 54/54/54 63/55/63 112/56/112 
f 116/57/116 114/58/114 62/59/62 64/60/64 
f 51/61/51 70/62/70 97/63/97 93/64/93 
f 99/65/99 53/66/53 71/67/71 
f 51/68/51 93/69/93 101/70/101 68/71/68 
f 103/72/103 66/73/66 56/74/56 
f 86/75/86 55/76/55 101/77/101 
f 101/78/101 91/79/91 86/80/86 
f 84/81/84 88/82/88 103/83/103 
f 84/84/84 103/85/103 56/86/56 
f 76/87/76 81/88/81 97/89/97 
f 97/90/97 54/91/54 76/92/76 
f 99/93/99 78/94/78 73/95/73 
f 99/96/99 73/97/73 53/98/53 
f 65/99/65 50/100/50 52/101/52 67/102/67 
f 102/103/102 94/104/94 96/105/96 104/106/104 
f 101/107/101 55/108/55 68/109/68 
f 103/110/103 95/111/95 49/112/49 66/113/66 
f 72/114/72 113/115/113 115/116/115 69/117/69 
f 70/118/70 54/119/54 97/120/97 
f 71/121/71 49/122/49 95/123/95 99/124/99 
f 15/125/15 11/126/11 9/127/9 13/128/13 
f 19/129/19 23/130/23 21/131/21 17/132/17 
f 24/133/24 20/134/20 12/135/12 16/136/16 
f 18/137/18 22/138/22 14/139/14 10/140/10 
f 34/141/34 28/142/28 25/143/25 31/144/31 
f 40/145/40 46/146/46 43/147/43 37/148/37 
f 42/149/42 39/150/39 27/151/27 30/152/30 
f 47/153/47 41/154/41 29/155/29 35/156/35 
f 38/157/38 44/158/44 32/159/32 26/160/26 
f 45/161/45 48/162/48 1/163/1 2/164/2 
f 48/165/48 36/166/36 3/167/3 1/168/1 
f 36/169/36 33/170/33 4/171/4 3/172/3 
f 33/173/33 45/174/45 2/175/2 4/176/4 
# num_faces: 47

g screen

f 5/177/5 6/178/6 7/179/7 8/180/8 
# num_faces: 1

