# Wavefront OBJ file
# Creator: Ultimate Unwrap3D Pro v3.35
# Website: http://www.unwrap3d.com
# Time: Sat Jun 15 10:35:37 2013
# num_vertices: 52
# num_vertex_normals: 52
# num_uvs: 102
# num_faces: 34
# num_groups: 1

v 0.250000 4.000000 -5.000000
v 0.250000 -4.000000 5.000000
v 0.250000 -4.000000 -5.000000
v 0.250000 4.000000 5.000000
v 0.500000 -4.000000 -6.000000
v 0.500000 -4.000000 -6.000000
v 0.500000 -5.000000 6.000000
v 0.500000 -5.000000 6.000000
v 0.500000 -5.000000 6.000000
v 0.500000 -5.000000 -6.000000
v 0.500000 -5.000000 -6.000000
v 0.500000 -5.000000 -6.000000
v 0.000000 -5.000000 6.000000
v 0.000000 -5.000000 6.000000
v 0.000000 -5.000000 -6.000000
v 0.000000 -5.000000 -6.000000
v 0.000000 -4.000000 -5.000000
v 0.000000 -4.000000 -5.000000
v 0.500000 -4.000000 5.000000
v 0.500000 -4.000000 5.000000
v 0.500000 -4.000000 5.000000
v 0.500000 -4.000000 -5.000000
v 0.500000 -4.000000 -5.000000
v 0.500000 -4.000000 -5.000000
v 0.000000 -4.000000 5.000000
v 0.000000 -4.000000 5.000000
v 0.500000 -4.000000 6.000000
v 0.500000 -4.000000 6.000000
v 0.500000 5.000000 -5.000000
v 0.500000 5.000000 -5.000000
v 0.500000 5.000000 -6.000000
v 0.500000 5.000000 -6.000000
v 0.500000 5.000000 -6.000000
v 0.000000 5.000000 -6.000000
v 0.000000 5.000000 -6.000000
v 0.500000 5.000000 5.000000
v 0.500000 5.000000 5.000000
v 0.500000 5.000000 6.000000
v 0.500000 5.000000 6.000000
v 0.500000 5.000000 6.000000
v 0.000000 5.000000 6.000000
v 0.000000 5.000000 6.000000
v 0.000000 4.000000 5.000000
v 0.000000 4.000000 5.000000
v 0.500000 4.000000 -5.000000
v 0.500000 4.000000 -5.000000
v 0.500000 4.000000 -5.000000
v 0.500000 4.000000 5.000000
v 0.500000 4.000000 5.000000
v 0.500000 4.000000 5.000000
v 0.000000 4.000000 -5.000000
v 0.000000 4.000000 -5.000000
# num_vertices: 52

vn 1.000000 0.000000 0.000000
vn 1.000000 0.000000 0.000000
vn 1.000000 0.000000 0.000000
vn 1.000000 0.000000 0.000000
vn 1.000000 0.000000 0.000000
vn 0.000000 0.000000 -1.000000
vn 0.000000 -1.000000 0.000000
vn 0.000000 0.000000 1.000000
vn 1.000000 0.000000 0.000000
vn 0.000000 -1.000000 0.000000
vn 0.000000 0.000000 -1.000000
vn 1.000000 0.000000 0.000000
vn 0.000000 -1.000000 0.000000
vn 0.000000 0.000000 1.000000
vn 0.000000 -1.000000 0.000000
vn 0.000000 0.000000 -1.000000
vn 0.000000 1.000000 0.000000
vn 0.000000 0.000000 1.000000
vn 0.000000 1.000000 0.000000
vn 0.000000 0.000000 -1.000000
vn 1.000000 0.000000 0.000000
vn 0.000000 1.000000 0.000000
vn 0.000000 0.000000 1.000000
vn 1.000000 0.000000 0.000000
vn 0.000000 1.000000 0.000000
vn 0.000000 0.000000 -1.000000
vn 1.000000 0.000000 0.000000
vn 0.000000 0.000000 1.000000
vn 1.000000 0.000000 0.000000
vn 0.000000 1.000000 0.000000
vn 0.000000 1.000000 0.000000
vn 0.000000 0.000000 -1.000000
vn 1.000000 0.000000 0.000000
vn 0.000000 1.000000 0.000000
vn 0.000000 0.000000 -1.000000
vn 0.000000 1.000000 0.000000
vn 1.000000 0.000000 0.000000
vn 0.000000 1.000000 0.000000
vn 0.000000 0.000000 1.000000
vn 1.000000 0.000000 0.000000
vn 0.000000 1.000000 0.000000
vn 0.000000 0.000000 1.000000
vn 0.000000 -1.000000 0.000000
vn 0.000000 0.000000 -1.000000
vn 0.000000 -1.000000 0.000000
vn 0.000000 0.000000 1.000000
vn 1.000000 0.000000 0.000000
vn 0.000000 -1.000000 0.000000
vn 0.000000 0.000000 -1.000000
vn 1.000000 0.000000 0.000000
vn 0.000000 -1.000000 0.000000
vn 0.000000 0.000000 1.000000
# num_vertex_normals: 52

vt -16.437500 19.781250
vt -16.812500 19.750000
vt -16.437500 19.750000
vt 16.812500 15.000000
vt 16.437500 14.984375
vt 16.812500 14.984375
vt 16.812500 15.000000
vt 16.437500 15.000000
vt 16.437500 14.984375
vt 16.468750 -13.000000
vt 16.781250 -12.984375
vt 16.468750 -12.984375
vt 16.468750 -13.000000
vt 16.781250 -13.000000
vt 16.781250 -12.984375
vt -16.781250 19.781250
vt -16.812500 19.781250
vt -16.812500 19.750000
vt -16.468750 19.781250
vt -16.781250 19.781250
vt -16.812500 19.750000
vt -16.437500 19.781250
vt -16.468750 19.781250
vt -16.812500 19.750000
vt 16.468750 -12.984375
vt 16.437500 -12.984375
vt 16.437500 -13.000000
vt 16.781250 -12.984375
vt 16.468750 -12.984375
vt 16.437500 -13.000000
vt 16.437500 -13.000000
vt 16.812500 -12.984375
vt 16.781250 -12.984375
vt 16.437500 -13.000000
vt 16.812500 -13.000000
vt 16.812500 -12.984375
vt 16.781250 15.000000
vt 16.468750 14.984375
vt 16.781250 14.984375
vt 16.781250 15.000000
vt 16.468750 15.000000
vt 16.468750 14.984375
vt -16.468750 20.062500
vt -16.781250 20.031250
vt -16.468750 20.031250
vt -16.468750 20.062500
vt -16.781250 20.062500
vt -16.781250 20.031250
vt -16.468750 20.062500
vt -16.437500 19.781250
vt -16.437500 20.062500
vt -16.468750 20.031250
vt -16.468750 19.781250
vt -16.437500 19.781250
vt -16.468750 20.062500
vt -16.468750 20.031250
vt -16.437500 19.781250
vt -16.781250 20.031250
vt -16.781250 20.062500
vt -16.812500 20.062500
vt -16.812500 20.062500
vt -16.781250 19.781250
vt -16.781250 20.031250
vt -16.812500 20.062500
vt -16.812500 19.781250
vt -16.781250 19.781250
vt -14.000000 20.031250
vt -13.984375 19.781250
vt -13.984375 20.031250
vt -14.000000 20.031250
vt -14.000000 19.781250
vt -13.984375 19.781250
vt 13.984375 19.781250
vt 13.984375 19.750000
vt 14.000000 19.750000
vt 14.000000 19.750000
vt 13.984375 20.062500
vt 13.984375 19.781250
vt 14.000000 19.750000
vt 14.000000 20.062500
vt 13.984375 20.062500
vt 14.000000 19.781250
vt 13.984375 20.031250
vt 13.984375 19.781250
vt 14.000000 19.781250
vt 14.000000 20.031250
vt 13.984375 20.031250
vt -13.984375 19.781250
vt -13.984375 20.062500
vt -14.000000 20.062500
vt -14.000000 20.062500
vt -13.984375 19.750000
vt -13.984375 19.781250
vt -14.000000 20.062500
vt -14.000000 19.750000
vt -13.984375 19.750000
vt -16.468750 20.031250
vt -16.781250 19.781250
vt -16.468750 19.781250
vt -16.468750 20.031250
vt -16.781250 20.031250
vt -16.781250 19.781250
# num_uvs: 102

g Generic

f 5/1/5 9/2/9 12/3/12 
f 13/4/13 10/5/10 7/6/7 
f 13/7/13 15/8/15 10/9/10 
f 17/10/17 19/11/19 22/12/22 
f 17/13/17 25/14/25 19/15/19 
f 21/16/21 27/17/27 9/18/9 
f 24/19/24 21/20/21 9/21/9 
f 5/22/5 24/23/24 9/24/9 
f 30/25/30 31/26/31 34/27/34 
f 36/28/36 30/29/30 34/30/34 
f 34/31/34 38/32/38 36/33/36 
f 34/34/34 41/35/41 38/36/38 
f 43/37/43 45/38/45 48/39/48 
f 43/40/43 51/41/51 45/42/45 
f 29/43/29 50/44/50 47/45/47 
f 29/46/29 37/47/37 50/48/50 
f 29/49/29 5/50/5 33/51/33 
f 47/52/47 24/53/24 5/54/5 
f 29/55/29 47/56/47 5/57/5 
f 50/58/50 37/59/37 40/60/40 
f 40/61/40 21/62/21 50/63/50 
f 40/64/40 27/65/27 21/66/21 
f 52/67/52 23/68/23 46/69/46 
f 52/70/52 18/71/18 23/72/23 
f 6/73/6 11/74/11 16/75/16 
f 16/76/16 32/77/32 6/78/6 
f 16/79/16 35/80/35 32/81/32 
f 26/82/26 49/83/49 20/84/20 
f 26/85/26 44/86/44 49/87/49 
f 28/88/28 39/89/39 42/90/42 
f 42/91/42 8/92/8 28/93/28 
f 42/94/42 14/95/14 8/96/8 
f 1/97/1 2/98/2 3/99/3 
f 1/100/1 4/101/4 2/102/2 
# num_faces: 34

