# Wavefront OBJ file
# Creator: Ultimate Unwrap3D Pro v3.35
# Website: http://www.unwrap3d.com
# Time: Sat May 18 22:06:11 2013
# num_vertices: 64
# num_vertex_normals: 64
# num_uvs: 64
# num_faces: 16
# num_groups: 1

v 0.000000 0.000000 8.000000
v 0.000000 0.000000 -8.000000
v 0.250000 27.000000 7.000000
v 0.250000 27.000000 7.000000
v 0.250000 27.000000 7.000000
v 0.250000 27.000000 7.000000
v 0.250000 28.000000 8.000000
v 0.250000 28.000000 8.000000
v 0.250000 28.000000 8.000000
v 0.250000 28.000000 8.000000
v 0.000000 28.000000 8.000000
v 0.000000 28.000000 8.000000
v 0.250000 0.000000 8.000000
v 0.250000 0.000000 8.000000
v 0.250000 0.000000 7.000000
v 0.250000 0.000000 7.000000
v 0.250000 27.000000 -7.000000
v 0.250000 27.000000 -7.000000
v 0.250000 27.000000 -7.000000
v 0.250000 27.000000 -7.000000
v 0.250000 28.000000 -8.000000
v 0.250000 28.000000 -8.000000
v 0.250000 28.000000 -8.000000
v 0.250000 28.000000 -8.000000
v 0.000000 28.000000 -8.000000
v 0.000000 28.000000 -8.000000
v 0.250000 0.000000 -8.000000
v 0.250000 0.000000 -8.000000
v 0.250000 0.000000 -7.000000
v 0.250000 0.000000 -7.000000
v -0.500000 0.000000 6.750000
v -0.500000 0.000000 6.750000
v -1.000000 0.000000 -6.750000
v -1.000000 0.000000 -6.750000
v -0.500000 0.000000 -6.750000
v -0.500000 0.000000 -6.750000
v -0.500000 0.000000 -7.000000
v -0.500000 0.000000 -7.000000
v -0.500000 27.000000 -7.000000
v -0.500000 27.000000 -7.000000
v -0.500000 27.000000 -7.000000
v -0.500000 27.000000 -7.000000
v -1.000000 0.000000 6.750000
v -1.000000 0.000000 6.750000
v -0.500000 27.000000 7.000000
v -0.500000 27.000000 7.000000
v -0.500000 27.000000 7.000000
v -0.500000 27.000000 7.000000
v -0.500000 0.000000 7.000000
v -0.500000 0.000000 7.000000
v -1.000000 26.750000 -6.750000
v -1.000000 26.750000 -6.750000
v -1.000000 26.750000 -6.750000
v -0.500000 26.750000 6.750000
v -0.500000 26.750000 6.750000
v -0.500000 26.750000 6.750000
v -0.500000 26.750000 6.750000
v -0.500000 26.750000 -6.750000
v -0.500000 26.750000 -6.750000
v -0.500000 26.750000 -6.750000
v -0.500000 26.750000 -6.750000
v -1.000000 26.750000 6.750000
v -1.000000 26.750000 6.750000
v -1.000000 26.750000 6.750000
# num_vertices: 64

vn 0.000000 0.000000 1.000000
vn 0.000000 0.000000 -1.000000
vn 0.000000 0.000000 -1.000000
vn 0.000000 -1.000000 0.000000
vn 1.000000 0.000000 0.000000
vn 1.000000 0.000000 0.000000
vn 0.000000 1.000000 0.000000
vn 0.000000 0.000000 1.000000
vn 1.000000 0.000000 0.000000
vn 1.000000 0.000000 0.000000
vn 0.000000 1.000000 0.000000
vn 0.000000 0.000000 1.000000
vn 0.000000 0.000000 1.000000
vn 1.000000 0.000000 0.000000
vn 0.000000 0.000000 -1.000000
vn 1.000000 0.000000 0.000000
vn 0.000000 0.000000 1.000000
vn 0.000000 -1.000000 0.000000
vn 1.000000 0.000000 0.000000
vn 1.000000 0.000000 0.000000
vn 0.000000 1.000000 0.000000
vn 0.000000 0.000000 -1.000000
vn 1.000000 0.000000 0.000000
vn 1.000000 0.000000 0.000000
vn 0.000000 1.000000 0.000000
vn 0.000000 0.000000 -1.000000
vn 0.000000 0.000000 -1.000000
vn 1.000000 0.000000 0.000000
vn 0.000000 0.000000 1.000000
vn 1.000000 0.000000 0.000000
vn 1.000000 0.000000 0.000000
vn 0.000000 0.000000 -1.000000
vn 0.000000 0.000000 1.000000
vn 1.000000 0.000000 0.000000
vn 1.000000 0.000000 0.000000
vn 0.000000 0.000000 1.000000
vn 1.000000 0.000000 0.000000
vn 0.000000 0.000000 1.000000
vn 1.000000 0.000000 0.000000
vn 1.000000 0.000000 0.000000
vn 0.000000 0.000000 1.000000
vn 0.000000 -1.000000 0.000000
vn 0.000000 0.000000 -1.000000
vn 1.000000 0.000000 0.000000
vn 1.000000 0.000000 0.000000
vn 1.000000 0.000000 0.000000
vn 0.000000 0.000000 -1.000000
vn 0.000000 -1.000000 0.000000
vn 1.000000 0.000000 0.000000
vn 0.000000 0.000000 -1.000000
vn 0.000000 0.000000 1.000000
vn 0.000000 -1.000000 0.000000
vn 1.000000 0.000000 0.000000
vn 1.000000 0.000000 0.000000
vn 1.000000 0.000000 0.000000
vn 0.000000 0.000000 -1.000000
vn 0.000000 -1.000000 0.000000
vn 1.000000 0.000000 0.000000
vn 1.000000 0.000000 0.000000
vn 0.000000 0.000000 1.000000
vn 0.000000 -1.000000 0.000000
vn 0.000000 0.000000 -1.000000
vn 0.000000 -1.000000 0.000000
vn 1.000000 0.000000 0.000000
# num_vertex_normals: 64

vt -0.671851 0.983812
vt -0.663347 0.983812
vt -0.663347 1.528056
vt -0.671851 1.528056
vt -0.108754 0.012530
vt -0.108754 0.964959
vt -0.117258 0.964959
vt -0.117258 0.012530
vt -0.045537 0.012530
vt -0.020024 0.012530
vt -0.020024 0.930943
vt -0.045537 0.930943
vt -0.136110 0.964959
vt -0.144614 0.964959
vt -0.144614 0.012530
vt -0.136110 0.012530
vt -0.089900 0.012530
vt -0.064389 0.012530
vt -0.064389 0.930943
vt -0.089900 0.930943
vt -0.707712 0.983812
vt -0.690705 0.983812
vt -0.690705 1.893719
vt -0.707712 1.893719
vt 0.988962 0.012530
vt 0.988962 0.922439
vt 0.529756 0.922439
vt 0.529756 0.012530
vt -0.707712 0.964959
vt -0.707712 0.012530
vt -0.673696 0.012530
vt -0.673696 0.930943
vt -0.197484 0.930943
vt -0.197484 0.012530
vt -0.163468 0.012530
vt -0.163468 0.964959
vt 0.493896 0.922439
vt 0.493896 0.012530
vt 0.510903 0.012530
vt 0.510903 0.922439
vt 0.466538 0.922439
vt 0.466538 0.012530
vt 0.475042 0.012530
vt 0.475042 0.930943
vt -0.001172 0.930943
vt -0.001172 0.012530
vt 0.007332 0.012530
vt 0.007332 0.922439
vt 0.466538 0.922439
vt 0.475042 0.930943
vt -0.001172 0.930943
vt 0.007332 0.922439
vt -0.583121 1.443018
vt -0.600130 1.443018
vt -0.600130 0.983812
vt -0.583121 0.983812
vt -0.673696 0.930943
vt -0.197484 0.930943
vt -0.163468 0.964959
vt -0.707712 0.964959
vt -0.644495 1.460025
vt -0.644495 0.983812
vt -0.618984 0.983812
vt -0.618984 1.460025
# num_uvs: 64

g base

f 11/1/11 7/2/7 21/3/21 25/4/25 
f 13/5/13 8/6/8 12/7/12 1/8/1 
f 15/9/15 50/10/50 47/11/47 3/12/3 
f 26/13/26 22/14/22 27/15/27 2/16/2 
f 38/17/38 29/18/29 17/19/17 41/20/41 
f 33/21/33 36/22/36 60/23/60 51/24/51 
f 34/25/34 53/26/53 64/27/64 44/28/44 
f 9/29/9 14/30/14 16/31/16 5/32/5 
f 19/33/19 30/34/30 28/35/28 23/36/23 
f 56/37/56 32/38/32 43/39/43 62/40/62 
f 58/41/58 35/42/35 37/43/37 39/44/39 
f 45/45/45 49/46/49 31/47/31 54/48/54 
f 59/49/59 40/50/40 46/51/46 55/52/55 
f 57/53/57 63/54/63 52/55/52 61/56/61 
f 6/57/6 20/58/20 24/59/24 10/60/10 
f 48/61/48 42/62/42 18/63/18 4/64/4 
# num_faces: 16

